SplineFontDB: 3.0
FontName: NovaCut
FullName: NovaCut
FamilyName: NovaCut
Weight: Regular
Copyright: wmk69 (wmk69@o2.pl)\nSIL Open Font License v.1.1
Version: 1.22
ItalicAngle: 0
UnderlinePosition: -81
UnderlineWidth: 122
Ascent: 1511
Descent: 537
LayerCount: 2
Layer: 0 1 "Warstwa t+AUIA-a"  1
Layer: 1 1 "Plan pierwszy"  0
XUID: [1021 783 23647091 8360855]
FSType: 0
OS2Version: 3
OS2_WeightWidthSlopeOnly: 0
OS2_UseTypoMetrics: 1
CreationTime: 1260698820
ModificationTime: 1306680460
PfmFamily: 33
TTFWeight: 500
TTFWidth: 5
LineGap: 0
VLineGap: 0
Panose: 2 12 6 4 2 2 2 1 2 4
OS2TypoAscent: 2094
OS2TypoAOffset: 0
OS2TypoDescent: -506
OS2TypoDOffset: 0
OS2TypoLinegap: 0
OS2WinAscent: 2094
OS2WinAOffset: 0
OS2WinDescent: 506
OS2WinDOffset: 0
HheadAscent: 2094
HheadAOffset: 0
HheadDescent: -506
HheadDOffset: 0
OS2SubXSize: 1434
OS2SubYSize: 1331
OS2SubXOff: 0
OS2SubYOff: 287
OS2SupXSize: 1434
OS2SupYSize: 1331
OS2SupXOff: 0
OS2SupYOff: 977
OS2StrikeYSize: 102
OS2StrikeYPos: 512
OS2Vendor: '    '
OS2CodePages: 20000093.00000000
OS2UnicodeRanges: 8000002f.4000204b.00000000.00000000
Lookup: 258 0 0 "'kern' Kerning poziomy w tablicy 0"  {"Podtablica 'kern' Kerning poziomy w tablicy 0"  } ['kern' ('DFLT' <'dflt' > 'grek' <'dflt' > 'latn' <'dflt' > ) ]
DEI: 91125
KernClass2: 26 17 "Podtablica 'kern' Kerning poziomy w tablicy 0" 
 352 A C G M N O Q S Agrave Aacute Acircumflex Atilde Adieresis Aring Ccedilla Ntilde Ograve Oacute Ocircumflex Otilde Odieresis Oslash Amacron Abreve Aogonek Cacute Ccircumflex Cdotaccent Ccaron Gcircumflex Gbreve Gdotaccent Gcommaaccent Nacute Ncommaaccent Ncaron Eng Omacron Obreve Ohungarumlaut OE Sacute Scircumflex Scedilla Scaron uni01E4 Scommaaccent
 12 B germandbls
 19 D Eth Dcaron Dcroat
 110 E F Z AE Egrave Eacute Ecircumflex Edieresis Emacron Ebreve Edotaccent Eogonek Ecaron Zacute Zdotaccent Zcaron

StartChar: .notdef
Encoding: 65536 -1 0
Width: 844
Flags: W
HStem: 0 68<218 626> 1297 68<218 626>
VStem: 150 68<68 1297> 626 68<68 1297>
LayerCount: 2
Fore
SplineSet
150 0 m 1,0,-1
 150 1365 l 1,1,-1
 694 1365 l 1,2,-1
 694 0 l 1,3,-1
 150 0 l 1,0,-1
218 68 m 1,4,-1
 626 68 l 1,5,-1
 626 1297 l 1,6,-1
 218 1297 l 1,7,-1
 218 68 l 1,4,-1
EndSplineSet
Validated: 19457
EndChar

StartChar: exclam
Encoding: 33 33 4
Width: 600
GlyphClass: 2
Flags: W
HStem: 1 208<202 410> 93 218<182 400> 1492 20G<355.556 400>
VStem: 202 198<93 209 404 1422>
LayerCount: 2
Fore
SplineSet
400 93 m 1,0,-1
 202 1 l 1,1,-1
 202 209 l 1,2,-1
 400 311 l 1,3,-1
 400 93 l 1,0,-1
200 1422 m 1,4,-1
 400 1512 l 1,5,-1
 400 404 l 1,6,-1
 202 312 l 1,7,-1
 200 1422 l 1,4,-1
EndSplineSet
Validated: 16385
EndChar

StartChar: quotedbl
Encoding: 34 34 5
Width: 825
GlyphClass: 2
Flags: W
HStem: 927 585
VStem: 150 186<1029 1411> 489 186<1029 1411>
LayerCount: 2
Fore
SplineSet
675 1512 m 1,0,-1
 675 1029 l 1,1,-1
 489 927 l 1,2,-1
 489 1411 l 1,3,-1
 675 1512 l 1,0,-1
336 1512 m 1,4,-1
 336 1029 l 1,5,-1
 150 927 l 1,6,-1
 150 1411 l 1,7,-1
 336 1512 l 1,4,-1
EndSplineSet
Validated: 1
EndChar

StartChar: numbersign
Encoding: 35 35 6
Width: 1370
GlyphClass: 2
Flags: W
HStem: 532 172<231 450 622 738 910 1137> 823 172<231 450 622 738 910 1137>
VStem: 450 172<321 532 704 823 995 1205> 738 172<324 532 704 823 996 1208>
LayerCount: 2
Fore
SplineSet
622 321 m 1,0,-1
 450 240 l 1,1,-1
 450 532 l 1,2,-1
 150 531 l 1,3,-1
 231 703 l 1,4,-1
 450 704 l 1,5,-1
 450 823 l 1,6,-1
 150 821 l 1,7,-1
 231 993 l 1,8,-1
 450 995 l 1,9,-1
 450 1205 l 1,10,-1
 622 1288 l 1,11,-1
 622 995 l 1,12,-1
 738 995 l 1,13,-1
 738 1208 l 1,14,-1
 910 1291 l 1,15,-1
 910 996 l 1,16,-1
 1220 995 l 1,17,-1
 1137 823 l 1,18,-1
 910 824 l 1,19,-1
 910 704 l 1,20,-1
 1220 703 l 1,21,-1
 1137 531 l 1,22,-1
 910 532 l 1,23,-1
 910 324 l 1,24,-1
 738 243 l 1,25,-1
 738 532 l 1,26,-1
 622 532 l 1,27,-1
 622 321 l 1,0,-1
738 823 m 1,28,-1
 622 823 l 1,29,-1
 622 704 l 1,30,-1
 738 704 l 1,31,-1
 738 823 l 1,28,-1
EndSplineSet
Validated: 16385
EndChar

StartChar: dollar
Encoding: 36 36 7
Width: 1248
GlyphClass: 2
Flags: W
VStem: 130 202<321.192 499 1091 1150> 485 166<-90 24 217 700.102 885 1310 1486.29 1608> 767 194<1099 1249.95> 920 198<430 659.633>
LayerCount: 2
Fore
SplineSet
651 -90 m 1,0,-1
 485 -184 l 1,1,-1
 485 17 l 1,2,3
 364 49 364 49 275 145 c 0,4,5
 130 301 130 301 130 494 c 2,6,-1
 130 499 l 1,7,-1
 332 590 l 1,8,-1
 332 500 l 2,9,10
 332 358 332 358 408 278 c 0,11,12
 444 240 444 240 485 217 c 1,13,-1
 485 690 l 1,14,15
 366 710 366 710 270 804 c 0,16,17
 141 930 141 930 141 1106 c 2,18,-1
 141 1150 l 1,19,-1
 485 1452 l 1,20,-1
 485 1608 l 1,21,-1
 652 1699 l 1,22,-1
 652 1499 l 1,23,24
 761 1473 761 1473 841 1395 c 0,25,26
 959 1280 959 1280 961 1118 c 1,27,-1
 961 1099 l 1,28,-1
 767 1011 l 1,29,-1
 767 1113 l 2,30,31
 767 1206 767 1206 707 1268 c 1,32,33
 683 1295 683 1295 652 1310 c 1,34,-1
 652 885 l 1,35,36
 685 904 685 904 713 937 c 1,37,38
 869 923 869 923 994 810 c 0,39,40
 1116 700 1116 700 1118 534 c 1,41,-1
 1118 430 l 1,42,-1
 651 24 l 1,43,-1
 651 -90 l 1,0,-1
651 754 m 1,44,-1
 651 188 l 1,45,46
 764 202 764 202 842 284 c 128,-1,47
 920 366 920 366 920 500 c 2,48,-1
 920 528 l 2,49,50
 920 609 920 609 860 683 c 1,51,52
 789 760 789 760 711 760 c 2,53,-1
 705 760 l 2,54,55
 676 760 676 760 651 754 c 1,44,-1
485 872 m 1,56,-1
 485 1323 l 1,57,58
 439 1309 439 1309 403 1276 c 0,59,60
 333 1212 333 1212 333 1118 c 2,61,-1
 333 1115 l 1,62,-1
 335 1091 l 2,63,64
 344 987 344 987 406 923 c 0,65,66
 441 887 441 887 485 872 c 1,56,-1
EndSplineSet
Validated: 16385
EndChar

StartChar: percent
Encoding: 37 37 8
Width: 1983
GlyphClass: 2
Flags: W
HStem: -3 183<1294.69 1426> 628 179<1422 1554.12> 702 183<433.692 565> 1333 179<561 693.12>
VStem: 150 188<974.703 1151> 776 196<1061 1251.26> 1011 188<269.703 446> 1637 196<356 546.262>
DStem2: 465 -148 618 -216 0.435903 0.899994<5.49359 1984.44>
LayerCount: 2
Fore
SplineSet
1402 628 m 1,0,1
 1332 626 1332 626 1265.5 569 c 128,-1,2
 1199 512 1199 512 1199 407 c 0,3,4
 1199 304 1199 304 1266 245 c 0,5,6
 1339 180 1339 180 1428 180 c 0,7,8
 1430 180 1430 180 1431 180 c 0,9,10
 1508 180 1508 180 1578 250 c 0,11,12
 1637 309 1637 309 1637 405 c 0,13,14
 1637 406 1637 406 1637 408 c 0,15,16
 1637 502 1637 502 1582 561 c 0,17,18
 1520 628 1520 628 1417 628 c 0,19,20
 1414 628 1414 628 1411 628 c 0,21,22
 1402 628 1402 628 1402 628 c 1,0,1
1711 691 m 0,23,24
 1829 575 1829 575 1831 414 c 1,25,-1
 1833 356 l 1,26,-1
 1426 -3 l 1,27,28
 1252 2 1252 2 1139 116 c 0,29,30
 1018 238 1018 238 1011 412 c 1,31,-1
 1011 446 l 1,32,-1
 1422 807 l 1,33,34
 1597 803 1597 803 1711 691 c 0,23,24
541 1333 m 1,35,36
 471 1331 471 1331 404.5 1274 c 128,-1,37
 338 1217 338 1217 338 1112 c 0,38,39
 338 1009 338 1009 405 950 c 0,40,41
 478 885 478 885 567 885 c 0,42,43
 569 885 569 885 570 885 c 0,44,45
 647 885 647 885 717 955 c 0,46,47
 776 1014 776 1014 776 1110 c 0,48,49
 776 1111 776 1111 776 1113 c 0,50,51
 776 1207 776 1207 721 1266 c 0,52,53
 659 1333 659 1333 556 1333 c 0,54,55
 553 1333 553 1333 550 1333 c 0,56,57
 541 1333 541 1333 541 1333 c 1,35,36
850 1396 m 0,58,59
 968 1280 968 1280 970 1119 c 1,60,-1
 972 1061 l 1,61,-1
 565 702 l 1,62,63
 391 707 391 707 278 821 c 0,64,65
 157 943 157 943 150 1117 c 1,66,-1
 150 1151 l 1,67,-1
 561 1512 l 1,68,69
 736 1508 736 1508 850 1396 c 0,58,59
465 -148 m 1,70,-1
 1330 1638 l 1,71,-1
 1484 1572 l 1,72,-1
 618 -216 l 1,73,-1
 465 -148 l 1,70,-1
EndSplineSet
Validated: 16385
EndChar

StartChar: ampersand
Encoding: 38 38 9
Width: 1601
GlyphClass: 2
Flags: W
HStem: -1 185<491.161 641> 1331 179<569 706.287>
VStem: 158 192<330.938 504 1090 1149> 776 191<1172 1259.94>
DStem2: 672 956 584 770 0.664946 -0.746891<58.0075 511.804 629.92 1115.74> 668 187 641 -1 0.655125 0.755521<-41.0388 316.861 510.696 1000.48>
LayerCount: 2
Fore
SplineSet
584 770 m 1,0,1
 508 756 508 756 438 711 c 1,2,3
 378 726 378 726 287 803 c 0,4,5
 158 912 158 912 158 1105 c 2,6,-1
 158 1149 l 1,7,-1
 569 1510 l 1,8,9
 745 1506 745 1506 858 1394 c 0,10,11
 948 1305 948 1305 966 1198 c 0,12,13
 967 1192 967 1192 967 1183 c 2,14,-1
 967 1172 l 1,15,-1
 758 1014 l 1,16,17
 776 1036 776 1036 776 1133 c 0,18,19
 776 1150 776 1150 774 1167 c 0,20,21
 768 1216 768 1216 724 1271 c 1,22,23
 670 1331 670 1331 568 1331 c 0,24,25
 482 1331 482 1331 420 1275 c 0,26,27
 350 1211 350 1211 350 1117 c 2,28,-1
 350 1114 l 1,29,-1
 352 1090 l 2,30,31
 361 985 361 985 423 922 c 0,32,33
 473 871 473 871 542 861 c 1,34,-1
 672 956 l 1,35,-1
 1007 569 l 1,36,-1
 1321 945 l 1,37,-1
 1411 887 l 1,38,-1
 1079 493 l 1,39,-1
 1451 81 l 1,40,-1
 1275 -1 l 1,41,-1
 951 361 l 1,42,-1
 641 -1 l 1,43,-1
 634 -1 l 2,44,45
 428 -1 428 -1 287 144 c 0,46,47
 172 263 172 263 156 397 c 0,48,49
 150 447 150 447 150 504 c 1,50,-1
 436 707 l 1,51,52
 401 663 401 663 377 594 c 0,53,54
 354 528 354 528 354 470 c 0,55,56
 354 379 354 379 410 306 c 0,57,58
 504 184 504 184 627 184 c 2,59,-1
 629 184 l 2,60,61
 646 184 646 184 668 187 c 1,62,-1
 883 435 l 1,63,-1
 584 770 l 1,0,1
EndSplineSet
Validated: 16385
EndChar

StartChar: quotesingle
Encoding: 39 39 10
Width: 477
GlyphClass: 2
Flags: W
HStem: 927 585
VStem: 150 177<1029 1411>
LayerCount: 2
Fore
SplineSet
327 1512 m 1,0,-1
 327 1029 l 1,1,-1
 150 927 l 1,2,-1
 150 1411 l 1,3,-1
 327 1512 l 1,0,-1
EndSplineSet
Validated: 1
EndChar

StartChar: parenleft
Encoding: 40 40 11
Width: 945
GlyphClass: 2
Flags: W
VStem: 200 191<203.355 740>
LayerCount: 2
Fore
SplineSet
200 740 m 1,0,-1
 713 1728 l 1,1,-1
 935 1728 l 1,2,-1
 783 1526 l 1,3,4
 622 1382 622 1382 521 1210 c 0,5,6
 391 989 391 989 391 748 c 2,7,-1
 391 729 l 1,8,9
 393 259 393 259 469 100 c 0,10,11
 567 -105 567 -105 721 -132 c 0,12,13
 780 -142 780 -142 783 -138 c 2,14,-1
 693 -318 l 1,15,16
 653 -307 653 -307 650 -306 c 0,17,18
 294 -182 294 -182 231 257 c 0,19,20
 209 410 209 410 200 716 c 1,21,-1
 200 740 l 1,0,-1
EndSplineSet
Validated: 1
EndChar

StartChar: parenright
Encoding: 41 41 12
Width: 945
GlyphClass: 2
Flags: W
VStem: 554 191<670 1206.64>
LayerCount: 2
Fore
SplineSet
745 670 m 1,0,-1
 232 -318 l 1,1,-1
 10 -318 l 1,2,-1
 162 -116 l 1,3,4
 323 28 323 28 424 200 c 0,5,6
 554 421 554 421 554 662 c 2,7,-1
 554 681 l 1,8,9
 552 1151 552 1151 476 1310 c 0,10,11
 378 1515 378 1515 224 1542 c 0,12,13
 165 1552 165 1552 162 1548 c 2,14,-1
 252 1728 l 1,15,16
 292 1717 292 1717 295 1716 c 0,17,18
 651 1592 651 1592 714 1153 c 0,19,20
 736 1000 736 1000 745 694 c 1,21,-1
 745 670 l 1,0,-1
EndSplineSet
Validated: 1
EndChar

StartChar: asterisk
Encoding: 42 42 13
Width: 1121
GlyphClass: 2
Flags: W
HStem: 1492 20G<604.554 646>
VStem: 474 172<679 906 1204 1429>
DStem2: 280 1316 122 1209 0.866166 -0.499757<0 223.982 521.943 749.024> 122 901 278 793 0.866166 0.499757<81.1481 307.363 605.324 830.172>
LayerCount: 2
Fore
SplineSet
646 679 m 1,0,-1
 474 598 l 1,1,-1
 474 906 l 1,2,-1
 278 793 l 1,3,-1
 122 901 l 1,4,-1
 388 1055 l 1,5,-1
 122 1209 l 1,6,-1
 280 1316 l 1,7,-1
 474 1204 l 1,8,-1
 474 1429 l 1,9,-1
 646 1512 l 1,10,-1
 646 1204 l 1,11,-1
 841 1316 l 1,12,-1
 999 1209 l 1,13,-1
 732 1055 l 1,14,-1
 999 901 l 1,15,-1
 843 793 l 1,16,-1
 646 906 l 1,17,-1
 646 679 l 1,0,-1
EndSplineSet
Validated: 16385
EndChar

StartChar: plus
Encoding: 43 43 14
Width: 1074
GlyphClass: 2
Flags: W
HStem: 626 172<161 451 623 911>
VStem: 451 172<336 626 798 1086>
LayerCount: 2
Fore
SplineSet
623 336 m 1,0,-1
 451 255 l 1,1,-1
 451 626 l 1,2,-1
 80 626 l 1,3,-1
 161 798 l 1,4,-1
 451 798 l 1,5,-1
 451 1086 l 1,6,-1
 623 1169 l 1,7,-1
 623 798 l 1,8,-1
 994 798 l 1,9,-1
 911 626 l 1,10,-1
 623 626 l 1,11,-1
 623 336 l 1,0,-1
EndSplineSet
Validated: 1
EndChar

StartChar: comma
Encoding: 44 44 15
Width: 608
GlyphClass: 2
Flags: W
HStem: -262 542
VStem: 110 348
DStem2: 110 -177 299 -262 0.328601 0.944469<0 464.751>
LayerCount: 2
Fore
SplineSet
299 -262 m 1,0,-1
 110 -177 l 1,1,-1
 269 280 l 1,2,-1
 458 194 l 1,3,-1
 299 -262 l 1,0,-1
EndSplineSet
Validated: 16385
EndChar

StartChar: hyphen
Encoding: 45 45 16
Width: 1074
GlyphClass: 2
Flags: W
HStem: 626 172<161 911>
LayerCount: 2
Fore
SplineSet
161 798 m 1,0,-1
 994 798 l 1,1,-1
 911 626 l 1,2,-1
 80 626 l 1,3,-1
 161 798 l 1,0,-1
EndSplineSet
Validated: 1
EndChar

StartChar: period
Encoding: 46 46 17
Width: 567
GlyphClass: 2
Flags: W
HStem: 0 445
VStem: 150 266<140 302>
LayerCount: 2
Fore
SplineSet
416 140 m 1,0,-1
 150 0 l 1,1,-1
 151 302 l 1,2,-1
 417 445 l 1,3,-1
 416 140 l 1,0,-1
EndSplineSet
Validated: 1
EndChar

StartChar: slash
Encoding: 47 47 18
Width: 1039
GlyphClass: 2
Flags: W
DStem2: 10 -148 163 -216 0.435903 0.899994<5.49359 1984.44>
LayerCount: 2
Fore
SplineSet
10 -148 m 1,0,-1
 875 1638 l 1,1,-1
 1029 1572 l 1,2,-1
 163 -216 l 1,3,-1
 10 -148 l 1,0,-1
EndSplineSet
Validated: 1
EndChar

StartChar: zero
Encoding: 48 48 19
Width: 1288
GlyphClass: 2
Flags: W
HStem: 0 188<490.938 644> 1325 185<644 802.48>
VStem: 150 198<333.191 1080> 936 202<432 1188.76>
LayerCount: 2
Fore
SplineSet
656 1325 m 1,0,1
 511 1322 511 1322 426 1226 c 0,2,3
 348 1138 348 1138 348 1010 c 2,4,-1
 348 500 l 2,5,6
 348 372 348 372 430 282 c 0,7,8
 516 188 516 188 642 188 c 128,-1,9
 768 188 768 188 858 284 c 0,10,11
 933 364 933 364 936 500 c 1,12,-1
 936 1010 l 2,13,14
 936 1151 936 1151 860 1232 c 0,15,16
 773 1325 773 1325 658 1325 c 2,17,-1
 656 1325 l 1,0,1
644 0 m 1,18,-1
 637 0 l 2,19,20
 428 0 428 0 295 145 c 0,21,22
 150 303 150 303 150 494 c 2,23,-1
 150 1080 l 1,24,-1
 644 1510 l 1,25,26
 648 1510 648 1510 651 1510 c 0,27,28
 848 1510 848 1510 993 1365 c 256,29,30
 1138 1220 1138 1220 1138 1016 c 2,31,-1
 1138 432 l 1,32,-1
 644 0 l 1,18,-1
EndSplineSet
Validated: 16385
EndChar

StartChar: one
Encoding: 49 49 20
Width: 802
GlyphClass: 2
Flags: W
HStem: 0 21G<324 367.043> 1490 20G<477.478 522>
VStem: 324 198<92 1302>
DStem2: 10 1280 54 1184 0.912188 0.409772<0.798165 295.442>
LayerCount: 2
Fore
SplineSet
522 92 m 1,0,-1
 324 0 l 1,1,-1
 324 1302 l 1,2,-1
 54 1184 l 1,3,-1
 10 1280 l 1,4,-1
 522 1510 l 1,5,-1
 522 92 l 1,0,-1
EndSplineSet
Validated: 1
EndChar

StartChar: two
Encoding: 50 50 21
Width: 1336
GlyphClass: 2
Flags: W
HStem: 20 202<389 1094> 1328 185<644 798.938>
VStem: 150 198<996 1083> 936 202<886 1193.29>
DStem2: 226 212 389 222 0.748291 0.663371<128.605 968.514>
LayerCount: 2
Fore
SplineSet
389 222 m 1,0,-1
 1186 216 l 1,1,-1
 1094 20 l 1,2,-1
 150 20 l 1,3,-1
 226 212 l 1,4,-1
 812 735 l 1,5,6
 933 857 933 857 936 954 c 1,7,-1
 936 1013 l 2,8,9
 936 1155 936 1155 860 1235 c 0,10,11
 773 1328 773 1328 658 1328 c 2,12,-1
 656 1328 l 1,13,14
 506 1325 506 1325 426 1229 c 0,15,16
 348 1135 348 1135 348 1013 c 2,17,-1
 348 996 l 1,18,-1
 150 901 l 1,19,-1
 150 1083 l 1,20,-1
 644 1513 l 1,21,22
 648 1513 648 1513 651 1513 c 0,23,24
 864 1513 864 1513 993 1368 c 0,25,26
 1138 1204 1138 1204 1138 1019 c 2,27,-1
 1138 886 l 1,28,-1
 389 222 l 1,0,-1
EndSplineSet
Validated: 16385
EndChar

StartChar: three
Encoding: 51 51 22
Width: 1292
GlyphClass: 2
Flags: W
HStem: 0 185<485.792 644> 1309 182<284 884>
VStem: 150 202<321.69 499> 940 198<430 659.633>
DStem2: 442 688 733 937 0.579872 0.814707<371.605 762.237>
LayerCount: 2
Fore
SplineSet
680 754 m 1,0,1
 553 753 553 753 442 688 c 1,2,-1
 884 1309 l 1,3,-1
 198 1309 l 1,4,-1
 284 1491 l 1,5,-1
 1142 1491 l 1,6,-1
 733 937 l 1,7,8
 889 923 889 923 1014 810 c 0,9,10
 1136 700 1136 700 1138 534 c 1,11,-1
 1138 430 l 1,12,-1
 644 0 l 1,13,14
 640 0 640 0 637 0 c 0,15,16
 429 0 429 0 295 145 c 0,17,18
 150 302 150 302 150 494 c 2,19,-1
 150 499 l 1,20,-1
 352 590 l 1,21,-1
 352 500 l 2,22,23
 352 358 352 358 428 278 c 0,24,25
 515 185 515 185 630 185 c 2,26,-1
 632 185 l 1,27,28
 771 188 771 188 862 284 c 0,29,30
 940 366 940 366 940 500 c 2,31,-1
 940 528 l 2,32,33
 940 609 940 609 880 683 c 1,34,35
 785 753 785 753 680 754 c 1,0,1
EndSplineSet
Validated: 16385
EndChar

StartChar: four
Encoding: 52 52 23
Width: 1231
GlyphClass: 2
Flags: W
HStem: 0 21G<737.954 781.111> 436 185<246 736 933 1020> 1492 20G<885.333 932>
VStem: 736 196<90 433 621 1262>
LayerCount: 2
Fore
SplineSet
737 433 m 1,0,-1
 50 434 l 1,1,-1
 140 634 l 1,2,-1
 736 1428 l 1,3,-1
 932 1512 l 1,4,-1
 932 621 l 1,5,-1
 1111 624 l 1,6,-1
 1020 436 l 1,7,-1
 933 436 l 1,8,-1
 932 90 l 1,9,-1
 738 0 l 1,10,-1
 737 433 l 1,0,-1
246 618 m 1,11,-1
 736 620 l 1,12,-1
 736 1262 l 1,13,-1
 246 618 l 1,11,-1
EndSplineSet
Validated: 16385
EndChar

StartChar: five
Encoding: 53 53 24
Width: 1288
GlyphClass: 2
Flags: W
HStem: 0 185<485.792 644> 1293 198<476 994>
VStem: 150 202<321.69 499> 940 198<430 659.633>
DStem2: 233 789 364 846 0.231433 0.972851<85.7702 546.555>
LayerCount: 2
Fore
SplineSet
655 772 m 0,0,1
 551 772 551 772 442 688 c 1,2,-1
 233 789 l 1,3,-1
 400 1491 l 1,4,-1
 1083 1491 l 1,5,-1
 994 1292 l 1,6,-1
 476 1293 l 1,7,-1
 364 846 l 1,8,-1
 486 790 l 1,9,-1
 680 946 l 1,10,11
 880 932 880 932 1014 810 c 0,12,13
 1136 700 1136 700 1138 534 c 1,14,-1
 1138 430 l 1,15,-1
 644 0 l 1,16,17
 640 0 640 0 637 0 c 0,18,19
 429 0 429 0 295 145 c 0,20,21
 150 302 150 302 150 494 c 2,22,-1
 150 499 l 1,23,-1
 352 590 l 1,24,-1
 352 500 l 2,25,26
 352 358 352 358 428 278 c 0,27,28
 515 185 515 185 630 185 c 2,29,-1
 632 185 l 1,30,31
 771 188 771 188 862 284 c 0,32,33
 940 366 940 366 940 500 c 2,34,-1
 940 528 l 2,35,36
 940 609 940 609 880 683 c 1,37,38
 790 772 790 772 655 772 c 0,0,1
EndSplineSet
Validated: 16385
EndChar

StartChar: six
Encoding: 54 54 25
Width: 1290
GlyphClass: 2
Flags: W
HStem: 3 188<490.469 644> 814 185<646 804.48> 1328 185<644 822.387>
VStem: 150 198<337.677 676.16 740 1083> 928 195<1123 1222.34> 936 204<436 677.761>
LayerCount: 2
Fore
SplineSet
1140 436 m 1,0,-1
 644 3 l 1,1,-1
 637 3 l 2,2,3
 427 3 427 3 295 148 c 0,4,5
 150 307 150 307 150 497 c 2,6,-1
 150 1083 l 1,7,-1
 644 1513 l 1,8,-1
 651 1513 l 2,9,10
 863 1513 863 1513 974 1420 c 0,11,12
 1123 1294 1123 1294 1123 1136 c 2,13,-1
 1123 1123 l 1,14,-1
 928 1028 l 1,15,-1
 928 1056 l 2,16,17
 928 1164 928 1164 876 1234 c 0,18,19
 806 1328 806 1328 658 1328 c 2,20,-1
 656 1328 l 1,21,22
 511 1325 511 1325 426 1229 c 0,23,24
 348 1141 348 1141 348 1013 c 2,25,-1
 348 740 l 1,26,-1
 646 999 l 1,27,-1
 653 999 l 2,28,29
 850 999 850 999 995 854 c 128,-1,30
 1140 709 1140 709 1140 505 c 2,31,-1
 1140 436 l 1,0,-1
350 499 m 1,32,33
 356 366 356 366 430 285 c 0,34,35
 516 191 516 191 642 191 c 128,-1,36
 768 191 768 191 858 287 c 0,37,38
 933 367 933 367 936 503 c 1,39,-1
 936 508 l 1,40,41
 935 641 935 641 862 721 c 0,42,43
 777 814 777 814 660 814 c 2,44,-1
 658 814 l 1,45,46
 527 810 527 810 438 732 c 0,47,48
 350 655 350 655 350 499 c 1,32,33
EndSplineSet
Validated: 16385
EndChar

StartChar: seven
Encoding: 55 55 26
Width: 1103
GlyphClass: 2
Flags: W
HStem: 0 21G<149.407 198.167> 442 180<194 369 565 866> 1317 174<197 804>
DStem2: 139 0 281 48 0.447461 0.894303<106.466 498.198 746.875 1475.36>
LayerCount: 2
Fore
SplineSet
281 48 m 1,0,-1
 139 0 l 1,1,-1
 369 442 l 1,2,-1
 100 440 l 1,3,-1
 194 622 l 1,4,-1
 453 622 l 1,5,-1
 804 1317 l 1,6,-1
 117 1311 l 1,7,-1
 197 1491 l 1,8,-1
 1003 1491 l 1,9,-1
 565 622 l 1,10,-1
 952 622 l 1,11,-1
 866 442 l 1,12,-1
 483 442 l 1,13,-1
 281 48 l 1,0,-1
EndSplineSet
Validated: 16385
EndChar

StartChar: eight
Encoding: 56 56 27
Width: 1240
GlyphClass: 2
Flags: W
HStem: -1 185<491.161 641> 777 82<483.62 690.897> 1331 179<569 706.287>
VStem: 158 192<330.938 504 1090 1149> 785 191<1136 1248.27> 892 198<392 645.68>
LayerCount: 2
Fore
SplineSet
150 504 m 1,0,-1
 436 707 l 1,1,2
 401 663 401 663 377 594 c 0,3,4
 354 528 354 528 354 470 c 0,5,6
 354 379 354 379 410 306 c 0,7,8
 504 184 504 184 627 184 c 2,9,-1
 629 184 l 1,10,11
 758 187 758 187 814 246 c 0,12,13
 892 328 892 328 892 462 c 2,14,-1
 892 490 l 2,15,16
 892 596 892 596 824 680 c 1,17,18
 726 777 726 777 658 777 c 2,19,-1
 652 777 l 1,20,21
 539 776 539 776 438 711 c 1,22,23
 378 726 378 726 287 803 c 0,24,25
 158 912 158 912 158 1105 c 2,26,-1
 158 1149 l 1,27,-1
 569 1510 l 1,28,29
 745 1506 745 1506 858 1394 c 0,30,31
 952 1301 952 1301 975 1162 c 0,32,33
 976 1156 976 1156 976 1147 c 2,34,-1
 976 1136 l 1,35,-1
 731 940 l 1,36,37
 785 1002 785 1002 785 1097 c 0,38,39
 785 1114 785 1114 783 1131 c 0,40,41
 773 1218 773 1218 724 1271 c 0,42,43
 670 1331 670 1331 568 1331 c 0,44,45
 482 1331 482 1331 420 1275 c 0,46,47
 350 1211 350 1211 350 1117 c 0,48,49
 350 1115 350 1115 350 1114 c 2,50,-1
 352 1090 l 2,51,52
 361 985 361 985 423 922 c 0,53,54
 484 860 484 860 571 859 c 1,55,-1
 573 859 l 2,56,57
 664 859 664 859 730 936 c 1,58,59
 856 919 856 919 982 792 c 0,60,61
 1088 685 1088 685 1090 496 c 1,62,-1
 1090 392 l 1,63,-1
 641 -1 l 1,64,65
 638 -1 638 -1 634 -1 c 0,66,67
 428 -1 428 -1 287 144 c 0,68,69
 172 263 172 263 156 397 c 0,70,71
 150 447 150 447 150 504 c 1,0,-1
EndSplineSet
Validated: 1
EndChar

StartChar: nine
Encoding: 57 57 28
Width: 1290
GlyphClass: 2
Flags: W
HStem: 3 185<468.809 646> 517 185<485.52 644> 1325 188<646 799.531>
VStem: 150 204<837.743 1080> 167 195<297.93 393> 942 198<433 776 839.84 1178.32>
LayerCount: 2
Fore
SplineSet
150 1080 m 1,0,-1
 646 1513 l 1,1,-1
 653 1513 l 2,2,3
 863 1513 863 1513 995 1368 c 0,4,5
 1140 1208 1140 1208 1140 1019 c 2,6,-1
 1140 433 l 1,7,-1
 646 3 l 1,8,-1
 639 3 l 2,9,10
 429 3 429 3 317 96 c 0,11,12
 167 221 167 221 167 380 c 2,13,-1
 167 393 l 1,14,-1
 362 488 l 1,15,-1
 362 460 l 2,16,17
 362 354 362 354 415 282 c 0,18,19
 484 188 484 188 632 188 c 2,20,-1
 634 188 l 1,21,22
 780 191 780 191 864 287 c 0,23,24
 942 376 942 376 942 503 c 2,25,-1
 942 776 l 1,26,-1
 644 517 l 1,27,-1
 637 517 l 2,28,29
 440 517 440 517 295 662 c 0,30,31
 151 806 151 806 150 1011 c 1,32,-1
 150 1080 l 1,0,-1
940 1017 m 1,33,34
 934 1150 934 1150 860 1231 c 0,35,36
 774 1325 774 1325 648 1325 c 128,-1,37
 522 1325 522 1325 432 1229 c 0,38,39
 357 1149 357 1149 354 1013 c 1,40,-1
 354 1008 l 1,41,42
 355 875 355 875 428 795 c 0,43,44
 513 702 513 702 630 702 c 2,45,-1
 632 702 l 1,46,47
 763 706 763 706 852 784 c 0,48,49
 940 861 940 861 940 1017 c 1,33,34
EndSplineSet
Validated: 16385
EndChar

StartChar: colon
Encoding: 58 58 29
Width: 568
GlyphClass: 2
Flags: W
HStem: 0 21G<151.066 189>
VStem: 151 266<140 302 748 910>
LayerCount: 2
Fore
SplineSet
416 748 m 1,0,-1
 150 608 l 1,1,-1
 151 910 l 1,2,-1
 417 1053 l 1,3,-1
 416 748 l 1,0,-1
417 140 m 1,4,-1
 151 0 l 1,5,-1
 152 302 l 1,6,-1
 418 445 l 1,7,-1
 417 140 l 1,4,-1
EndSplineSet
Validated: 1
EndChar

StartChar: semicolon
Encoding: 59 59 30
Width: 628
GlyphClass: 2
Flags: W
VStem: 204 266<750 912>
DStem2: 110 -177 299 -262 0.328601 0.944469<0 464.751>
LayerCount: 2
Fore
SplineSet
470 750 m 1,0,-1
 204 610 l 1,1,-1
 205 912 l 1,2,-1
 471 1055 l 1,3,-1
 470 750 l 1,0,-1
299 -262 m 1,4,-1
 110 -177 l 1,5,-1
 269 280 l 1,6,-1
 458 194 l 1,7,-1
 299 -262 l 1,4,-1
EndSplineSet
Validated: 16385
EndChar

StartChar: less
Encoding: 60 60 31
Width: 1119
GlyphClass: 2
Flags: W
DStem2: 300 725 80 599 0.889737 -0.456474<0 755.456> 162 777 300 725 0.85649 0.516163<91.3552 869.616>
LayerCount: 2
Fore
SplineSet
162 777 m 1,0,-1
 917 1232 l 1,1,-1
 967 1126 l 1,2,-1
 300 725 l 1,3,-1
 969 374 l 1,4,-1
 885 186 l 1,5,-1
 80 599 l 1,6,-1
 162 777 l 1,0,-1
EndSplineSet
Validated: 16385
EndChar

StartChar: equal
Encoding: 61 61 32
Width: 1075
GlyphClass: 2
Flags: W
HStem: 436 172<162 912> 762 172<161 911>
LayerCount: 2
Fore
SplineSet
162 608 m 1,0,-1
 995 608 l 1,1,-1
 912 436 l 1,2,-1
 81 436 l 1,3,-1
 162 608 l 1,0,-1
161 934 m 1,4,-1
 994 934 l 1,5,-1
 911 762 l 1,6,-1
 80 762 l 1,7,-1
 161 934 l 1,4,-1
EndSplineSet
Validated: 1
EndChar

StartChar: greater
Encoding: 62 62 33
Width: 1119
GlyphClass: 2
Flags: W
DStem2: 234 1232 150 1044 0.889737 -0.456474<11.0792 766.535> 152 292 202 186 0.85649 0.516163<0 778.26>
LayerCount: 2
Fore
SplineSet
957 641 m 1,0,-1
 202 186 l 1,1,-1
 152 292 l 1,2,-1
 819 693 l 1,3,-1
 150 1044 l 1,4,-1
 234 1232 l 1,5,-1
 1039 819 l 1,6,-1
 957 641 l 1,0,-1
EndSplineSet
Validated: 16385
EndChar

StartChar: question
Encoding: 63 63 34
Width: 1288
GlyphClass: 2
Flags: W
HStem: 0 208<572 780> 92 218<552 770> 1328 185<644 798.938>
VStem: 150 198<996 1083> 572 198<92 208 409 496> 936 202<886 1193.29>
DStem2: 570 496 1138 886 0.767359 0.641218<211.508 452.236>
LayerCount: 2
Fore
SplineSet
770 92 m 1,0,-1
 572 0 l 1,1,-1
 572 208 l 1,2,-1
 770 310 l 1,3,-1
 770 92 l 1,0,-1
570 496 m 1,4,-1
 812 696 l 1,5,6
 933 818 933 818 936 954 c 1,7,-1
 936 1013 l 2,8,9
 936 1155 936 1155 860 1235 c 0,10,11
 773 1328 773 1328 658 1328 c 2,12,-1
 656 1328 l 1,13,14
 506 1325 506 1325 426 1229 c 0,15,16
 348 1135 348 1135 348 1013 c 2,17,-1
 348 996 l 1,18,-1
 150 901 l 1,19,-1
 150 1083 l 1,20,-1
 644 1513 l 1,21,22
 648 1513 648 1513 651 1513 c 0,23,24
 864 1513 864 1513 993 1368 c 0,25,26
 1138 1204 1138 1204 1138 1019 c 2,27,-1
 1138 886 l 1,28,-1
 846 642 l 1,29,30
 768 548 768 548 768 426 c 2,31,-1
 768 409 l 1,32,-1
 570 314 l 1,33,-1
 570 496 l 1,4,-1
EndSplineSet
Validated: 16385
EndChar

StartChar: at
Encoding: 64 64 35
Width: 1204
GlyphClass: 2
Flags: W
HStem: -366 188<490.938 644> -2 191<629.282 707> 959 185<644 789.406>
VStem: 150 198<-32.8086 714> 853 196<109 210 244.336 572 672 886.279>
DStem2: 406 316 586 350 0.780183 0.625552<161.702 508.103>
LayerCount: 2
Fore
SplineSet
644 1144 m 1,0,-1
 684 1143 l 1,1,2
 776 1137 776 1137 806 1127 c 0,3,4
 1054 1044 1054 1044 1054 655 c 2,5,-1
 1054 649 l 1,6,-1
 1049 109 l 1,7,-1
 853 0 l 1,8,-1
 853 210 l 1,9,-1
 707 -2 l 1,10,-1
 684 -2 l 1,11,12
 646 0 646 0 616 9 c 0,13,14
 443 61 443 61 406 236 c 1,15,-1
 406 316 l 1,16,-1
 850 672 l 1,17,18
 846 884 846 884 772 930 c 0,19,20
 729 957 729 957 656 959 c 1,21,22
 511 956 511 956 426 860 c 0,23,24
 348 772 348 772 348 644 c 2,25,-1
 348 134 l 2,26,27
 348 6 348 6 430 -84 c 0,28,29
 516 -178 516 -178 642 -178 c 0,30,31
 730 -178 730 -178 800 -131 c 1,32,-1
 872 -167 l 1,33,-1
 644 -366 l 1,34,-1
 637 -366 l 2,35,36
 428 -366 428 -366 295 -221 c 0,37,38
 150 -63 150 -63 150 128 c 2,39,-1
 150 714 l 1,40,-1
 644 1144 l 1,0,-1
806 242 m 0,41,42
 822 259 822 259 849 330 c 1,43,-1
 852 572 l 1,44,-1
 586 350 l 1,45,-1
 588 326 l 1,46,47
 592 251 592 251 628 222 c 0,48,49
 669 189 669 189 714 189 c 0,50,51
 716 189 716 189 717 189 c 0,52,53
 757 189 757 189 806 242 c 0,41,42
EndSplineSet
Validated: 16385
EndChar

StartChar: A
Encoding: 65 65 36
Width: 1392
GlyphClass: 2
Flags: W
HStem: 0 21G<201.046 244.696 990 1034.4> 439 182<149 202 402 837> 1325 185<698 856.48>
VStem: 203 199<92 439 621 1080> 990 202<91 1188.76>
LayerCount: 2
Fore
SplineSet
990 0 m 1,0,-1
 990 1010 l 2,1,2
 990 1149 990 1149 914 1232 c 1,3,4
 827 1325 827 1325 712 1325 c 2,5,-1
 710 1325 l 1,6,7
 579 1322 579 1322 480 1226 c 0,8,9
 402 1151 402 1151 402 1010 c 2,10,-1
 402 621 l 1,11,-1
 923 621 l 1,12,-1
 837 441 l 1,13,-1
 402 440 l 1,14,-1
 402 92 l 1,15,-1
 201 0 l 1,16,-1
 202 439 l 1,17,-1
 55 439 l 1,18,-1
 149 621 l 1,19,-1
 203 621 l 1,20,-1
 204 1080 l 1,21,-1
 698 1510 l 1,22,-1
 705 1510 l 2,23,24
 902 1510 902 1510 1047 1365 c 128,-1,25
 1192 1220 1192 1220 1192 1016 c 2,26,-1
 1192 91 l 1,27,-1
 990 0 l 1,0,-1
EndSplineSet
Validated: 1
EndChar

StartChar: B
Encoding: 66 66 37
Width: 1279
GlyphClass: 2
Flags: W
HStem: 0 21G<200 288.837> 1494 17G<351.955 396.029 591.226 712>
VStem: 200 198<142 1422> 844 159<1065.6 1240.93> 974 185<419.194 713.848>
LayerCount: 2
Fore
SplineSet
974 583 m 0,0,1
 974 722 974 722 806 814 c 1,2,3
 652 886 652 886 430 963 c 2,4,-1
 410 970 l 1,5,-1
 635 1092 l 1,6,-1
 781 1028 l 1,7,8
 844 1100 844 1100 844 1161 c 0,9,10
 844 1163 844 1163 844 1165 c 0,11,12
 844 1227 844 1227 726 1290 c 0,13,14
 616 1348 616 1348 423 1385 c 1,15,-1
 400 1390 l 1,16,-1
 628 1514 l 1,17,18
 796 1463 796 1463 892 1396 c 0,19,20
 1003 1319 1003 1319 1003 1192 c 0,21,22
 1003 1183 1003 1183 1002 1175 c 0,23,24
 990 1063 990 1063 870 985 c 1,25,26
 975 932 975 932 1015 898 c 0,27,28
 1159 776 1159 776 1159 587 c 2,29,-1
 1159 582 l 2,30,31
 1159 384 1159 384 995 267 c 0,32,33
 858 169 858 169 632 105 c 0,34,35
 502 68 502 68 391 43 c 2,36,-1
 200 0 l 1,37,-1
 200 1422 l 1,38,-1
 396 1511 l 1,39,-1
 398 142 l 1,40,41
 501 154 501 154 611 193 c 0,42,43
 816 264 816 264 892 362 c 0,44,45
 974 468 974 468 974 583 c 0,0,1
EndSplineSet
Validated: 1
EndChar

StartChar: C
Encoding: 67 67 38
Width: 1388
GlyphClass: 2
Flags: W
HStem: 0 188<540.938 694> 1325 185<694 852.208>
VStem: 200 198<333.191 1080> 986 202<432 510 1011 1188.31>
LayerCount: 2
Fore
SplineSet
986 510 m 1,0,-1
 1188 602 l 1,1,-1
 1188 432 l 1,2,-1
 694 0 l 1,3,-1
 687 0 l 2,4,5
 478 0 478 0 345 145 c 0,6,7
 200 303 200 303 200 494 c 2,8,-1
 200 1080 l 1,9,-1
 694 1510 l 1,10,11
 698 1510 698 1510 701 1510 c 0,12,13
 909 1510 909 1510 1043 1365 c 0,14,15
 1188 1208 1188 1208 1188 1016 c 2,16,-1
 1188 1011 l 1,17,-1
 986 920 l 1,18,-1
 986 1010 l 2,19,20
 986 1152 986 1152 910 1232 c 0,21,22
 823 1325 823 1325 708 1325 c 2,23,-1
 706 1325 l 1,24,25
 561 1322 561 1322 476 1226 c 0,26,27
 398 1138 398 1138 398 1010 c 2,28,-1
 398 500 l 2,29,30
 398 372 398 372 480 282 c 0,31,32
 566 188 566 188 692 188 c 128,-1,33
 818 188 818 188 908 284 c 0,34,35
 983 364 983 364 986 500 c 1,36,-1
 986 510 l 1,0,-1
EndSplineSet
Validated: 1
EndChar

StartChar: D
Encoding: 68 68 39
Width: 1294
GlyphClass: 2
Flags: W
HStem: 0 21G<200 296.923> 1491 20G<351.955 396 591.226 739>
VStem: 200 196<138 1422> 988 186<558.498 1014.92>
LayerCount: 2
Fore
SplineSet
200 0 m 1,0,-1
 200 1422 l 1,1,-1
 396 1511 l 1,2,-1
 396 138 l 1,3,4
 538 170 538 170 629 211 c 1,5,6
 805 304 805 304 906 466 c 0,7,8
 983 590 983 590 988 782 c 1,9,10
 988 835 988 835 986 852 c 0,11,12
 962 1072 962 1072 800 1202 c 0,13,14
 677 1301 677 1301 423 1385 c 1,15,-1
 400 1390 l 1,16,-1
 628 1514 l 1,17,18
 850 1429 850 1429 984 1298 c 0,19,20
 1154 1132 1154 1132 1174 850 c 1,21,-1
 1174 847 l 2,22,23
 1174 542 1174 542 1022 363 c 0,24,25
 894 212 894 212 658 122 c 0,26,27
 499 62 499 62 389 39 c 2,28,-1
 200 0 l 1,0,-1
EndSplineSet
Validated: 1
EndChar

StartChar: E
Encoding: 69 69 40
Width: 1139
GlyphClass: 2
Flags: W
HStem: 20 182<149 201 397 997> 439 182<149 201 397 892> 1321 170<399 897>
VStem: 201 196<202 439 621 1321>
LayerCount: 2
Fore
SplineSet
201 439 m 1,0,-1
 55 439 l 1,1,-1
 149 621 l 1,2,-1
 201 621 l 1,3,-1
 201 1402 l 1,4,-1
 399 1491 l 1,5,-1
 983 1490 l 1,6,-1
 897 1323 l 1,7,-1
 397 1321 l 1,8,-1
 397 621 l 1,9,-1
 978 621 l 1,10,-1
 892 441 l 1,11,-1
 397 440 l 1,12,-1
 397 202 l 1,13,-1
 1089 202 l 1,14,-1
 997 20 l 1,15,-1
 55 20 l 1,16,-1
 149 202 l 1,17,-1
 201 202 l 1,18,-1
 201 439 l 1,0,-1
EndSplineSet
Validated: 1
EndChar

StartChar: F
Encoding: 70 70 41
Width: 1083
GlyphClass: 2
Flags: W
HStem: 0 21G<202.954 246.043> 439 182<149 202 399 892> 1315 176<399 899>
VStem: 202 197<92 439 621 1315>
LayerCount: 2
Fore
SplineSet
202 439 m 1,0,-1
 55 439 l 1,1,-1
 149 621 l 1,2,-1
 202 621 l 1,3,-1
 201 1403 l 1,4,-1
 399 1491 l 1,5,-1
 983 1491 l 1,6,-1
 899 1317 l 1,7,-1
 399 1315 l 1,8,-1
 399 621 l 1,9,-1
 978 621 l 1,10,-1
 892 441 l 1,11,-1
 399 440 l 1,12,-1
 401 92 l 1,13,-1
 203 0 l 1,14,-1
 202 439 l 1,0,-1
EndSplineSet
Validated: 19457
EndChar

StartChar: G
Encoding: 71 71 42
Width: 1378
GlyphClass: 2
Flags: W
HStem: 0 188<540.938 694> 441 182<612 981> 1325 185<694 852.208>
VStem: 200 198<333.191 1080> 986 202<1011 1188.31>
LayerCount: 2
Fore
SplineSet
694 0 m 1,0,-1
 687 0 l 2,1,2
 478 0 478 0 345 145 c 0,3,4
 200 303 200 303 200 494 c 2,5,-1
 200 1080 l 1,6,-1
 694 1510 l 1,7,-1
 701 1510 l 2,8,9
 909 1510 909 1510 1043 1365 c 0,10,11
 1188 1208 1188 1208 1188 1016 c 2,12,-1
 1188 1011 l 1,13,-1
 986 920 l 1,14,-1
 986 1010 l 2,15,16
 986 1151 986 1151 910 1232 c 0,17,18
 822 1325 822 1325 708 1325 c 2,19,-1
 706 1325 l 1,20,21
 561 1322 561 1322 476 1226 c 0,22,23
 398 1138 398 1138 398 1010 c 2,24,-1
 398 500 l 2,25,26
 398 372 398 372 480 282 c 0,27,28
 566 188 566 188 692 188 c 128,-1,29
 818 188 818 188 908 284 c 0,30,31
 966 346 966 346 981 442 c 1,32,-1
 518 441 l 1,33,-1
 612 623 l 1,34,-1
 1273 623 l 1,35,-1
 1187 443 l 1,36,-1
 694 0 l 1,0,-1
EndSplineSet
Validated: 1
EndChar

StartChar: H
Encoding: 72 72 43
Width: 1403
GlyphClass: 2
Flags: W
HStem: 0 21G<201 244.043 1008.94 1051.17> 439 182<149 201 399 837> 1492 20G<355 399 1159 1203>
VStem: 201 198<92 439 621 1422> 1009 194<92 1422>
LayerCount: 2
Fore
SplineSet
1005 1422 m 1,0,-1
 1203 1512 l 1,1,-1
 1203 92 l 1,2,-1
 1009 0 l 1,3,-1
 1005 1422 l 1,0,-1
399 92 m 1,4,-1
 201 0 l 1,5,-1
 201 439 l 1,6,-1
 55 439 l 1,7,-1
 149 621 l 1,8,-1
 201 621 l 1,9,-1
 201 1422 l 1,10,-1
 399 1512 l 1,11,-1
 399 621 l 1,12,-1
 923 621 l 1,13,-1
 837 441 l 1,14,-1
 399 440 l 1,15,-1
 399 92 l 1,4,-1
EndSplineSet
Validated: 1
EndChar

StartChar: I
Encoding: 73 73 44
Width: 598
GlyphClass: 2
Flags: W
HStem: 0 21G<200 243.043> 1491 20G<353.506 398>
VStem: 200 198<92 1422>
LayerCount: 2
Fore
SplineSet
398 92 m 1,0,-1
 200 0 l 1,1,-1
 200 1422 l 1,2,-1
 398 1511 l 1,3,-1
 398 92 l 1,0,-1
EndSplineSet
Validated: 1
EndChar

StartChar: J
Encoding: 74 74 45
Width: 1272
GlyphClass: 2
Flags: W
HStem: 0 185<417.932 574> 1323 168<428 872>
VStem: 80 202<319.265 510> 870 198<430 1323>
LayerCount: 2
Fore
SplineSet
282 601 m 1,0,-1
 282 500 l 2,1,2
 282 359 282 359 358 278 c 0,3,4
 446 185 446 185 560 185 c 2,5,-1
 562 185 l 1,6,7
 693 188 693 188 792 284 c 0,8,9
 870 359 870 359 870 500 c 2,10,-1
 872 1323 l 1,11,-1
 347 1323 l 1,12,-1
 428 1491 l 1,13,-1
 1072 1491 l 1,14,-1
 1068 430 l 1,15,-1
 574 0 l 1,16,-1
 567 0 l 2,17,18
 375 0 375 0 225 145 c 0,19,20
 80 285 80 285 80 494 c 2,21,-1
 80 510 l 1,22,-1
 282 601 l 1,0,-1
EndSplineSet
Validated: 1
EndChar

StartChar: K
Encoding: 75 75 46
Width: 1392
GlyphClass: 2
Flags: W
HStem: 0 21G<200.028 243.556 1009.65 1062.89> 1492 19G<354.444 397.983 1133.33 1180>
VStem: 200 197<90 279.966 352 1421> 975 205<992.338 1426.1>
DStem2: 650 763 498 660 0.627232 -0.778832<0 196.334 296.478 830.088>
LayerCount: 2
Fore
SplineSet
1180 1512 m 1,0,1
 1180 1166 1180 1166 1131 974 c 0,2,3
 1080 774 1080 774 842 532 c 1,4,-1
 1192 90 l 1,5,-1
 1026 0 l 1,6,-1
 677 427 l 1,7,8
 542 332 542 332 397 259 c 1,9,-1
 396 90 l 1,10,-1
 200 0 l 1,11,-1
 202 1421 l 1,12,-1
 398 1511 l 1,13,-1
 397 352 l 1,14,15
 513 423 513 423 629 494 c 1,16,-1
 498 660 l 1,17,-1
 650 763 l 1,18,-1
 776 604 l 1,19,20
 919 749 919 749 954 998 c 0,21,22
 975 1148 975 1148 975 1288 c 0,23,24
 975 1357 975 1357 970 1422 c 1,25,-1
 1180 1512 l 1,0,1
EndSplineSet
Validated: 1
EndChar

StartChar: L
Encoding: 76 76 47
Width: 1090
GlyphClass: 2
Flags: W
HStem: 20 182<149 203 401 999> 1492 20G<357 401>
VStem: 203 198<202 1422>
LayerCount: 2
Fore
SplineSet
55 20 m 1,0,-1
 149 202 l 1,1,-1
 203 202 l 1,2,-1
 203 1422 l 1,3,-1
 401 1512 l 1,4,-1
 401 202 l 1,5,-1
 1085 200 l 1,6,-1
 999 20 l 1,7,-1
 55 20 l 1,0,-1
EndSplineSet
Validated: 1
EndChar

StartChar: M
Encoding: 77 77 48
Width: 2180
GlyphClass: 2
Flags: W
HStem: 0 21G<200.056 243.696 989 1033.4 1778 1822.4> 1325 185<697 855.48 1486 1644.48>
VStem: 200 201<92 1080> 989 202<91 1185.99> 1778 202<91 1188.76>
LayerCount: 2
Fore
SplineSet
1778 0 m 1,0,-1
 1778 1010 l 2,1,2
 1778 1149 1778 1149 1702 1232 c 1,3,4
 1615 1325 1615 1325 1500 1325 c 2,5,-1
 1498 1325 l 1,6,7
 1368 1322 1368 1322 1268 1226 c 0,8,9
 1197 1158 1197 1158 1191 1035 c 0,10,11
 1191 1026 1191 1026 1191 1016 c 2,12,-1
 1191 91 l 1,13,-1
 989 0 l 1,14,-1
 989 1010 l 2,15,16
 989 1149 989 1149 913 1232 c 1,17,18
 826 1325 826 1325 711 1325 c 2,19,-1
 709 1325 l 1,20,21
 578 1322 578 1322 479 1226 c 0,22,23
 401 1151 401 1151 401 1010 c 2,24,-1
 401 92 l 1,25,-1
 200 0 l 1,26,-1
 203 1080 l 1,27,-1
 697 1510 l 1,28,-1
 704 1510 l 2,29,30
 901 1510 901 1510 1046 1365 c 0,31,32
 1114 1297 1114 1297 1150 1217 c 1,33,-1
 1486 1510 l 1,34,-1
 1493 1510 l 2,35,36
 1690 1510 1690 1510 1835 1365 c 128,-1,37
 1980 1220 1980 1220 1980 1016 c 2,38,-1
 1980 91 l 1,39,-1
 1778 0 l 1,0,-1
EndSplineSet
Validated: 1
EndChar

StartChar: N
Encoding: 78 78 49
Width: 1391
GlyphClass: 2
Flags: W
HStem: 0 21G<200.056 243.696 989 1033.4> 1325 185<697 855.48>
VStem: 200 201<92 1080> 989 202<91 1188.76>
LayerCount: 2
Fore
SplineSet
989 0 m 1,0,-1
 989 1010 l 2,1,2
 989 1149 989 1149 913 1232 c 1,3,4
 826 1325 826 1325 711 1325 c 2,5,-1
 709 1325 l 1,6,7
 578 1322 578 1322 479 1226 c 0,8,9
 401 1151 401 1151 401 1010 c 2,10,-1
 401 92 l 1,11,-1
 200 0 l 1,12,-1
 203 1080 l 1,13,-1
 697 1510 l 1,14,15
 701 1510 701 1510 704 1510 c 0,16,17
 901 1510 901 1510 1046 1365 c 256,18,19
 1191 1220 1191 1220 1191 1016 c 2,20,-1
 1191 91 l 1,21,-1
 989 0 l 1,0,-1
EndSplineSet
Validated: 1
EndChar

StartChar: O
Encoding: 79 79 50
Width: 1388
GlyphClass: 2
Flags: W
HStem: 0 188<540.938 694> 1325 185<694 852.48>
VStem: 200 198<333.191 1080> 986 202<432 1188.76>
LayerCount: 2
Fore
SplineSet
706 1325 m 1,0,1
 561 1322 561 1322 476 1226 c 0,2,3
 398 1138 398 1138 398 1010 c 2,4,-1
 398 500 l 2,5,6
 398 372 398 372 480 282 c 0,7,8
 566 188 566 188 692 188 c 128,-1,9
 818 188 818 188 908 284 c 0,10,11
 983 364 983 364 986 500 c 1,12,-1
 986 1010 l 2,13,14
 986 1151 986 1151 910 1232 c 0,15,16
 823 1325 823 1325 708 1325 c 2,17,-1
 706 1325 l 1,0,1
694 0 m 1,18,-1
 687 0 l 2,19,20
 478 0 478 0 345 145 c 0,21,22
 200 303 200 303 200 494 c 2,23,-1
 200 1080 l 1,24,-1
 694 1510 l 1,25,26
 698 1510 698 1510 701 1510 c 0,27,28
 898 1510 898 1510 1043 1365 c 256,29,30
 1188 1220 1188 1220 1188 1016 c 2,31,-1
 1188 432 l 1,32,-1
 694 0 l 1,18,-1
EndSplineSet
Validated: 1
EndChar

StartChar: P
Encoding: 80 80 51
Width: 1278
GlyphClass: 2
Flags: W
HStem: 0 21G<200 243.556> 1491 20G<351.955 396.034 591.226 725>
VStem: 200 196<90 270.582 347 1422> 976 182<789.39 1110.1>
LayerCount: 2
Fore
SplineSet
200 0 m 1,0,-1
 200 1422 l 1,1,-1
 396 1511 l 1,2,-1
 398 347 l 1,3,4
 522 396 522 396 592 441 c 0,5,6
 747 540 747 540 833 638 c 0,7,8
 976 802 976 802 976 931 c 0,9,10
 976 1157 976 1157 762 1261 c 0,11,12
 591 1344 591 1344 423 1385 c 1,13,-1
 400 1390 l 1,14,-1
 628 1514 l 1,15,16
 822 1453 822 1453 950 1352 c 0,17,18
 1158 1189 1158 1189 1158 987 c 0,19,20
 1158 961 1158 961 1156 932 c 0,21,22
 1144 759 1144 759 942 578 c 0,23,24
 823 471 823 471 610 353 c 0,25,26
 510 297 510 297 396 254 c 1,27,-1
 396 90 l 1,28,-1
 200 0 l 1,0,-1
EndSplineSet
Validated: 1
EndChar

StartChar: Q
Encoding: 81 81 52
Width: 1388
GlyphClass: 2
Flags: W
HStem: 0 188<540.938 694> 1325 185<694 852.48>
VStem: 200 198<333.191 1080> 986 202<432 1188.76>
DStem2: 828 492 676 374 0.689462 -0.724322<0 186.035 282.931 497.017>
LayerCount: 2
Fore
SplineSet
694 0 m 1,0,-1
 687 0 l 2,1,2
 478 0 478 0 345 145 c 0,3,4
 200 303 200 303 200 494 c 2,5,-1
 200 1080 l 1,6,-1
 694 1510 l 1,7,-1
 701 1510 l 2,8,9
 898 1510 898 1510 1043 1365 c 128,-1,10
 1188 1220 1188 1220 1188 1016 c 2,11,-1
 1188 432 l 1,12,-1
 1023 287 l 1,13,-1
 1172 130 l 1,14,-1
 1032 0 l 1,15,-1
 878 161 l 1,16,-1
 694 0 l 1,0,-1
706 1325 m 1,17,18
 561 1322 561 1322 476 1226 c 0,19,20
 398 1138 398 1138 398 1010 c 2,21,-1
 398 500 l 2,22,23
 398 372 398 372 480 282 c 0,24,25
 566 188 566 188 692 188 c 0,26,27
 764 188 764 188 824 219 c 1,28,-1
 676 374 l 1,29,-1
 828 492 l 1,30,-1
 956 357 l 1,31,32
 984 418 984 418 986 500 c 1,33,-1
 986 1010 l 2,34,35
 986 1151 986 1151 910 1232 c 0,36,37
 823 1325 823 1325 708 1325 c 2,38,-1
 706 1325 l 1,17,18
EndSplineSet
Validated: 1
EndChar

StartChar: R
Encoding: 82 82 53
Width: 1291
GlyphClass: 2
Flags: W
HStem: 0 21G<200 243.556 1009 1061.89> 1494 17G<351.955 396.034 591.226 724.5>
VStem: 200 196<90 270.277 347 1422> 976 182<789.141 1109.89>
DStem2: 649 763 497 660 0.627232 -0.778832<0 220.389 328.591 830.088>
LayerCount: 2
Fore
SplineSet
497 660 m 1,0,-1
 649 763 l 1,1,-1
 788 591 l 1,2,3
 812 614 812 614 833 638 c 0,4,5
 976 801 976 801 976 931 c 0,6,7
 976 1157 976 1157 762 1261 c 0,8,9
 591 1344 591 1344 423 1385 c 1,10,-1
 400 1390 l 1,11,-1
 628 1514 l 1,12,13
 821 1453 821 1453 950 1352 c 0,14,15
 1158 1188 1158 1188 1158 987 c 0,16,17
 1158 961 1158 961 1156 932 c 0,18,19
 1144 759 1144 759 942 578 c 0,20,21
 903 543 903 543 855 507 c 1,22,-1
 1191 90 l 1,23,-1
 1025 0 l 1,24,-1
 701 405 l 1,25,-1
 610 353 l 1,26,27
 508 296 508 296 396 254 c 1,28,-1
 396 90 l 1,29,-1
 200 0 l 1,30,-1
 200 1422 l 1,31,-1
 396 1511 l 1,32,-1
 398 347 l 1,33,34
 521 396 521 396 592 441 c 1,35,-1
 644 476 l 1,36,-1
 497 660 l 1,0,-1
EndSplineSet
Validated: 1
EndChar

StartChar: S
Encoding: 83 83 54
Width: 1328
GlyphClass: 2
Flags: W
HStem: 0 185<505.792 664> 760 100<614.341 718.438> 1332 179<592 724.12>
VStem: 170 202<321.69 499 1091 1150> 807 194<1099 1249.95> 960 198<430 659.633>
LayerCount: 2
Fore
SplineSet
587 685 m 1,0,1
 430 686 430 686 310 804 c 0,2,3
 181 931 181 931 181 1106 c 2,4,-1
 181 1150 l 1,5,-1
 592 1511 l 1,6,7
 767 1507 767 1507 881 1395 c 0,8,9
 999 1279 999 1279 1001 1118 c 1,10,-1
 1001 1099 l 1,11,-1
 807 1011 l 1,12,-1
 807 1113 l 2,13,14
 807 1206 807 1206 747 1268 c 1,15,16
 689 1332 689 1332 591 1332 c 0,17,18
 504 1332 504 1332 443 1276 c 0,19,20
 373 1212 373 1212 373 1118 c 0,21,22
 373 1116 373 1116 373 1115 c 2,23,-1
 375 1091 l 2,24,25
 384 986 384 986 446 923 c 0,26,27
 506 861 506 861 594 860 c 1,28,29
 594 860 594 860 596 860 c 0,30,31
 687 860 687 860 753 937 c 1,32,33
 909 923 909 923 1034 810 c 0,34,35
 1156 700 1156 700 1158 534 c 1,36,-1
 1158 430 l 1,37,-1
 664 0 l 1,38,39
 660 0 660 0 657 0 c 0,40,41
 449 0 449 0 315 145 c 0,42,43
 170 302 170 302 170 494 c 2,44,-1
 170 499 l 1,45,-1
 372 590 l 1,46,-1
 372 500 l 2,47,48
 372 358 372 358 448 278 c 0,49,50
 535 185 535 185 650 185 c 2,51,-1
 652 185 l 1,52,53
 791 188 791 188 882 284 c 0,54,55
 960 366 960 366 960 500 c 2,56,-1
 960 528 l 2,57,58
 960 609 960 609 900 683 c 1,59,60
 829 760 829 760 751 760 c 0,61,62
 748 760 748 760 745 760 c 0,63,64
 639 760 639 760 587 685 c 1,0,1
EndSplineSet
Validated: 1
EndChar

StartChar: T
Encoding: 84 84 55
Width: 1066
GlyphClass: 2
Flags: W
HStem: 0 21G<425.031 468.043> 1309 182<87 427 625 973>
VStem: 425 198<92 1309>
LayerCount: 2
Fore
SplineSet
623 92 m 1,0,-1
 425 0 l 1,1,-1
 427 1309 l 1,2,-1
 5 1309 l 1,3,-1
 87 1491 l 1,4,-1
 1061 1491 l 1,5,-1
 973 1309 l 1,6,-1
 625 1309 l 1,7,-1
 623 92 l 1,0,-1
EndSplineSet
Validated: 1
EndChar

StartChar: U
Encoding: 85 85 56
Width: 1391
GlyphClass: 2
Flags: W
HStem: 0 185<535.52 694> 1490 20G<357.604 402 1147.3 1190.94>
VStem: 200 202<321.239 1419> 990 198<430 1418>
LayerCount: 2
Fore
SplineSet
402 1510 m 1,0,-1
 402 500 l 2,1,2
 402 361 402 361 478 278 c 1,3,4
 565 185 565 185 680 185 c 2,5,-1
 682 185 l 1,6,7
 813 188 813 188 912 284 c 0,8,9
 990 359 990 359 990 500 c 2,10,-1
 990 1418 l 1,11,-1
 1191 1510 l 1,12,-1
 1188 430 l 1,13,-1
 694 0 l 1,14,15
 690 0 690 0 687 0 c 0,16,17
 490 0 490 0 345 145 c 256,18,19
 200 290 200 290 200 494 c 2,20,-1
 200 1419 l 1,21,-1
 402 1510 l 1,0,-1
EndSplineSet
Validated: 1
EndChar

StartChar: V
Encoding: 86 86 57
Width: 1104
GlyphClass: 2
Flags: W
HStem: 0 21G<438.82 488.043> 1492 20G<151.818 201.171 996.386 1043>
DStem2: 195 1512 5 1424 0.295217 -0.95543<27.9866 1322.8> 585 248 643 92 0.315398 0.94896<0 1316.05>
LayerCount: 2
Fore
SplineSet
643 92 m 1,0,-1
 445 0 l 1,1,-1
 5 1424 l 1,2,-1
 195 1512 l 1,3,-1
 585 248 l 1,4,-1
 1003 1512 l 1,5,-1
 1099 1464 l 1,6,-1
 643 92 l 1,0,-1
EndSplineSet
Validated: 1
EndChar

StartChar: W
Encoding: 87 87 58
Width: 2180
GlyphClass: 2
Flags: W
HStem: 0 185<535.52 694 1324.52 1483> 1490 20G<357.604 402 1146.6 1191 1936.3 1979.94>
VStem: 200 202<321.239 1419> 989 202<324.006 1419> 1779 198<430 1418>
LayerCount: 2
Fore
SplineSet
402 1510 m 1,0,-1
 402 500 l 2,1,2
 402 361 402 361 478 278 c 1,3,4
 565 185 565 185 680 185 c 2,5,-1
 682 185 l 1,6,7
 812 188 812 188 912 284 c 0,8,9
 983 352 983 352 989 475 c 0,10,11
 989 484 989 484 989 494 c 2,12,-1
 989 1419 l 1,13,-1
 1191 1510 l 1,14,-1
 1191 500 l 2,15,16
 1191 361 1191 361 1267 278 c 1,17,18
 1354 185 1354 185 1469 185 c 2,19,-1
 1471 185 l 1,20,21
 1602 188 1602 188 1701 284 c 0,22,23
 1779 359 1779 359 1779 500 c 2,24,-1
 1779 1418 l 1,25,-1
 1980 1510 l 1,26,-1
 1977 430 l 1,27,-1
 1483 0 l 1,28,-1
 1476 0 l 2,29,30
 1279 0 1279 0 1134 145 c 0,31,32
 1066 213 1066 213 1030 293 c 1,33,-1
 694 0 l 1,34,-1
 687 0 l 2,35,36
 490 0 490 0 345 145 c 128,-1,37
 200 290 200 290 200 494 c 2,38,-1
 200 1419 l 1,39,-1
 402 1510 l 1,0,-1
EndSplineSet
Validated: 1
EndChar

StartChar: X
Encoding: 88 88 59
Width: 1214
GlyphClass: 2
Flags: W
HStem: 0 21G<180.5 229.83 918.562 977.18> 1491 20G<233.5 289.702 968.515 1028.44>
DStem2: 278 1511 100 1431 0.503909 -0.863757<0 700.957 928.698 1633.69> 128 48 218 0 0.510525 0.859863<4.67386 715.72 995.067 995.067>
LayerCount: 2
Fore
SplineSet
100 1431 m 1,0,-1
 278 1511 l 1,1,-1
 632 906 l 1,2,-1
 980 1512 l 1,3,-1
 1089 1467 l 1,4,-1
 696 800 l 1,5,-1
 1114 78 l 1,6,-1
 930 0 l 1,7,-1
 580 612 l 1,8,-1
 218 0 l 1,9,-1
 128 48 l 1,10,-1
 514 718 l 1,11,-1
 100 1431 l 1,0,-1
EndSplineSet
Validated: 1
EndChar

StartChar: Y
Encoding: 89 89 60
Width: 1214
GlyphClass: 2
Flags: W
HStem: 0 21G<500 541.25> 439 181<227 434 729 970> 1492 20G<246.818 298.467 1008.75 1058>
VStem: 500 198<96 439>
DStem2: 290 1512 100 1424 0.389859 -0.920874<6.96369 877.56> 638 690 729 620 0.415021 0.909812<0 901.744>
LayerCount: 2
Fore
SplineSet
698 96 m 1,0,-1
 500 0 l 1,1,-1
 500 439 l 1,2,-1
 133 438 l 1,3,-1
 227 620 l 1,4,-1
 434 620 l 1,5,-1
 100 1424 l 1,6,-1
 290 1512 l 1,7,-1
 638 690 l 1,8,-1
 1018 1512 l 1,9,-1
 1114 1464 l 1,10,-1
 729 620 l 1,11,-1
 1056 620 l 1,12,-1
 970 440 l 1,13,-1
 697 439 l 1,14,-1
 698 96 l 1,0,-1
EndSplineSet
Validated: 1
EndChar

StartChar: Z
Encoding: 90 90 61
Width: 1267
GlyphClass: 2
Flags: W
HStem: 20 179<366 1036> 441 181<269 387 600 1012> 1317 174<272 879>
DStem2: 387 441 366 199 0.489974 0.871737<-221.25 0 262.149 1004.71>
LayerCount: 2
Fore
SplineSet
366 199 m 1,0,-1
 1117 195 l 1,1,-1
 1036 20 l 1,2,-1
 150 20 l 1,3,-1
 387 441 l 1,4,-1
 175 440 l 1,5,-1
 269 622 l 1,6,-1
 488 622 l 1,7,-1
 879 1317 l 1,8,-1
 192 1311 l 1,9,-1
 272 1491 l 1,10,-1
 1078 1491 l 1,11,-1
 600 622 l 1,12,-1
 1098 622 l 1,13,-1
 1012 442 l 1,14,-1
 501 441 l 1,15,-1
 366 199 l 1,0,-1
EndSplineSet
Validated: 1
EndChar

StartChar: bracketleft
Encoding: 91 91 62
Width: 774
GlyphClass: 2
Flags: W
HStem: -348 130<354 680> 1608 137<354 677>
VStem: 150 204<-218 1608>
LayerCount: 2
Fore
SplineSet
354 1608 m 1,0,-1
 354 -218 l 1,1,-1
 764 -218 l 1,2,-1
 680 -344 l 1,3,-1
 150 -348 l 1,4,-1
 152 1656 l 1,5,-1
 350 1745 l 1,6,-1
 764 1747 l 1,7,-1
 677 1607 l 1,8,-1
 354 1608 l 1,0,-1
EndSplineSet
Validated: 1
EndChar

StartChar: backslash
Encoding: 92 92 63
Width: 1039
GlyphClass: 2
Flags: W
DStem2: 164 1638 10 1572 0.435903 -0.899994<0 1978.95>
LayerCount: 2
Fore
SplineSet
1029 -148 m 1,0,-1
 876 -216 l 1,1,-1
 10 1572 l 1,2,-1
 164 1638 l 1,3,-1
 1029 -148 l 1,0,-1
EndSplineSet
Validated: 1
EndChar

StartChar: bracketright
Encoding: 93 93 64
Width: 774
GlyphClass: 2
Flags: W
HStem: -348 140<97 420> 1617 130<94 420>
VStem: 420 202<-209 1617>
LayerCount: 2
Fore
SplineSet
420 -209 m 1,0,-1
 420 1617 l 1,1,-1
 10 1617 l 1,2,-1
 94 1743 l 1,3,-1
 624 1747 l 1,4,-1
 622 -257 l 1,5,-1
 424 -346 l 1,6,-1
 10 -348 l 1,7,-1
 97 -208 l 1,8,-1
 420 -209 l 1,0,-1
EndSplineSet
Validated: 1
EndChar

StartChar: asciicircum
Encoding: 94 94 65
Width: 1180
GlyphClass: 2
Flags: W
HStem: 1035 483
DStem2: 605 1518 517 1290 0.81651 -0.577331<59.7785 512.373>
LayerCount: 2
Fore
SplineSet
80 1168 m 1,0,-1
 605 1518 l 1,1,-1
 1100 1168 l 1,2,-1
 891 1035 l 1,3,-1
 517 1290 l 1,4,-1
 193 1092 l 1,5,-1
 80 1168 l 1,0,-1
EndSplineSet
Validated: 16385
EndChar

StartChar: underscore
Encoding: 95 95 66
Width: 1074
GlyphClass: 2
Flags: W
HStem: -537 172<161 911>
LayerCount: 2
Fore
SplineSet
161 -365 m 1,0,-1
 994 -365 l 1,1,-1
 911 -537 l 1,2,-1
 80 -537 l 1,3,-1
 161 -365 l 1,0,-1
EndSplineSet
Validated: 1
EndChar

StartChar: grave
Encoding: 96 96 67
Width: 742
GlyphClass: 2
Flags: W
HStem: 1128 384
VStem: 150 442
DStem2: 280 1512 150 1386 0.770645 -0.637264<0 384.967>
LayerCount: 2
Fore
SplineSet
280 1512 m 1,0,-1
 592 1254 l 1,1,-1
 462 1128 l 1,2,-1
 150 1386 l 1,3,-1
 280 1512 l 1,0,-1
EndSplineSet
Validated: 16385
EndChar

StartChar: a
Encoding: 97 97 68
Width: 1080
GlyphClass: 2
Flags: W
HStem: -5 183<411.207 545> 938 179<541 673.12>
VStem: 130 192<266.784 756> 756 194<88 855.949>
LayerCount: 2
Fore
SplineSet
950 724 m 1,0,-1
 950 88 l 1,1,-1
 754 0 l 1,2,-1
 756 650 l 1,3,-1
 756 719 l 2,4,5
 756 812 756 812 696 874 c 1,6,7
 638 938 638 938 540 938 c 0,8,9
 453 938 453 938 392 882 c 0,10,11
 322 818 322 818 322 724 c 2,12,-1
 322 721 l 1,13,-1
 324 395 l 2,14,15
 325 298 325 298 394 234 c 0,16,17
 455 178 455 178 542 178 c 0,18,19
 640 178 640 178 698 242 c 1,20,-1
 545 -5 l 1,21,22
 384 0 384 0 260 118 c 0,23,24
 130 242 130 242 130 410 c 2,25,-1
 130 756 l 1,26,-1
 541 1117 l 1,27,28
 716 1113 716 1113 830 1001 c 0,29,30
 948 885 948 885 950 724 c 1,0,-1
EndSplineSet
Validated: 16385
EndChar

StartChar: b
Encoding: 98 98 69
Width: 1102
GlyphClass: 2
Flags: W
HStem: -5 183<431.207 565> 938 179<561 693.12> 1492 20G<295.171 342>
VStem: 150 192<267.807 854.762 925 1430> 778 194<354 851.835>
LayerCount: 2
Fore
SplineSet
150 1430 m 1,0,-1
 342 1512 l 1,1,-1
 342 925 l 1,2,-1
 561 1117 l 1,3,4
 736 1113 736 1113 850 1001 c 0,5,6
 968 885 968 885 970 724 c 1,7,-1
 972 354 l 1,8,-1
 565 -5 l 1,9,10
 404 0 404 0 280 118 c 128,-1,11
 156 236 156 236 150 394 c 1,12,-1
 150 1430 l 1,0,-1
344 395 m 2,13,14
 345 298 345 298 414 234 c 0,15,16
 475 178 475 178 562 178 c 0,17,18
 660 178 660 178 718 242 c 1,19,20
 778 306 778 306 778 394 c 2,21,-1
 778 397 l 1,22,-1
 776 719 l 2,23,24
 775 811 775 811 716 874 c 1,25,26
 658 938 658 938 560 938 c 0,27,28
 473 938 473 938 412 882 c 0,29,30
 342 818 342 818 342 724 c 2,31,-1
 342 721 l 1,32,-1
 344 395 l 2,13,14
EndSplineSet
Validated: 16385
EndChar

StartChar: c
Encoding: 99 99 70
Width: 1082
GlyphClass: 2
Flags: W
HStem: -5 183<411.207 545> 938 179<541 673.12>
VStem: 130 192<266.784 756> 758 194<354 404 719 851.835>
LayerCount: 2
Fore
SplineSet
952 487 m 1,0,-1
 952 354 l 1,1,-1
 545 -5 l 1,2,3
 384 0 384 0 260 118 c 0,4,5
 130 242 130 242 130 410 c 2,6,-1
 130 756 l 1,7,-1
 541 1117 l 1,8,9
 716 1113 716 1113 830 1001 c 0,10,11
 948 885 948 885 950 724 c 1,12,-1
 950 719 l 1,13,-1
 756 639 l 1,14,-1
 756 719 l 2,15,16
 756 812 756 812 696 874 c 1,17,18
 638 938 638 938 540 938 c 0,19,20
 453 938 453 938 392 882 c 0,21,22
 322 818 322 818 322 724 c 0,23,24
 322 722 322 722 322 721 c 2,25,-1
 324 395 l 2,26,27
 325 298 325 298 394 234 c 0,28,29
 455 178 455 178 542 178 c 0,30,31
 640 178 640 178 698 242 c 1,32,33
 758 306 758 306 758 394 c 0,34,35
 758 396 758 396 758 397 c 2,36,-1
 758 404 l 1,37,-1
 952 487 l 1,0,-1
EndSplineSet
Validated: 16385
EndChar

StartChar: d
Encoding: 100 100 71
Width: 1102
GlyphClass: 2
Flags: W
HStem: -5 183<411.207 545> 938 179<541 674.014> 1492 20G<903.171 950.035>
VStem: 130 192<266.784 756> 758 192<354 853.604 1057 1430>
LayerCount: 2
Fore
SplineSet
324 395 m 2,0,1
 325 298 325 298 394 234 c 0,2,3
 455 178 455 178 542 178 c 0,4,5
 640 178 640 178 698 242 c 1,6,7
 758 306 758 306 758 394 c 2,8,-1
 758 397 l 1,9,-1
 756 719 l 2,10,11
 755 811 755 811 696 874 c 1,12,13
 638 938 638 938 540 938 c 0,14,15
 453 938 453 938 392 882 c 0,16,17
 322 818 322 818 322 724 c 2,18,-1
 322 721 l 1,19,-1
 324 395 l 2,0,1
950 1512 m 1,20,-1
 952 354 l 1,21,-1
 545 -5 l 1,22,23
 384 0 384 0 260 118 c 0,24,25
 130 242 130 242 130 410 c 2,26,27
 130 410 130 410 130 756 c 1,28,-1
 541 1117 l 1,29,30
 665 1114 665 1114 758 1057 c 1,31,-1
 758 1430 l 1,32,-1
 950 1512 l 1,20,-1
EndSplineSet
Validated: 16385
EndChar

StartChar: e
Encoding: 101 101 72
Width: 1082
GlyphClass: 2
Flags: W
HStem: -5 183<411.207 545> 938 179<541 673.12>
VStem: 130 192<266.784 412 527 756>
DStem2: 322 527 324 412 0.897843 0.440316<0 495.925>
LayerCount: 2
Fore
SplineSet
324 412 m 1,0,-1
 324 395 l 2,1,2
 324 299 324 299 394 234 c 0,3,4
 455 178 455 178 542 178 c 0,5,6
 640 178 640 178 698 242 c 1,7,8
 758 306 758 306 758 394 c 2,9,-1
 758 397 l 1,10,-1
 758 404 l 1,11,-1
 952 487 l 1,12,-1
 952 354 l 1,13,-1
 545 -5 l 1,14,15
 384 0 384 0 260 118 c 0,16,17
 130 242 130 242 130 410 c 2,18,-1
 130 756 l 1,19,-1
 541 1117 l 1,20,21
 716 1113 716 1113 830 1001 c 0,22,23
 948 885 948 885 950 724 c 1,24,-1
 950 719 l 1,25,-1
 324 412 l 1,0,-1
322 527 m 1,26,-1
 755 747 l 1,27,28
 747 822 747 822 696 874 c 1,29,30
 638 938 638 938 540 938 c 0,31,32
 453 938 453 938 392 882 c 0,33,34
 322 818 322 818 322 724 c 2,35,-1
 322 721 l 1,36,-1
 322 527 l 1,26,-1
EndSplineSet
Validated: 16385
EndChar

StartChar: f
Encoding: 102 102 73
Width: 866
GlyphClass: 2
Flags: W
HStem: 0 21G<153.024 194.978> 833 167<77 154 346 595> 1492 20G<542.23 659>
VStem: 154 192<91 833 1000 1151>
LayerCount: 2
Fore
SplineSet
720 1269 m 1,0,1
 662 1333 662 1333 564 1333 c 0,2,3
 477 1333 477 1333 416 1277 c 0,4,5
 346 1213 346 1213 346 1119 c 2,6,-1
 346 1116 l 1,7,-1
 346 1000 l 1,8,-1
 667 1000 l 1,9,-1
 595 833 l 1,10,-1
 345 833 l 1,11,-1
 344 91 l 1,12,-1
 153 0 l 1,13,-1
 154 833 l 1,14,-1
 5 833 l 1,15,-1
 77 1000 l 1,16,-1
 154 1000 l 1,17,-1
 154 1151 l 1,18,-1
 565 1512 l 1,19,20
 753 1486 753 1486 861 1393 c 1,21,22
 861 1392 861 1392 720 1269 c 1,0,1
EndSplineSet
Validated: 1
EndChar

StartChar: g
Encoding: 103 103 74
Width: 1101
GlyphClass: 2
Flags: W
HStem: -392 179<407.84 540> -5 183<411.207 545> 938 179<541 673.12>
VStem: 130 192<266.784 756> 759 192<-31 183 261.263 851.487>
LayerCount: 2
Fore
SplineSet
951 -31 m 1,0,-1
 540 -392 l 1,1,2
 336 -384 336 -384 244 -273 c 1,3,4
 244 -272 244 -272 385 -149 c 1,5,6
 443 -213 443 -213 541 -213 c 0,7,8
 628 -213 628 -213 689 -157 c 0,9,10
 759 -93 759 -93 759 1 c 2,11,-1
 759 4 l 1,12,-1
 758 183 l 1,13,-1
 545 -5 l 1,14,15
 384 0 384 0 260 118 c 0,16,17
 130 242 130 242 130 410 c 2,18,-1
 130 756 l 1,19,-1
 541 1117 l 1,20,21
 716 1113 716 1113 830 1001 c 0,22,23
 948 885 948 885 950 724 c 1,24,-1
 951 -31 l 1,0,-1
758 383 m 1,25,26
 758 383 758 383 756 719 c 0,27,28
 756 811 756 811 696 874 c 1,29,30
 638 938 638 938 540 938 c 0,31,32
 453 938 453 938 392 882 c 0,33,34
 322 818 322 818 322 724 c 2,35,36
 322 724 322 724 322 721 c 2,37,-1
 324 395 l 2,38,39
 325 298 325 298 394 234 c 0,40,41
 455 178 455 178 542 178 c 0,42,43
 640 178 640 178 698 242 c 1,44,45
 754 302 754 302 758 383 c 1,25,26
EndSplineSet
Validated: 1
EndChar

StartChar: h
Encoding: 104 104 75
Width: 1100
GlyphClass: 2
Flags: W
HStem: 0 21G<150 191.978 776 819.111> 938 179<561 693.12> 1493 20G<296.059 341>
VStem: 150 191<91 852.564 924 1428> 776 194<90 855.466>
LayerCount: 2
Fore
SplineSet
150 1428 m 1,0,-1
 341 1513 l 1,1,-1
 341 924 l 1,2,-1
 561 1117 l 1,3,4
 736 1113 736 1113 850 1001 c 0,5,6
 968 885 968 885 970 724 c 1,7,-1
 970 90 l 1,8,-1
 776 0 l 1,9,-1
 776 719 l 2,10,11
 776 810 776 810 716 874 c 1,12,13
 658 938 658 938 560 938 c 0,14,15
 473 938 473 938 412 882 c 0,16,17
 342 818 342 818 342 724 c 2,18,-1
 342 721 l 1,19,-1
 341 91 l 1,20,-1
 150 0 l 1,21,-1
 150 1428 l 1,0,-1
EndSplineSet
Validated: 16385
EndChar

StartChar: i
Encoding: 105 105 76
Width: 496
GlyphClass: 2
Flags: W
HStem: 0 21G<150 194.545> 1100 20G<299.333 346> 1205 208<150 358> 1491 20G<306 346>
VStem: 150 196<88 1036 1293 1413>
LayerCount: 2
Fore
SplineSet
346 1293 m 1,0,-1
 150 1205 l 1,1,-1
 150 1413 l 1,2,-1
 346 1511 l 1,3,-1
 346 1293 l 1,0,-1
346 88 m 1,4,-1
 150 0 l 1,5,-1
 150 1036 l 1,6,-1
 346 1120 l 1,7,-1
 346 88 l 1,4,-1
EndSplineSet
Validated: 16385
EndChar

StartChar: j
Encoding: 106 106 77
Width: 578
GlyphClass: 2
Flags: W
HStem: 1099 20G<346.022 387.983> 1205 208<192 400> 1491 20G<348 388>
VStem: 192 196<-32 1028 1293 1413>
LayerCount: 2
Fore
SplineSet
388 1293 m 1,0,-1
 192 1205 l 1,1,-1
 192 1413 l 1,2,-1
 388 1511 l 1,3,-1
 388 1293 l 1,0,-1
5 -212 m 17,4,5
 74 -205 74 -205 125 -158 c 0,6,7
 195 -94 195 -94 195 0 c 0,8,9
 195 0 195 0 195 3 c 2,10,-1
 197 1028 l 1,11,-1
 388 1119 l 1,12,-1
 387 -32 l 1,13,-1
 80 -302 l 9,14,-1
 5 -212 l 17,4,5
EndSplineSet
Validated: 1
EndChar

StartChar: k
Encoding: 107 107 78
Width: 1100
GlyphClass: 2
Flags: W
HStem: 0 21G<150 191.978 776 819.111> 1493 20G<296.059 341>
VStem: 150 191<91 526.564 598 1428> 776 194<90 526.323>
LayerCount: 2
Fore
SplineSet
150 1428 m 1,0,-1
 341 1513 l 1,1,-1
 341 598 l 1,2,-1
 345 601 l 1,3,-1
 834 1114 l 1,4,-1
 932 1064 l 1,5,-1
 656 780 l 1,6,7
 768 755 768 755 850 675 c 0,8,9
 968 560 968 560 970 398 c 1,10,-1
 970 90 l 1,11,-1
 776 0 l 1,12,-1
 776 393 l 2,13,14
 776 484 776 484 716 548 c 1,15,16
 658 612 658 612 560 612 c 0,17,18
 473 612 473 612 412 556 c 0,19,20
 342 492 342 492 342 398 c 2,21,-1
 342 395 l 1,22,-1
 341 91 l 1,23,-1
 150 0 l 1,24,-1
 150 1428 l 1,0,-1
EndSplineSet
Validated: 16385
EndChar

StartChar: l
Encoding: 108 108 79
Width: 499
GlyphClass: 2
Flags: W
HStem: 0 21G<150.014 191.25> 1491 20G<305 348.986>
VStem: 150 198<96 1421>
LayerCount: 2
Fore
SplineSet
348 96 m 1,0,-1
 150 0 l 1,1,-1
 151 1421 l 1,2,-1
 349 1511 l 1,3,-1
 348 96 l 1,0,-1
EndSplineSet
Validated: 1
EndChar

StartChar: m
Encoding: 109 109 80
Width: 1706
GlyphClass: 2
Flags: W
HStem: 0 21G<130 171.978 756 799.111 1382 1425.11> 938 179<541 673.12 1167 1298.84>
VStem: 130 192<91 756> 756 194<90 745.656> 1382 194<88 853.466>
LayerCount: 2
Fore
SplineSet
756 0 m 1,0,-1
 756 719 l 2,1,2
 756 810 756 810 696 874 c 1,3,4
 638 938 638 938 540 938 c 0,5,6
 453 938 453 938 392 882 c 0,7,8
 322 818 322 818 322 724 c 2,9,-1
 322 721 l 1,10,-1
 321 91 l 1,11,-1
 130 0 l 1,12,-1
 130 756 l 1,13,-1
 541 1117 l 1,14,15
 716 1113 716 1113 830 1001 c 0,16,17
 882 950 882 950 911 890 c 1,18,-1
 1167 1115 l 1,19,20
 1342 1111 1342 1111 1456 999 c 0,21,22
 1574 883 1574 883 1576 722 c 1,23,-1
 1576 88 l 1,24,-1
 1382 -2 l 1,25,-1
 1382 717 l 2,26,27
 1382 808 1382 808 1322 872 c 1,28,29
 1264 936 1264 936 1166 936 c 0,30,31
 1079 936 1079 936 1018 880 c 128,-1,32
 957 824 957 824 949 746 c 1,33,34
 950 735 950 735 950 724 c 2,35,-1
 950 90 l 1,36,-1
 756 0 l 1,0,-1
EndSplineSet
Validated: 16385
EndChar

StartChar: n
Encoding: 110 110 81
Width: 1080
GlyphClass: 2
Flags: W
HStem: 0 21G<130 171.978 756 799.111> 938 179<541 673.12>
VStem: 130 192<91 756> 756 194<90 855.466>
LayerCount: 2
Fore
SplineSet
756 0 m 1,0,-1
 756 719 l 2,1,2
 756 810 756 810 696 874 c 1,3,4
 638 938 638 938 540 938 c 0,5,6
 453 938 453 938 392 882 c 0,7,8
 322 818 322 818 322 724 c 0,9,10
 322 722 322 722 322 721 c 2,11,-1
 321 91 l 1,12,-1
 130 0 l 1,13,-1
 130 756 l 1,14,-1
 541 1117 l 1,15,16
 716 1113 716 1113 830 1001 c 0,17,18
 948 885 948 885 950 724 c 1,19,-1
 950 90 l 1,20,-1
 756 0 l 1,0,-1
EndSplineSet
Validated: 16385
EndChar

StartChar: o
Encoding: 111 111 82
Width: 1082
GlyphClass: 2
Flags: W
HStem: -5 183<411.207 545> 938 179<541 673.12>
VStem: 130 192<266.784 756> 758 194<354 851.835>
LayerCount: 2
Fore
SplineSet
324 395 m 2,0,1
 325 298 325 298 394 234 c 0,2,3
 455 178 455 178 542 178 c 0,4,5
 640 178 640 178 698 242 c 1,6,7
 758 306 758 306 758 394 c 0,8,9
 758 396 758 396 758 397 c 2,10,-1
 756 719 l 2,11,12
 755 811 755 811 696 874 c 1,13,14
 638 938 638 938 540 938 c 0,15,16
 453 938 453 938 392 882 c 0,17,18
 322 818 322 818 322 724 c 0,19,20
 322 722 322 722 322 721 c 2,21,-1
 324 395 l 2,0,1
830 1001 m 0,22,23
 948 885 948 885 950 724 c 1,24,-1
 952 354 l 1,25,-1
 545 -5 l 1,26,27
 384 0 384 0 260 118 c 0,28,29
 130 242 130 242 130 410 c 2,30,-1
 130 756 l 1,31,-1
 541 1117 l 1,32,33
 716 1113 716 1113 830 1001 c 0,22,23
EndSplineSet
Validated: 16385
EndChar

StartChar: p
Encoding: 112 112 83
Width: 1102
GlyphClass: 2
Flags: W
HStem: -395 21G<151.965 198.829> 0 179<427.986 561> 939 183<557 690.793>
VStem: 152 192<-313 60 263.396 763> 780 192<361 850.216>
LayerCount: 2
Fore
SplineSet
778 722 m 2,0,1
 777 819 777 819 708 883 c 0,2,3
 647 939 647 939 560 939 c 0,4,5
 462 939 462 939 404 875 c 1,6,7
 344 811 344 811 344 723 c 2,8,-1
 344 720 l 1,9,-1
 346 398 l 2,10,11
 347 306 347 306 406 243 c 1,12,13
 464 179 464 179 562 179 c 0,14,15
 649 179 649 179 710 235 c 0,16,17
 780 299 780 299 780 393 c 2,18,-1
 780 396 l 1,19,-1
 778 722 l 2,0,1
152 -395 m 1,20,-1
 150 763 l 1,21,-1
 557 1122 l 1,22,23
 718 1117 718 1117 842 999 c 0,24,25
 972 875 972 875 972 707 c 2,26,27
 972 707 972 707 972 361 c 1,28,-1
 561 0 l 1,29,30
 437 3 437 3 344 60 c 1,31,-1
 344 -313 l 1,32,-1
 152 -395 l 1,20,-1
EndSplineSet
Validated: 16385
EndChar

StartChar: q
Encoding: 113 113 84
Width: 1107
GlyphClass: 2
Flags: W
HStem: -399 21G<760 806.849> -4 179<408.88 541> 935 183<537 670.793>
VStem: 130 194<261.165 759> 760 192<-116 188 258.238 845.193>
LayerCount: 2
Fore
SplineSet
758 718 m 2,0,1
 757 815 757 815 688 879 c 0,2,3
 627 935 627 935 540 935 c 0,4,5
 442 935 442 935 384 871 c 1,6,7
 324 807 324 807 324 719 c 2,8,-1
 324 716 l 1,9,-1
 326 394 l 2,10,11
 327 302 327 302 386 239 c 1,12,13
 444 175 444 175 542 175 c 0,14,15
 629 175 629 175 690 231 c 0,16,17
 760 295 760 295 760 389 c 2,18,-1
 760 392 l 1,19,-1
 758 718 l 2,0,1
1102 -253 m 1,20,-1
 760 -399 l 1,21,-1
 760 188 l 1,22,-1
 541 -4 l 1,23,24
 366 0 366 0 252 112 c 0,25,26
 134 228 134 228 132 389 c 1,27,-1
 130 759 l 1,28,-1
 537 1118 l 1,29,30
 698 1113 698 1113 822 995 c 128,-1,31
 946 877 946 877 952 719 c 1,32,-1
 952 -116 l 1,33,-1
 1102 -54 l 1,34,-1
 1102 -253 l 1,20,-1
EndSplineSet
Validated: 1
EndChar

StartChar: r
Encoding: 114 114 85
Width: 1030
GlyphClass: 2
Flags: W
HStem: 0 21G<130 171.978> 938 179<541 673.12>
VStem: 130 192<91 756> 756 194<715 851.835>
LayerCount: 2
Fore
SplineSet
756 625 m 1,0,-1
 756 719 l 2,1,2
 756 802 756 802 696 874 c 1,3,4
 638 938 638 938 540 938 c 0,5,6
 453 938 453 938 392 882 c 0,7,8
 322 818 322 818 322 724 c 0,9,10
 322 722 322 722 322 721 c 2,11,-1
 321 91 l 1,12,-1
 130 0 l 1,13,-1
 130 756 l 1,14,-1
 541 1117 l 1,15,16
 716 1113 716 1113 830 1001 c 0,17,18
 948 885 948 885 950 724 c 1,19,-1
 950 715 l 1,20,-1
 756 625 l 1,0,-1
EndSplineSet
Validated: 16385
EndChar

StartChar: s
Encoding: 115 115 86
Width: 1050
GlyphClass: 2
Flags: W
HStem: 0 179<387.609 518> 546 79<488.781 566.205> 941 179<494 603.681>
VStem: 134 194<233.391 306 678.007 788> 740 189<361 503.834>
LayerCount: 2
Fore
SplineSet
740 388 m 0,0,1
 740 467 740 467 696 506 c 0,2,3
 651 546 651 546 583 546 c 0,4,5
 578 546 578 546 573 546 c 0,6,7
 509 546 509 546 453 463 c 1,8,9
 263 468 263 468 189 577 c 0,10,11
 124 674 124 674 120 772 c 1,12,-1
 120 788 l 1,13,-1
 494 1120 l 1,14,15
 642 1117 642 1117 743 1025 c 0,16,17
 820 956 820 956 838 852 c 1,18,-1
 838 847 l 1,19,-1
 644 767 l 1,20,-1
 644 789 l 2,21,22
 644 859 644 859 605 899 c 0,23,24
 563 941 563 941 493 941 c 0,25,26
 405 941 405 941 351 875 c 0,27,28
 314 830 314 830 314 774 c 0,29,30
 314 771 314 771 314 768 c 0,31,32
 314 709 314 709 345 677 c 0,33,34
 395 625 395 625 475 625 c 0,35,36
 476 625 476 625 478 625 c 0,37,38
 547 625 547 625 606 710 c 1,39,40
 781 705 781 705 866 598 c 0,41,42
 930 517 930 517 930 396 c 1,43,-1
 929 361 l 1,44,-1
 518 0 l 1,45,46
 317 4 317 4 225 112 c 0,47,48
 145 206 145 206 134 301 c 1,49,-1
 134 306 l 1,50,-1
 328 386 l 1,51,-1
 328 378 l 2,52,53
 328 291 328 291 363 243 c 1,54,55
 421 179 421 179 519 179 c 0,56,57
 611 179 611 179 667 235 c 0,58,59
 740 308 740 308 740 380 c 0,60,61
 740 382 740 382 740 384 c 128,-1,62
 740 386 740 386 740 388 c 0,0,1
EndSplineSet
Validated: 16385
EndChar

StartChar: t
Encoding: 116 116 87
Width: 794
GlyphClass: 2
Flags: W
HStem: 0 21G<291.087 332.263> 918 182<83 292 492 707> 1491 20G<444.909 488.951>
VStem: 295 197<95 918 1100 1423>
LayerCount: 2
Fore
SplineSet
487 95 m 1,0,-1
 291 0 l 1,1,-1
 295 918 l 1,2,-1
 5 918 l 1,3,-1
 83 1100 l 1,4,-1
 292 1100 l 1,5,-1
 295 1423 l 1,6,-1
 489 1511 l 1,7,-1
 488 1100 l 1,8,-1
 789 1100 l 1,9,-1
 707 918 l 1,10,-1
 492 918 l 1,11,-1
 487 95 l 1,0,-1
EndSplineSet
Validated: 1
EndChar

StartChar: u
Encoding: 117 117 88
Width: 1080
GlyphClass: 2
Flags: W
HStem: 0 179<406.88 539> 1097 20G<280.889 324 908.022 950>
VStem: 130 194<261.534 1027> 758 192<361 1026>
LayerCount: 2
Fore
SplineSet
324 1117 m 1,0,-1
 324 398 l 2,1,2
 324 307 324 307 384 243 c 1,3,4
 442 179 442 179 540 179 c 0,5,6
 627 179 627 179 688 235 c 0,7,8
 758 299 758 299 758 393 c 0,9,10
 758 395 758 395 758 396 c 2,11,-1
 759 1026 l 1,12,-1
 950 1117 l 1,13,-1
 950 361 l 1,14,-1
 539 0 l 1,15,16
 364 4 364 4 250 116 c 0,17,18
 132 232 132 232 130 393 c 1,19,-1
 130 1027 l 1,20,-1
 324 1117 l 1,0,-1
EndSplineSet
Validated: 16385
EndChar

StartChar: v
Encoding: 118 118 89
Width: 1106
GlyphClass: 2
Flags: W
HStem: 0 21G<445.815 497.415> 1100 20G<173.238 226.044 961.314 1012.4>
DStem2: 218 1120 30 1036 0.378772 -0.92549<6.53203 970.056> 580 220 632 82 0.410595 0.911818<0 976.877>
LayerCount: 2
Fore
SplineSet
632 82 m 1,0,-1
 454 0 l 1,1,-1
 30 1036 l 1,2,-1
 218 1120 l 1,3,-1
 580 220 l 1,4,-1
 970 1118 l 1,5,-1
 1076 1068 l 1,6,-1
 632 82 l 1,0,-1
EndSplineSet
Validated: 16385
EndChar

StartChar: w
Encoding: 119 119 90
Width: 1706
GlyphClass: 2
Flags: W
HStem: 0 179<406.88 539 1029.1 1165> 1097 20G<280.889 324>
VStem: 130 194<261.534 1027> 756 194<369.344 1025> 1384 192<359 1024>
LayerCount: 2
Fore
SplineSet
950 1115 m 1,0,-1
 950 396 l 2,1,2
 950 305 950 305 1010 241 c 1,3,4
 1068 177 1068 177 1166 177 c 0,5,6
 1253 177 1253 177 1314 233 c 0,7,8
 1384 297 1384 297 1384 391 c 2,9,-1
 1384 394 l 1,10,-1
 1385 1024 l 1,11,-1
 1576 1115 l 1,12,-1
 1576 359 l 1,13,-1
 1165 -2 l 1,14,15
 990 2 990 2 876 114 c 0,16,17
 824 165 824 165 795 225 c 1,18,-1
 539 0 l 1,19,20
 364 4 364 4 250 116 c 0,21,22
 132 232 132 232 130 393 c 1,23,-1
 130 1027 l 1,24,-1
 324 1117 l 1,25,-1
 324 398 l 2,26,27
 324 307 324 307 384 243 c 1,28,29
 442 179 442 179 540 179 c 0,30,31
 627 179 627 179 688 235 c 128,-1,32
 749 291 749 291 757 369 c 1,33,34
 756 380 756 380 756 391 c 2,35,-1
 756 1025 l 1,36,-1
 950 1115 l 1,0,-1
EndSplineSet
Validated: 16385
EndChar

StartChar: x
Encoding: 120 120 91
Width: 988
GlyphClass: 2
Flags: W
HStem: 0 21G<112.314 162.654 767.438 824.927> 1100 20G<172.146 232.165 815.433 861.034>
DStem2: 218 1120 30 1038 0.586686 -0.809814<0 520.764 701.031 1237.88> 57 51 148 0 0.585242 0.810859<11.9032 549.923 792.575 1320.82>
LayerCount: 2
Fore
SplineSet
30 1038 m 1,0,-1
 218 1120 l 1,1,-1
 519 695 l 1,2,-1
 830 1122 l 1,3,-1
 920 1064 l 1,4,-1
 580 613 l 1,5,-1
 958 82 l 1,6,-1
 782 0 l 1,7,-1
 466 434 l 1,8,-1
 148 0 l 1,9,-1
 57 51 l 1,10,-1
 404 522 l 1,11,-1
 30 1038 l 1,0,-1
EndSplineSet
Validated: 16385
EndChar

StartChar: y
Encoding: 121 121 92
Width: 1101
GlyphClass: 2
Flags: W
HStem: -392 179<408.375 540> 0 179<406.88 539> 1097 20G<280.889 324 908.022 950.017>
VStem: 130 194<261.534 1027> 759 192<-31 193 264.608 1026>
LayerCount: 2
Fore
SplineSet
951 -31 m 1,0,-1
 540 -392 l 1,1,2
 348 -392 348 -392 244 -273 c 1,3,4
 244 -272 244 -272 385 -149 c 1,5,6
 443 -213 443 -213 541 -213 c 0,7,8
 628 -213 628 -213 689 -157 c 0,9,10
 759 -93 759 -93 759 1 c 2,11,-1
 759 4 l 1,12,-1
 758 193 l 1,13,-1
 539 0 l 1,14,15
 364 4 364 4 250 116 c 0,16,17
 132 232 132 232 130 393 c 1,18,-1
 130 1027 l 1,19,-1
 324 1117 l 1,20,-1
 324 398 l 2,21,22
 324 307 324 307 384 243 c 1,23,24
 442 179 442 179 540 179 c 0,25,26
 626 179 626 179 688 235 c 0,27,28
 754 295 754 295 758 382 c 1,29,-1
 759 1026 l 1,30,-1
 950 1117 l 1,31,-1
 951 -31 l 1,0,-1
EndSplineSet
Validated: 1
EndChar

StartChar: z
Encoding: 122 122 93
Width: 1024
GlyphClass: 2
Flags: W
HStem: 20 172<334 844> 356 174<194 321 555 828> 934 166<208 696>
DStem2: 321 356 334 192 0.546212 0.837647<-130.273 0 273.564 688.989>
LayerCount: 2
Fore
SplineSet
334 192 m 1,0,-1
 923 192 l 1,1,-1
 844 20 l 1,2,-1
 100 20 l 1,3,-1
 321 356 l 1,4,-1
 103 356 l 1,5,-1
 194 530 l 1,6,-1
 433 530 l 1,7,-1
 696 934 l 1,8,-1
 130 934 l 1,9,-1
 208 1100 l 1,10,-1
 924 1100 l 1,11,-1
 555 530 l 1,12,-1
 921 530 l 1,13,-1
 828 356 l 1,14,-1
 444 356 l 1,15,-1
 334 192 l 1,0,-1
EndSplineSet
Validated: 19457
EndChar

StartChar: braceleft
Encoding: 123 123 94
Width: 977
GlyphClass: 2
Flags: W
HStem: 576 196<118 246>
VStem: 246 199<-18.2344 576 772 1294>
LayerCount: 2
Fore
SplineSet
545 -327 m 1,0,1
 291 -228 291 -228 246 48 c 1,2,-1
 246 576 l 1,3,-1
 10 576 l 1,4,-1
 118 772 l 1,5,-1
 246 772 l 1,6,-1
 246 1294 l 1,7,-1
 768 1766 l 1,8,-1
 832 1766 l 1,9,10
 903 1762 903 1762 967 1732 c 1,11,-1
 785 1564 l 1,12,13
 751 1578 751 1578 727 1576 c 0,14,15
 635 1568 635 1568 546 1490 c 0,16,17
 459 1414 459 1414 441 1296 c 1,18,-1
 445 121 l 1,19,20
 481 -140 481 -140 705 -146 c 1,21,-1
 732 -146 l 1,22,-1
 587 -340 l 1,23,-1
 545 -327 l 1,0,1
EndSplineSet
Validated: 1
EndChar

StartChar: bar
Encoding: 124 124 95
Width: 507
GlyphClass: 2
Flags: W
VStem: 170 166<-138 1560>
LayerCount: 2
Fore
SplineSet
336 -138 m 1,0,-1
 170 -232 l 1,1,-1
 170 1560 l 1,2,-1
 337 1651 l 1,3,-1
 336 -138 l 1,0,-1
EndSplineSet
Validated: 1
EndChar

StartChar: braceright
Encoding: 125 125 96
Width: 977
GlyphClass: 2
Flags: W
HStem: 654 196<731 859>
VStem: 536 195<132 654 850 1436.26>
LayerCount: 2
Fore
SplineSet
432 1753 m 1,0,1
 686 1654 686 1654 731 1378 c 1,2,-1
 731 850 l 1,3,-1
 967 850 l 1,4,-1
 859 654 l 1,5,-1
 731 654 l 1,6,-1
 731 132 l 1,7,-1
 209 -340 l 1,8,-1
 145 -340 l 1,9,10
 74 -336 74 -336 10 -306 c 1,11,-1
 192 -138 l 1,12,13
 226 -152 226 -152 250 -150 c 0,14,15
 342 -142 342 -142 431 -64 c 0,16,17
 518 12 518 12 536 130 c 1,18,-1
 532 1305 l 1,19,20
 496 1566 496 1566 272 1572 c 1,21,-1
 245 1572 l 1,22,-1
 390 1766 l 1,23,-1
 432 1753 l 1,0,1
EndSplineSet
Validated: 1
EndChar

StartChar: asciitilde
Encoding: 126 126 97
Width: 1190
GlyphClass: 2
Flags: W
HStem: 493 416
VStem: 80 207<587 675.149>
DStem2: 417 909 453 729 0.804803 -0.593542<99.9323 443.257>
LayerCount: 2
Fore
SplineSet
735 672 m 1,0,1
 795 672 795 672 838 700 c 0,2,3
 884 730 884 730 903 815 c 1,4,-1
 1110 909 l 1,5,6
 1107 787 1107 787 1099 755 c 0,7,8
 1051 562 1051 562 859 509 c 0,9,10
 819 498 819 498 773 493 c 1,11,-1
 453 729 l 1,12,13
 383 718 383 718 336 680 c 0,14,15
 290 642 290 642 287 587 c 1,16,-1
 80 493 l 1,17,18
 83 600 83 600 91 647 c 0,19,20
 122 832 122 832 331 893 c 0,21,22
 365 903 365 903 417 909 c 1,23,-1
 735 672 l 1,0,1
EndSplineSet
Validated: 16385
EndChar

StartChar: exclamdown
Encoding: 161 161 99
Width: 600
GlyphClass: 2
Flags: W
HStem: 1 21G<200 244.444> 1202 218<200 418> 1304 208<190 398>
VStem: 200 198<91 1109 1304 1420>
LayerCount: 2
Fore
SplineSet
200 1420 m 1,0,-1
 398 1512 l 1,1,-1
 398 1304 l 1,2,-1
 200 1202 l 1,3,-1
 200 1420 l 1,0,-1
400 91 m 1,4,-1
 200 1 l 1,5,-1
 200 1109 l 1,6,-1
 398 1201 l 1,7,-1
 400 91 l 1,4,-1
EndSplineSet
Validated: 16385
EndChar

StartChar: cent
Encoding: 162 162 100
Width: 1082
GlyphClass: 2
Flags: W
VStem: 130 192<266.784 756> 448 167<-140 23.4443 197 919 1100.52 1244> 758 194<354 404 719 852.323>
LayerCount: 2
Fore
SplineSet
952 487 m 1,0,-1
 952 354 l 1,1,-1
 616 58 l 1,2,-1
 616 -140 l 1,3,-1
 450 -234 l 1,4,-1
 450 9 l 1,5,6
 346 36 346 36 260 118 c 0,7,8
 130 242 130 242 130 410 c 2,9,-1
 130 756 l 1,10,-1
 448 1036 l 1,11,-1
 448 1244 l 1,12,-1
 615 1335 l 1,13,-1
 615 1110 l 1,14,15
 741 1088 741 1088 830 1001 c 0,16,17
 948 886 948 886 950 724 c 1,18,-1
 950 719 l 1,19,-1
 756 639 l 1,20,-1
 756 719 l 2,21,22
 756 812 756 812 696 874 c 1,23,24
 662 911 662 911 615 927 c 1,25,-1
 616 189 l 1,26,27
 664 204 664 204 698 242 c 0,28,29
 758 309 758 309 758 394 c 2,30,-1
 758 397 l 1,31,-1
 758 404 l 1,32,-1
 952 487 l 1,0,-1
449 197 m 1,33,-1
 448 919 l 1,34,35
 418 906 418 906 392 882 c 0,36,37
 322 817 322 817 322 724 c 2,38,-1
 322 721 l 1,39,-1
 324 395 l 2,40,41
 325 297 325 297 394 234 c 0,42,43
 419 211 419 211 449 197 c 1,33,-1
EndSplineSet
Validated: 16385
EndChar

StartChar: sterling
Encoding: 163 163 101
Width: 1137
GlyphClass: 2
Flags: W
HStem: 20 186<394 1005> 552 172<142 195 394 731> 1334 179<609 741.12>
VStem: 198 192<206 552 724 1152> 824 194<1111 1247.83>
LayerCount: 2
Fore
SplineSet
824 1021 m 1,0,-1
 824 1115 l 2,1,2
 824 1198 824 1198 764 1270 c 1,3,4
 706 1334 706 1334 608 1334 c 0,5,6
 521 1334 521 1334 460 1278 c 0,7,8
 390 1214 390 1214 390 1120 c 2,9,-1
 390 1117 l 1,10,-1
 389 724 l 1,11,-1
 824 724 l 1,12,-1
 731 552 l 1,13,-1
 394 552 l 1,14,-1
 394 206 l 1,15,-1
 1087 205 l 1,16,-1
 1005 20 l 1,17,-1
 193 20 l 1,18,-1
 195 552 l 1,19,-1
 51 552 l 1,20,-1
 142 724 l 1,21,-1
 196 724 l 1,22,-1
 198 724 l 1,23,-1
 198 1152 l 1,24,-1
 609 1513 l 1,25,26
 784 1509 784 1509 898 1397 c 0,27,28
 1016 1281 1016 1281 1018 1120 c 1,29,-1
 1018 1111 l 1,30,-1
 824 1021 l 1,0,-1
EndSplineSet
Validated: 16385
EndChar

StartChar: currency
Encoding: 164 164 102
Width: 1542
GlyphClass: 2
Flags: W
HStem: 234 188<611.57 765> 1069 185<765 921.899>
VStem: 271 198<566.494 824> 1057 202<666 934.131>
DStem2: 150 323 354 246 0.742332 0.670032<99.8433 247.758 1226.09 1396.95>
LayerCount: 2
Fore
SplineSet
765 234 m 1,0,-1
 758 234 l 2,1,2
 586 234 586 234 460 338 c 1,3,-1
 354 246 l 1,4,-1
 150 323 l 1,5,-1
 333 489 l 1,6,7
 271 598 271 598 271 728 c 2,8,-1
 271 824 l 1,9,-1
 397 934 l 1,10,-1
 150 1166 l 1,11,-1
 354 1243 l 1,12,-1
 544 1062 l 1,13,-1
 765 1254 l 1,14,-1
 772 1254 l 2,15,16
 934 1254 934 1254 1066 1151 c 1,17,-1
 1187 1259 l 1,18,-1
 1392 1184 l 1,19,-1
 1194 1009 l 1,20,21
 1259 900 1259 900 1259 760 c 2,22,-1
 1259 666 l 1,23,-1
 1117 541 l 1,24,-1
 1392 311 l 1,25,-1
 1187 236 l 1,26,-1
 969 412 l 1,27,-1
 765 234 l 1,0,-1
777 1069 m 1,28,29
 628 1066 628 1066 547 970 c 0,30,31
 469 878 469 878 469 754 c 2,32,-1
 469 734 l 2,33,34
 469 606 469 606 551 516 c 0,35,36
 637 422 637 422 763 422 c 128,-1,37
 889 422 889 422 979 518 c 0,38,39
 1054 598 1054 598 1057 734 c 1,40,-1
 1057 754 l 2,41,42
 1057 895 1057 895 981 976 c 0,43,44
 894 1069 894 1069 779 1069 c 2,45,-1
 777 1069 l 1,28,29
EndSplineSet
Validated: 16385
EndChar

StartChar: yen
Encoding: 165 165 103
Width: 1114
GlyphClass: 2
Flags: W
HStem: 0 21G<450 491.25> 439 169<162 390 670 913> 762 172<161 249 558 621 820 911> 1492 20G<196.818 248.478 958.692 1008>
VStem: 450 198<96 439>
DStem2: 240 1512 50 1424 0.389859 -0.920874<6.96369 535.774 814.631 890.949> 588 690 670 607 0.417713 0.908579<0 79.2022 319.511 902.072>
LayerCount: 2
Fore
SplineSet
648 96 m 1,0,-1
 450 0 l 1,1,-1
 450 439 l 1,2,-1
 83 438 l 1,3,-1
 162 608 l 1,4,-1
 390 608 l 1,5,-1
 325 762 l 1,6,-1
 80 762 l 1,7,-1
 161 934 l 1,8,-1
 249 934 l 1,9,-1
 50 1424 l 1,10,-1
 240 1512 l 1,11,-1
 485 934 l 1,12,-1
 699 934 l 1,13,-1
 968 1512 l 1,14,-1
 1064 1464 l 1,15,-1
 820 935 l 1,16,-1
 994 934 l 1,17,-1
 911 762 l 1,18,-1
 744 762 l 1,19,-1
 670 607 l 1,20,-1
 995 608 l 1,21,-1
 913 441 l 1,22,-1
 647 439 l 1,23,-1
 648 96 l 1,0,-1
621 762 m 1,24,-1
 558 762 l 1,25,-1
 588 690 l 1,26,-1
 621 762 l 1,24,-1
EndSplineSet
Validated: 16385
EndChar

StartChar: brokenbar
Encoding: 166 166 104
Width: 507
GlyphClass: 2
Flags: W
VStem: 170 166<-138 555 876 1560>
LayerCount: 2
Fore
SplineSet
171 786 m 1,0,-1
 170 1560 l 1,1,-1
 337 1651 l 1,2,-1
 337 876 l 1,3,-1
 171 786 l 1,0,-1
336 639 m 1,4,-1
 336 -138 l 1,5,-1
 170 -232 l 1,6,-1
 170 555 l 1,7,-1
 336 639 l 1,4,-1
EndSplineSet
Validated: 1
EndChar

StartChar: section
Encoding: 167 167 105
Width: 1122
GlyphClass: 2
Flags: W
HStem: -5 179<476.319 586> 490 88<510.828 697.703> 939 79<455.013 607.9> 1334 179<536 645.681>
VStem: 162 194<1071.01 1181> 766 194<327 436.993> 789 182<713.062 887.219>
LayerCount: 2
Fore
SplineSet
307 900 m 1,0,1
 260 927 260 927 231 970 c 0,2,3
 166 1066 166 1066 162 1165 c 1,4,-1
 162 1181 l 1,5,-1
 536 1513 l 1,6,7
 683 1510 683 1510 785 1418 c 0,8,9
 862 1348 862 1348 880 1245 c 1,10,-1
 880 1240 l 1,11,-1
 686 1160 l 1,12,-1
 686 1182 l 2,13,14
 686 1252 686 1252 647 1292 c 0,15,16
 605 1334 605 1334 535 1334 c 0,17,18
 447 1334 447 1334 393 1268 c 0,19,20
 356 1223 356 1223 356 1167 c 2,21,-1
 356 1161 l 2,22,23
 356 1102 356 1102 387 1070 c 0,24,25
 437 1018 437 1018 517 1018 c 2,26,-1
 520 1018 l 2,27,28
 589 1018 589 1018 648 1103 c 1,29,30
 823 1098 823 1098 908 991 c 0,31,32
 972 910 972 910 972 789 c 1,33,-1
 971 754 l 1,34,35
 882 669 882 669 812 609 c 1,36,37
 861 582 861 582 891 538 c 0,38,39
 956 443 956 443 960 343 c 1,40,-1
 960 327 l 1,41,-1
 586 -5 l 1,42,43
 439 -2 439 -2 337 90 c 0,44,45
 260 160 260 160 242 263 c 1,46,-1
 242 268 l 1,47,-1
 436 348 l 1,48,-1
 436 326 l 2,49,50
 436 256 436 256 475 216 c 0,51,52
 517 174 517 174 587 174 c 0,53,54
 675 174 675 174 729 240 c 0,55,56
 766 285 766 285 766 341 c 2,57,-1
 766 347 l 2,58,59
 766 406 766 406 735 438 c 0,60,61
 685 490 685 490 605 490 c 2,62,-1
 602 490 l 2,63,64
 533 490 533 490 474 405 c 1,65,66
 299 410 299 410 214 517 c 0,67,68
 150 598 150 598 150 719 c 1,69,-1
 151 754 l 1,70,71
 242 842 242 842 307 900 c 1,0,1
770 713 m 0,72,73
 789 752 789 752 789 787 c 0,74,75
 788 849 788 849 733 901 c 1,76,-1
 712 915 l 1,77,78
 656 939 656 939 599 939 c 2,79,80
 599 939 599 939 596 939 c 0,81,82
 499 939 499 939 399 864 c 0,83,84
 338 818 338 818 337 719 c 1,85,-1
 340 702 l 1,86,87
 399 578 399 578 552 578 c 0,88,89
 557 578 557 578 562 578 c 0,90,91
 704 578 704 578 770 713 c 0,72,73
EndSplineSet
Validated: 16385
EndChar

StartChar: dieresis
Encoding: 168 168 106
Width: 954
GlyphClass: 2
Flags: W
HStem: 1067 445
VStem: 150 266<1207 1369> 537 266<1207 1369>
LayerCount: 2
Fore
SplineSet
803 1207 m 1,0,-1
 537 1067 l 1,1,-1
 538 1369 l 1,2,-1
 804 1512 l 1,3,-1
 803 1207 l 1,0,-1
416 1207 m 1,4,-1
 150 1067 l 1,5,-1
 151 1369 l 1,6,-1
 417 1512 l 1,7,-1
 416 1207 l 1,4,-1
EndSplineSet
Validated: 1
EndChar

StartChar: copyright
Encoding: 169 169 107
Width: 1261
GlyphClass: 2
Flags: W
HStem: 180 79<444.499 817.229> 342 132<515.476 633> 1021 129<630 748.11> 1251 80<441.931 819.969>
VStem: 80 74<566.018 943.982> 306 151<527.75 890> 801 152<600 636 864 968.719> 1106 75<560.265 949.908>
LayerCount: 2
Fore
SplineSet
631 1331 m 0,0,1
 741 1331 741 1331 841 1288 c 0,2,3
 937 1247 937 1247 1020 1161 c 0,4,5
 1100 1078 1100 1078 1141 975 c 0,6,7
 1181 874 1181 874 1181 754 c 0,8,9
 1181 638 1181 638 1141 535 c 0,10,11
 1103 437 1103 437 1020 350 c 0,12,13
 941 267 941 267 841 223 c 0,14,15
 743 180 743 180 631 180 c 0,16,17
 520 180 520 180 420 223 c 0,18,19
 324 264 324 264 241 350 c 0,20,21
 160 434 160 434 120 535 c 128,-1,22
 80 636 80 636 80 754 c 0,23,24
 80 873 80 873 120 975 c 128,-1,25
 160 1077 160 1077 241 1161 c 0,26,27
 322 1246 322 1246 420 1288.5 c 128,-1,28
 518 1331 518 1331 631 1331 c 0,0,1
631 1251 m 0,29,30
 533 1251 533 1251 450 1215 c 128,-1,31
 367 1179 367 1179 296 1105 c 0,32,33
 226 1032 226 1032 190 944 c 128,-1,34
 154 856 154 856 154 759 c 2,35,-1
 154 754 l 2,36,37
 154 655 154 655 190 566 c 0,38,39
 224 483 224 483 296 406 c 0,40,41
 366 332 366 332 449 296 c 0,42,43
 534 259 534 259 631 259 c 128,-1,44
 728 259 728 259 813 296 c 0,45,46
 896 332 896 332 967 406 c 0,47,48
 1036 478 1036 478 1071 565 c 128,-1,49
 1106 652 1106 652 1106 754 c 0,50,51
 1106 857 1106 857 1071 945 c 0,52,53
 1037 1031 1037 1031 967 1105 c 0,54,55
 898 1178 898 1178 813 1215 c 0,56,57
 728 1251 728 1251 631 1251 c 0,29,30
620 1021 m 0,58,59
 560 1021 560 1021 512 981 c 0,60,61
 457 935 457 935 457 867 c 2,62,-1
 457 865 l 1,63,-1
 459 630 l 2,64,65
 460 560 460 560 514 514 c 0,66,67
 561 474 561 474 639 474 c 0,68,69
 708 474 708 474 753 520 c 1,70,71
 801 566 801 566 801 629 c 2,72,-1
 801 631 l 1,73,-1
 801 636 l 1,74,-1
 953 696 l 1,75,-1
 953 600 l 1,76,-1
 633 342 l 1,77,78
 504 345 504 345 408 430 c 0,79,80
 306 520 306 520 306 641 c 2,81,-1
 306 890 l 1,82,-1
 630 1150 l 1,83,84
 767 1148 767 1148 857 1067 c 0,85,86
 950 983 950 983 952 867 c 1,87,-1
 952 864 l 1,88,-1
 799 806 l 1,89,-1
 799 864 l 2,90,91
 799 931 799 931 752 975 c 1,92,93
 706 1021 706 1021 620 1021 c 0,58,59
EndSplineSet
Validated: 16385
EndChar

StartChar: ordfeminine
Encoding: 170 170 108
Width: 1074
GlyphClass: 2
Flags: W
HStem: 495 172<161 911> 706 132<422.443 537> 1386 129<534 650.573>
VStem: 219 147<888.227 1255> 699 148<773 1337.6>
LayerCount: 2
Fore
SplineSet
527 1386 m 0,0,1
 466 1386 466 1386 420 1346 c 0,2,3
 366 1299 366 1299 366 1232 c 2,4,-1
 366 1230 l 1,5,-1
 368 995 l 2,6,7
 369 923 369 923 421 878 c 0,8,9
 467 838 467 838 535 838 c 0,10,11
 610 838 610 838 654 884 c 1,12,-1
 537 706 l 1,13,14
 416 710 416 710 319 795 c 0,15,16
 219 883 219 883 219 1005 c 2,17,-1
 219 1255 l 1,18,-1
 534 1515 l 1,19,20
 676 1513 676 1513 759 1433 c 0,21,22
 846 1349 846 1349 847 1232 c 1,23,-1
 847 773 l 1,24,-1
 697 710 l 1,25,-1
 699 1179 l 1,26,-1
 699 1228 l 2,27,28
 699 1295 699 1295 653 1340 c 1,29,30
 608 1386 608 1386 527 1386 c 0,0,1
161 667 m 1,31,-1
 994 667 l 1,32,-1
 911 495 l 1,33,-1
 80 495 l 1,34,-1
 161 667 l 1,31,-1
EndSplineSet
Validated: 16385
EndChar

StartChar: guillemotleft
Encoding: 171 171 109
Width: 1066
GlyphClass: 2
Flags: W
DStem2: 322 702 100 687 0.577331 -0.81651<0 409.443> 100 687 322 702 0.5547 0.83205<135.624 553.313> 682 711 460 696 0.577331 -0.81651<0 409.443> 460 696 682 711 0.5547 0.83205<135.624 553.313>
LayerCount: 2
Fore
SplineSet
810 1221 m 1,0,-1
 904 1065 l 1,1,-1
 682 711 l 1,2,-1
 916 375 l 1,3,-1
 810 201 l 1,4,-1
 460 696 l 1,5,-1
 810 1221 l 1,0,-1
450 1212 m 1,6,-1
 544 1056 l 1,7,-1
 322 702 l 1,8,-1
 556 366 l 1,9,-1
 450 192 l 1,10,-1
 100 687 l 1,11,-1
 450 1212 l 1,6,-1
EndSplineSet
Validated: 16385
EndChar

StartChar: logicalnot
Encoding: 172 172 110
Width: 1074
GlyphClass: 2
Flags: W
HStem: 626 172<161 716>
LayerCount: 2
Fore
SplineSet
161 798 m 1,0,-1
 994 798 l 1,1,-1
 790 410 l 1,2,-1
 582 344 l 1,3,-1
 716 626 l 1,4,-1
 80 626 l 1,5,-1
 161 798 l 1,0,-1
EndSplineSet
Validated: 1
EndChar

StartChar: uni00AD
Encoding: 173 173 111
Width: 1074
GlyphClass: 2
Flags: W
HStem: 626 172<161 911>
LayerCount: 2
Fore
SplineSet
161 798 m 1,0,-1
 994 798 l 1,1,-1
 911 626 l 1,2,-1
 80 626 l 1,3,-1
 161 798 l 1,0,-1
EndSplineSet
Validated: 1
EndChar

StartChar: registered
Encoding: 174 174 112
Width: 1261
GlyphClass: 2
Flags: W
HStem: 180 79<444.715 817.12> 1251 80<441.834 819.969>
VStem: 80 74<566.018 943.982> 365 148<393 495.458 560 1084> 833 136<742.375 965.065> 1106 75<560.514 949.908>
DStem2: 652 777 535 707 0.672274 -0.740302<0 106.219 212.363 472.961> 607 599 632 528 0.890435 0.455111<-98.185 20.5789>
LayerCount: 2
Fore
SplineSet
513 1084 m 1,0,-1
 514 560 l 1,1,2
 586 587 586 587 607 599 c 2,3,-1
 625 609 l 1,4,-1
 535 707 l 1,5,-1
 652 777 l 1,6,-1
 737 684 l 1,7,-1
 755 702 l 1,8,9
 833 782 833 782 833 868 c 1,10,11
 832 953 832 953 736 1000 c 0,12,13
 618 1058 618 1058 513 1084 c 1,0,-1
513 1125 m 1,14,-1
 637 1170 l 1,15,-1
 642 1168 l 1,16,17
 807 1107 807 1107 872 1065 c 0,18,19
 969 1002 969 1002 969 877 c 0,20,21
 969 865 969 865 968 846 c 0,22,23
 963 749 963 749 834 649 c 1,24,-1
 795 620 l 1,25,-1
 979 419 l 1,26,27
 1039 486 1039 486 1071 565 c 0,28,29
 1106 651 1106 651 1106 754 c 128,-1,30
 1106 857 1106 857 1071 945 c 0,31,32
 1037 1031 1037 1031 967 1105 c 0,33,34
 898 1178 898 1178 813 1215 c 0,35,36
 728 1251 728 1251 631 1251 c 0,37,38
 533 1251 533 1251 450 1215 c 128,-1,39
 367 1179 367 1179 296 1105 c 0,40,41
 226 1032 226 1032 190 944 c 128,-1,42
 154 856 154 856 154 759 c 2,43,-1
 154 754 l 2,44,45
 154 654 154 654 190 566 c 0,46,47
 224 482 224 482 296 406 c 0,48,49
 329 371 329 371 365 345 c 1,50,-1
 365 1116 l 1,51,-1
 512 1175 l 1,52,-1
 513 1125 l 1,14,-1
631 1331 m 0,53,54
 741 1331 741 1331 841 1288 c 0,55,56
 937 1247 937 1247 1020 1161 c 0,57,58
 1100 1078 1100 1078 1141 975 c 0,59,60
 1181 874 1181 874 1181 754 c 0,61,62
 1181 638 1181 638 1141 535 c 0,63,64
 1103 437 1103 437 1020 350 c 0,65,66
 941 267 941 267 841 223 c 0,67,68
 743 180 743 180 631 180 c 0,69,70
 520 180 520 180 420 223 c 0,71,72
 324 264 324 264 241 350 c 0,73,74
 160 434 160 434 120 535 c 128,-1,75
 80 636 80 636 80 754 c 0,76,77
 80 874 80 874 120 975 c 128,-1,78
 160 1076 160 1076 241 1161 c 0,79,80
 323 1246 323 1246 420 1288.5 c 128,-1,81
 517 1331 517 1331 631 1331 c 0,53,54
914 358 m 1,82,-1
 871 337 l 1,83,-1
 677 551 l 1,84,-1
 632 528 l 1,85,86
 576 501 576 501 513 479 c 1,87,-1
 513 393 l 1,88,-1
 375 337 l 1,89,90
 411 313 411 313 449 296 c 0,91,92
 532 259 532 259 631 259 c 0,93,94
 728 259 728 259 813 296 c 0,95,96
 866 319 866 319 914 358 c 1,82,-1
EndSplineSet
Validated: 16385
EndChar

StartChar: macron
Encoding: 175 175 113
Width: 1074
GlyphClass: 2
Flags: W
HStem: 1341 172<161 911>
LayerCount: 2
Fore
SplineSet
161 1513 m 1,0,-1
 994 1513 l 1,1,-1
 911 1341 l 1,2,-1
 80 1341 l 1,3,-1
 161 1513 l 1,0,-1
EndSplineSet
Validated: 1
EndChar

StartChar: degree
Encoding: 176 176 114
Width: 1122
GlyphClass: 2
Flags: W
HStem: 702 183<433.692 565> 1333 179<561 693.12>
VStem: 150 188<974.703 1151> 776 196<1061 1251.26>
LayerCount: 2
Fore
SplineSet
541 1333 m 1,0,1
 471 1331 471 1331 404.5 1274 c 128,-1,2
 338 1217 338 1217 338 1112 c 0,3,4
 338 1009 338 1009 405 950 c 0,5,6
 478 885 478 885 567 885 c 0,7,8
 569 885 569 885 570 885 c 0,9,10
 647 885 647 885 717 955 c 0,11,12
 776 1014 776 1014 776 1110 c 0,13,14
 776 1111 776 1111 776 1113 c 0,15,16
 776 1207 776 1207 721 1266 c 0,17,18
 659 1333 659 1333 556 1333 c 0,19,20
 553 1333 553 1333 550 1333 c 0,21,22
 541 1333 541 1333 541 1333 c 1,0,1
850 1396 m 0,23,24
 968 1280 968 1280 970 1119 c 1,25,-1
 972 1061 l 1,26,-1
 565 702 l 1,27,28
 391 707 391 707 278 821 c 0,29,30
 157 943 157 943 150 1117 c 1,31,-1
 150 1151 l 1,32,-1
 561 1512 l 1,33,34
 736 1508 736 1508 850 1396 c 0,23,24
EndSplineSet
Validated: 16385
EndChar

StartChar: plusminus
Encoding: 177 177 115
Width: 1074
GlyphClass: 2
Flags: W
HStem: 168 172<161 911> 749 172<161 451 623 911>
VStem: 451 172<459 749 921 1209>
LayerCount: 2
Fore
SplineSet
161 340 m 1,0,-1
 994 340 l 1,1,-1
 911 168 l 1,2,-1
 80 168 l 1,3,-1
 161 340 l 1,0,-1
623 459 m 1,4,-1
 451 378 l 1,5,-1
 451 749 l 1,6,-1
 80 749 l 1,7,-1
 161 921 l 1,8,-1
 451 921 l 1,9,-1
 451 1209 l 1,10,-1
 623 1292 l 1,11,-1
 623 921 l 1,12,-1
 994 921 l 1,13,-1
 911 749 l 1,14,-1
 623 749 l 1,15,-1
 623 459 l 1,4,-1
EndSplineSet
Validated: 16385
EndChar

StartChar: uni00B2
Encoding: 178 178 116
Width: 922
GlyphClass: 2
Flags: W
HStem: 696 136<346 706> 1385 127<442 554.22>
VStem: 158 140<1215 1278> 594 143<1160 1338.81>
DStem2: 202 821 346 832 0.766129 0.642686<117.392 546.763>
LayerCount: 2
Fore
SplineSet
346 832 m 1,0,-1
 772 829 l 1,1,-1
 706 696 l 1,2,-1
 150 696 l 1,3,-1
 202 821 l 1,4,-1
 530 1099 l 1,5,6
 593 1158 593 1158 594 1203 c 1,7,-1
 594 1234 l 2,8,9
 594 1302 594 1302 557 1340 c 0,10,11
 513 1385 513 1385 455 1385 c 2,12,-1
 454 1385 l 1,13,14
 375 1383 375 1383 337 1338 c 0,15,16
 298 1292 298 1292 298 1234 c 2,17,-1
 298 1215 l 1,18,-1
 158 1152 l 1,19,-1
 158 1278 l 1,20,-1
 442 1512 l 1,21,-1
 451 1512 l 2,22,23
 576 1512 576 1512 652 1431 c 0,24,25
 737 1341 737 1341 737 1237 c 2,26,-1
 737 1160 l 1,27,-1
 346 832 l 1,0,-1
EndSplineSet
Validated: 16385
EndChar

StartChar: uni00B3
Encoding: 179 179 117
Width: 884
GlyphClass: 2
Flags: W
HStem: 694 128<328.316 439> 1386 126<228 534>
VStem: 150 140<867.226 976> 579 138<929 1056.94>
DStem2: 534 1386 509 1215 0.598376 0.801215<-151.967 0>
LayerCount: 2
Fore
SplineSet
438 1098 m 0,0,1
 388 1098 388 1098 314 1075 c 2,2,-1
 298 1070 l 1,3,-1
 534 1386 l 1,4,-1
 167 1386 l 1,5,-1
 228 1512 l 1,6,-1
 734 1512 l 1,7,-1
 509 1215 l 1,8,9
 583 1201 583 1201 644 1148 c 0,10,11
 715 1086 715 1086 717 991 c 1,12,-1
 717 929 l 1,13,-1
 439 694 l 1,14,-1
 429 694 l 2,15,16
 317 694 317 694 233 775 c 0,17,18
 150 855 150 855 150 970 c 2,19,-1
 150 976 l 1,20,-1
 290 1036 l 1,21,-1
 290 973 l 2,22,23
 290 905 290 905 327 866 c 0,24,25
 369 822 369 822 426 822 c 2,26,-1
 427 822 l 1,27,28
 495 823 495 823 541 870 c 0,29,30
 579 909 579 909 579 973 c 2,31,-1
 579 988 l 2,32,33
 579 1024 579 1024 551 1058 c 1,34,35
 490 1098 490 1098 438 1098 c 0,0,1
EndSplineSet
Validated: 16385
EndChar

StartChar: acute
Encoding: 180 180 118
Width: 742
GlyphClass: 2
Flags: W
HStem: 1128 384
VStem: 150 442
DStem2: 150 1254 280 1128 0.770645 0.637264<19.8886 404.856>
LayerCount: 2
Fore
SplineSet
462 1512 m 1,0,-1
 592 1386 l 1,1,-1
 280 1128 l 1,2,-1
 150 1254 l 1,3,-1
 462 1512 l 1,0,-1
EndSplineSet
Validated: 16385
EndChar

StartChar: uni00B5
Encoding: 181 181 119
Width: 1080
GlyphClass: 2
Flags: W
HStem: 0 179<405.119 539> 1097 20G<280.889 324 908.022 950>
VStem: 130 194<-260 58 261.534 1027> 758 192<361 1026>
LayerCount: 2
Fore
SplineSet
324 1117 m 1,0,-1
 324 398 l 2,1,2
 324 307 324 307 384 243 c 1,3,4
 442 179 442 179 540 179 c 0,5,6
 627 179 627 179 688 235 c 0,7,8
 758 299 758 299 758 393 c 2,9,-1
 758 396 l 1,10,-1
 759 1026 l 1,11,-1
 950 1117 l 1,12,-1
 950 361 l 1,13,-1
 539 0 l 1,14,15
 417 3 417 3 324 58 c 1,16,-1
 324 -260 l 1,17,-1
 130 -348 l 1,18,-1
 130 1027 l 1,19,-1
 324 1117 l 1,0,-1
EndSplineSet
Validated: 16385
EndChar

StartChar: paragraph
Encoding: 182 182 120
Width: 1102
GlyphClass: 2
Flags: W
HStem: 387 179<393.88 526> 1326 183<522 655.793>
VStem: 115 194<652.165 1150> 745 78<29 579 658.117 1211> 868 74<70 1236.19>
LayerCount: 2
Fore
SplineSet
743 1109 m 2,0,1
 742 1206 742 1206 673 1270 c 0,2,3
 612 1326 612 1326 525 1326 c 0,4,5
 427 1326 427 1326 369 1262 c 1,6,7
 309 1198 309 1198 309 1110 c 2,8,-1
 309 1107 l 1,9,-1
 311 785 l 2,10,11
 312 693 312 693 371 630 c 1,12,13
 429 566 429 566 527 566 c 0,14,15
 614 566 614 566 675 622 c 0,16,17
 745 686 745 686 745 780 c 2,18,-1
 745 783 l 1,19,-1
 743 1109 l 2,0,1
745 -8 m 1,20,-1
 745 579 l 1,21,-1
 526 387 l 1,22,23
 351 391 351 391 237 503 c 0,24,25
 119 619 119 619 117 780 c 1,26,-1
 115 1150 l 1,27,-1
 522 1509 l 1,28,29
 683 1504 683 1504 807 1386 c 128,-1,30
 931 1268 931 1268 937 1110 c 1,31,-1
 942 70 l 1,32,-1
 868 38 l 1,33,-1
 872 1239 l 1,34,-1
 816 1211 l 1,35,-1
 823 29 l 1,36,-1
 745 -8 l 1,20,-1
EndSplineSet
Validated: 16385
EndChar

StartChar: periodcentered
Encoding: 183 183 121
Width: 567
GlyphClass: 2
Flags: W
HStem: 562 445
VStem: 150 266<702 864>
LayerCount: 2
Fore
SplineSet
416 702 m 1,0,-1
 150 562 l 1,1,-1
 151 864 l 1,2,-1
 417 1007 l 1,3,-1
 416 702 l 1,0,-1
EndSplineSet
Validated: 1
EndChar

StartChar: cedilla
Encoding: 184 184 122
Width: 651
GlyphClass: 2
Flags: W
HStem: -393 522
VStem: 150 351
DStem2: 150 -263 276 -393 0.676405 0.73653<0 240.319>
LayerCount: 2
Fore
SplineSet
318 -91 m 1,0,-1
 150 56 l 1,1,-1
 225 129 l 1,2,-1
 501 -148 l 1,3,-1
 276 -393 l 1,4,-1
 150 -263 l 1,5,-1
 318 -91 l 1,0,-1
EndSplineSet
Validated: 1
EndChar

StartChar: uni00B9
Encoding: 185 185 123
Width: 590
GlyphClass: 2
Flags: W
HStem: 1492 20G<371.006 409.973>
VStem: 271 138<778 1347>
DStem2: 100 1353 140 1287 0.889788 0.456375<5.47076 147.636>
LayerCount: 2
Fore
SplineSet
409 778 m 1,0,-1
 271 713 l 1,1,-1
 269 1347 l 1,2,-1
 140 1287 l 1,3,-1
 100 1353 l 1,4,-1
 410 1512 l 1,5,-1
 409 778 l 1,0,-1
EndSplineSet
Validated: 16385
EndChar

StartChar: ordmasculine
Encoding: 186 186 124
Width: 1074
GlyphClass: 2
Flags: W
HStem: 495 172<161 911> 707 131<444.442 558> 1384 128<555 668.862>
VStem: 242 146<889.338 1253> 720 147<965 1333.74>
LayerCount: 2
Fore
SplineSet
161 667 m 1,0,-1
 994 667 l 1,1,-1
 911 495 l 1,2,-1
 80 495 l 1,3,-1
 161 667 l 1,0,-1
390 994 m 2,4,5
 391 925 391 925 443 879 c 0,6,7
 489 838 489 838 552 838 c 0,8,9
 553 838 553 838 555 838 c 0,10,11
 629 838 629 838 674 884 c 0,12,13
 720 930 720 930 720 993 c 2,14,15
 720 993 720 993 720 995 c 2,16,-1
 718 1227 l 2,17,18
 717 1293 717 1293 672 1338 c 1,19,20
 628 1384 628 1384 557 1384 c 2,21,-1
 554 1384 l 1,22,23
 486 1383 486 1383 441 1344 c 0,24,25
 388 1298 388 1298 388 1230 c 2,26,27
 388 1230 388 1230 388 1228 c 2,28,-1
 390 994 l 2,4,5
774 1429 m 0,29,30
 864 1346 864 1346 866 1230 c 1,31,-1
 867 965 l 1,32,-1
 558 707 l 1,33,34
 434 711 434 711 341 795 c 0,35,36
 242 884 242 884 242 1005 c 2,37,-1
 242 1253 l 1,38,-1
 555 1512 l 1,39,40
 687 1509 687 1509 774 1429 c 0,29,30
EndSplineSet
Validated: 16385
EndChar

StartChar: guillemotright
Encoding: 187 187 125
Width: 1066
GlyphClass: 2
Flags: W
DStem2: 256 1212 150 1038 0.577331 -0.81651<80.8758 490.319> 162 348 256 192 0.5547 0.83205<0 417.689> 616 1221 510 1047 0.577331 -0.81651<80.8758 490.319> 522 357 616 201 0.5547 0.83205<0 417.689>
LayerCount: 2
Fore
SplineSet
256 192 m 1,0,-1
 162 348 l 1,1,-1
 384 702 l 1,2,-1
 150 1038 l 1,3,-1
 256 1212 l 1,4,-1
 606 717 l 1,5,-1
 256 192 l 1,0,-1
616 201 m 1,6,-1
 522 357 l 1,7,-1
 744 711 l 1,8,-1
 510 1047 l 1,9,-1
 616 1221 l 1,10,-1
 966 726 l 1,11,-1
 616 201 l 1,6,-1
EndSplineSet
Validated: 16385
EndChar

StartChar: onequarter
Encoding: 188 188 126
Width: 1327
GlyphClass: 2
Flags: W
HStem: 0 21G<981.084 1025.06> 237 117<766 982 1123 1165> 1492 20G<378.006 416.973>
VStem: 278 138<778 1347> 982 141<64 237 354 613>
DStem2: 93 -142 246 -210 0.435903 0.899994<5.49359 1984.44> 107 1353 147 1287 0.889788 0.456375<5.47076 147.636> 657 349 766 352 0.657801 0.753192<73.9599 412.628>
LayerCount: 2
Fore
SplineSet
93 -142 m 1,0,-1
 958 1644 l 1,1,-1
 1112 1578 l 1,2,-1
 246 -210 l 1,3,-1
 93 -142 l 1,0,-1
416 778 m 1,4,-1
 278 713 l 1,5,-1
 276 1347 l 1,6,-1
 147 1287 l 1,7,-1
 107 1353 l 1,8,-1
 417 1512 l 1,9,-1
 416 778 l 1,4,-1
766 352 m 1,10,-1
 982 354 l 1,11,-1
 982 613 l 1,12,-1
 766 352 l 1,10,-1
982 237 m 1,13,-1
 582 237 l 1,14,-1
 656 347 l 1,15,-1
 657 349 l 1,16,-1
 988 728 l 1,17,-1
 1123 789 l 1,18,-1
 1123 354 l 1,19,-1
 1245 355 l 1,20,-1
 1165 238 l 1,21,-1
 1123 238 l 1,22,-1
 1122 64 l 1,23,-1
 981 0 l 1,24,-1
 982 237 l 1,13,-1
EndSplineSet
Validated: 16385
EndChar

StartChar: onehalf
Encoding: 189 189 127
Width: 1566
GlyphClass: 2
Flags: W
HStem: 21 136<990 1350> 710 127<1086 1198.22> 1492 20G<408.006 446.973>
VStem: 308 138<778 1347> 802 140<540 603> 1238 143<485 663.805>
DStem2: 132 -138 285 -206 0.435903 0.899994<5.49359 1984.44> 137 1353 177 1287 0.889788 0.456375<5.47076 147.636> 846 146 990 157 0.766129 0.642686<117.392 546.763>
LayerCount: 2
Fore
SplineSet
990 157 m 1,0,-1
 1416 154 l 1,1,-1
 1350 21 l 1,2,-1
 794 21 l 1,3,-1
 846 146 l 1,4,-1
 1174 424 l 1,5,6
 1237 483 1237 483 1238 528 c 1,7,-1
 1238 559 l 2,8,9
 1238 627 1238 627 1201 665 c 0,10,11
 1157 710 1157 710 1099 710 c 2,12,-1
 1098 710 l 1,13,14
 1019 708 1019 708 981 663 c 0,15,16
 942 617 942 617 942 559 c 2,17,-1
 942 540 l 1,18,-1
 802 477 l 1,19,-1
 802 603 l 1,20,-1
 1086 837 l 1,21,-1
 1095 837 l 2,22,23
 1220 837 1220 837 1296 756 c 0,24,25
 1381 666 1381 666 1381 562 c 2,26,-1
 1381 485 l 1,27,-1
 990 157 l 1,0,-1
132 -138 m 1,28,-1
 997 1648 l 1,29,-1
 1151 1582 l 1,30,-1
 285 -206 l 1,31,-1
 132 -138 l 1,28,-1
446 778 m 1,32,-1
 308 713 l 1,33,-1
 306 1347 l 1,34,-1
 177 1287 l 1,35,-1
 137 1353 l 1,36,-1
 447 1512 l 1,37,-1
 446 778 l 1,32,-1
EndSplineSet
Validated: 16385
EndChar

StartChar: threequarters
Encoding: 190 190 128
Width: 1531
GlyphClass: 2
Flags: W
HStem: 0 21G<1185 1229.06> 237 117<955 1185 1326 1369> 694 128<328.316 439> 1386 126<228 534>
VStem: 150 140<867.226 976> 579 138<929 1056.94> 1185 141<64 237 354 631>
DStem2: 312 -142 465 -210 0.435903 0.899994<5.49359 1984.44> 534 1386 509 1215 0.598376 0.801215<-151.967 0> 861 349 955 353 0.656671 0.754177<64.7438 426.096>
LayerCount: 2
Fore
SplineSet
438 1098 m 0,0,1
 388 1098 388 1098 314 1075 c 2,2,-1
 298 1070 l 1,3,-1
 534 1386 l 1,4,-1
 167 1386 l 1,5,-1
 228 1512 l 1,6,-1
 734 1512 l 1,7,-1
 509 1215 l 1,8,9
 583 1201 583 1201 644 1148 c 0,10,11
 715 1086 715 1086 717 991 c 1,12,-1
 717 929 l 1,13,-1
 439 694 l 1,14,-1
 429 694 l 2,15,16
 317 694 317 694 233 775 c 0,17,18
 150 855 150 855 150 970 c 2,19,-1
 150 976 l 1,20,-1
 290 1036 l 1,21,-1
 290 973 l 2,22,23
 290 905 290 905 327 866 c 0,24,25
 369 822 369 822 426 822 c 2,26,-1
 427 822 l 1,27,28
 495 823 495 823 541 870 c 0,29,30
 579 909 579 909 579 973 c 2,31,-1
 579 988 l 2,32,33
 579 1024 579 1024 551 1058 c 1,34,35
 490 1098 490 1098 438 1098 c 0,0,1
312 -142 m 1,36,-1
 1177 1644 l 1,37,-1
 1331 1578 l 1,38,-1
 465 -210 l 1,39,-1
 312 -142 l 1,36,-1
955 353 m 1,40,-1
 1185 354 l 1,41,-1
 1186 631 l 1,42,-1
 955 353 l 1,40,-1
1185 237 m 1,43,-1
 785 237 l 1,44,-1
 860 347 l 1,45,-1
 861 349 l 1,46,-1
 1191 728 l 1,47,-1
 1327 789 l 1,48,-1
 1326 354 l 1,49,-1
 1449 355 l 1,50,-1
 1369 238 l 1,51,-1
 1326 238 l 1,52,-1
 1326 64 l 1,53,-1
 1185 0 l 1,54,-1
 1185 237 l 1,43,-1
EndSplineSet
Validated: 16385
EndChar

StartChar: questiondown
Encoding: 191 191 129
Width: 1288
GlyphClass: 2
Flags: W
HStem: 0 185<489.062 644> 1203 218<518 736> 1305 208<508 716>
VStem: 150 202<319.708 627> 518 198<1017 1104 1305 1421> 940 198<430 517>
DStem2: 150 627 718 1017 0.767359 0.641218<233.698 474.427>
LayerCount: 2
Fore
SplineSet
518 1421 m 1,0,-1
 716 1513 l 1,1,-1
 716 1305 l 1,2,-1
 518 1203 l 1,3,-1
 518 1421 l 1,0,-1
718 1017 m 1,4,-1
 476 817 l 1,5,6
 355 695 355 695 352 559 c 1,7,-1
 352 500 l 2,8,9
 352 358 352 358 428 278 c 0,10,11
 515 185 515 185 630 185 c 2,12,-1
 632 185 l 1,13,14
 782 188 782 188 862 284 c 0,15,16
 940 378 940 378 940 500 c 2,17,-1
 940 517 l 1,18,-1
 1138 612 l 1,19,-1
 1138 430 l 1,20,-1
 644 0 l 1,21,22
 640 0 640 0 637 0 c 0,23,24
 424 0 424 0 295 145 c 0,25,26
 150 309 150 309 150 494 c 2,27,-1
 150 627 l 1,28,-1
 442 871 l 1,29,30
 520 965 520 965 520 1087 c 2,31,-1
 520 1104 l 1,32,-1
 718 1199 l 1,33,-1
 718 1017 l 1,4,-1
EndSplineSet
Validated: 16385
EndChar

StartChar: Agrave
Encoding: 192 192 130
Width: 1392
GlyphClass: 2
Flags: W
HStem: 0 21G<201.046 244.696 990 1034.4> 439 182<149 202 402 837> 1325 185<698 856.48>
VStem: 203 199<92 439 621 1080> 990 202<91 1188.76>
DStem2: 520 1983 390 1857 0.770645 -0.637264<0 384.967>
LayerCount: 2
Fore
SplineSet
520 1983 m 1,0,-1
 832 1725 l 1,1,-1
 702 1599 l 1,2,-1
 390 1857 l 1,3,-1
 520 1983 l 1,0,-1
990 0 m 1,4,-1
 990 1010 l 2,5,6
 990 1149 990 1149 914 1232 c 1,7,8
 827 1325 827 1325 712 1325 c 2,9,-1
 710 1325 l 1,10,11
 579 1322 579 1322 480 1226 c 0,12,13
 402 1151 402 1151 402 1010 c 2,14,-1
 402 621 l 1,15,-1
 923 621 l 1,16,-1
 837 441 l 1,17,-1
 402 440 l 1,18,-1
 402 92 l 1,19,-1
 201 0 l 1,20,-1
 202 439 l 1,21,-1
 55 439 l 1,22,-1
 149 621 l 1,23,-1
 203 621 l 1,24,-1
 204 1080 l 1,25,-1
 698 1510 l 1,26,-1
 705 1510 l 2,27,28
 902 1510 902 1510 1047 1365 c 128,-1,29
 1192 1220 1192 1220 1192 1016 c 2,30,-1
 1192 91 l 1,31,-1
 990 0 l 1,4,-1
EndSplineSet
Validated: 1
EndChar

StartChar: Aacute
Encoding: 193 193 131
Width: 1392
GlyphClass: 2
Flags: W
HStem: 0 21G<201.046 244.696 990 1034.4> 439 182<149 202 402 837> 1325 185<698 856.48>
VStem: 203 199<92 439 621 1080> 990 202<91 1188.76>
DStem2: 572 1725 702 1599 0.770645 0.637264<19.8886 404.856>
LayerCount: 2
Fore
SplineSet
884 1983 m 1,0,-1
 1014 1857 l 1,1,-1
 702 1599 l 1,2,-1
 572 1725 l 1,3,-1
 884 1983 l 1,0,-1
990 0 m 1,4,-1
 990 1010 l 2,5,6
 990 1149 990 1149 914 1232 c 1,7,8
 827 1325 827 1325 712 1325 c 2,9,-1
 710 1325 l 1,10,11
 579 1322 579 1322 480 1226 c 0,12,13
 402 1151 402 1151 402 1010 c 2,14,-1
 402 621 l 1,15,-1
 923 621 l 1,16,-1
 837 441 l 1,17,-1
 402 440 l 1,18,-1
 402 92 l 1,19,-1
 201 0 l 1,20,-1
 202 439 l 1,21,-1
 55 439 l 1,22,-1
 149 621 l 1,23,-1
 203 621 l 1,24,-1
 204 1080 l 1,25,-1
 698 1510 l 1,26,-1
 705 1510 l 2,27,28
 902 1510 902 1510 1047 1365 c 128,-1,29
 1192 1220 1192 1220 1192 1016 c 2,30,-1
 1192 91 l 1,31,-1
 990 0 l 1,4,-1
EndSplineSet
Validated: 1
EndChar

StartChar: Acircumflex
Encoding: 194 194 132
Width: 1392
GlyphClass: 2
Flags: W
HStem: 0 21G<201.046 244.696 990 1034.4> 439 182<149 202 402 837> 1325 185<698 856.48>
VStem: 203 199<92 439 621 1080> 990 202<91 1188.76>
DStem2: 378 1728 451 1653 0.770645 0.637264<8.46228 244.309> 690 1986 633 1803 0.770645 -0.637264<72.6926 384.967>
LayerCount: 2
Fore
SplineSet
633 1803 m 1,0,-1
 451 1653 l 1,1,-1
 378 1728 l 1,2,-1
 690 1986 l 1,3,-1
 1002 1728 l 1,4,-1
 872 1602 l 1,5,-1
 633 1803 l 1,0,-1
990 0 m 1,6,-1
 990 1010 l 2,7,8
 990 1149 990 1149 914 1232 c 1,9,10
 827 1325 827 1325 712 1325 c 2,11,-1
 710 1325 l 1,12,13
 579 1322 579 1322 480 1226 c 0,14,15
 402 1151 402 1151 402 1010 c 2,16,-1
 402 621 l 1,17,-1
 923 621 l 1,18,-1
 837 441 l 1,19,-1
 402 440 l 1,20,-1
 402 92 l 1,21,-1
 201 0 l 1,22,-1
 202 439 l 1,23,-1
 55 439 l 1,24,-1
 149 621 l 1,25,-1
 203 621 l 1,26,-1
 204 1080 l 1,27,-1
 698 1510 l 1,28,-1
 705 1510 l 2,29,30
 902 1510 902 1510 1047 1365 c 128,-1,31
 1192 1220 1192 1220 1192 1016 c 2,32,-1
 1192 91 l 1,33,-1
 990 0 l 1,6,-1
EndSplineSet
Validated: 1
EndChar

StartChar: Atilde
Encoding: 195 195 133
Width: 1392
GlyphClass: 2
Flags: W
HStem: 0 21G<201.046 244.696 990 1034.4> 439 182<149 202 402 837> 1325 185<698 856.48>
VStem: 203 199<92 439 621 1080> 990 202<91 1188.76>
DStem2: 337 1761 467 1635 0.787228 0.616662<24.6402 260.415> 759 1799 831 1635 0.787228 0.616662<0 235.775>
LayerCount: 2
Fore
SplineSet
649 1785 m 1,0,-1
 467 1635 l 1,1,-1
 337 1761 l 1,2,-1
 577 1949 l 1,3,-1
 759 1799 l 1,4,-1
 941 1949 l 1,5,-1
 1071 1823 l 1,6,-1
 831 1635 l 1,7,-1
 649 1785 l 1,0,-1
990 0 m 1,8,-1
 990 1010 l 2,9,10
 990 1149 990 1149 914 1232 c 1,11,12
 827 1325 827 1325 712 1325 c 2,13,-1
 710 1325 l 1,14,15
 579 1322 579 1322 480 1226 c 0,16,17
 402 1151 402 1151 402 1010 c 2,18,-1
 402 621 l 1,19,-1
 923 621 l 1,20,-1
 837 441 l 1,21,-1
 402 440 l 1,22,-1
 402 92 l 1,23,-1
 201 0 l 1,24,-1
 202 439 l 1,25,-1
 55 439 l 1,26,-1
 149 621 l 1,27,-1
 203 621 l 1,28,-1
 204 1080 l 1,29,-1
 698 1510 l 1,30,-1
 705 1510 l 2,31,32
 902 1510 902 1510 1047 1365 c 128,-1,33
 1192 1220 1192 1220 1192 1016 c 2,34,-1
 1192 91 l 1,35,-1
 990 0 l 1,8,-1
EndSplineSet
Validated: 1
EndChar

StartChar: Adieresis
Encoding: 196 196 134
Width: 1392
GlyphClass: 2
Flags: W
HStem: 0 21G<201.046 244.696 990 1034.4> 439 182<149 202 402 837> 1325 185<698 856.48>
VStem: 203 199<92 439 621 1080> 414 224<1732 1869> 740 224<1732 1869> 990 202<91 1188.76>
LayerCount: 2
Fore
SplineSet
964 1732 m 1,0,-1
 740 1614 l 1,1,-1
 741 1869 l 1,2,-1
 965 1989 l 1,3,-1
 964 1732 l 1,0,-1
638 1732 m 1,4,-1
 414 1614 l 1,5,-1
 415 1869 l 1,6,-1
 639 1989 l 1,7,-1
 638 1732 l 1,4,-1
990 0 m 1,8,-1
 990 1010 l 2,9,10
 990 1149 990 1149 914 1232 c 1,11,12
 827 1325 827 1325 712 1325 c 2,13,-1
 710 1325 l 1,14,15
 579 1322 579 1322 480 1226 c 0,16,17
 402 1151 402 1151 402 1010 c 2,18,-1
 402 621 l 1,19,-1
 923 621 l 1,20,-1
 837 441 l 1,21,-1
 402 440 l 1,22,-1
 402 92 l 1,23,-1
 201 0 l 1,24,-1
 202 439 l 1,25,-1
 55 439 l 1,26,-1
 149 621 l 1,27,-1
 203 621 l 1,28,-1
 204 1080 l 1,29,-1
 698 1510 l 1,30,-1
 705 1510 l 2,31,32
 902 1510 902 1510 1047 1365 c 128,-1,33
 1192 1220 1192 1220 1192 1016 c 2,34,-1
 1192 91 l 1,35,-1
 990 0 l 1,8,-1
EndSplineSet
Validated: 1
EndChar

StartChar: Aring
Encoding: 197 197 135
Width: 1392
GlyphClass: 2
Flags: W
HStem: 0 21G<201.046 244.696 990 1034.4> 439 182<149 202 402 837> 1325 185<698 856.48> 1608 131<610.789 707> 1965 129<704 781.995>
VStem: 203 199<92 439 621 1080> 441 146<1765.59 1877> 811 156<1823 1930.21> 990 202<91 1188.76>
LayerCount: 2
Fore
SplineSet
587 1845 m 0,0,1
 587 1801 587 1801 621 1772 c 0,2,3
 660 1739 660 1739 704 1739 c 2,4,5
 704 1739 704 1739 705 1739 c 0,6,7
 745 1739 745 1739 781 1774 c 0,8,9
 811 1803 811 1803 811 1852 c 2,10,11
 811 1852 811 1852 811 1854 c 0,12,13
 807 1906 807 1906 783 1931 c 0,14,15
 751 1965 751 1965 698 1965 c 2,16,17
 698 1965 698 1965 695 1965 c 2,18,19
 695 1965 695 1965 691 1965 c 0,20,21
 655 1964 655 1964 621 1931 c 128,-1,22
 587 1898 587 1898 587 1845 c 0,0,1
889 2024 m 0,23,24
 965 1955 965 1955 966 1858 c 1,25,-1
 967 1823 l 1,26,-1
 707 1608 l 1,27,28
 595 1611 595 1611 523 1679 c 0,29,30
 446 1752 446 1752 441 1857 c 1,31,-1
 441 1877 l 1,32,-1
 704 2094 l 1,33,34
 814 2092 814 2092 889 2024 c 0,23,24
990 0 m 1,35,-1
 990 1010 l 2,36,37
 990 1149 990 1149 914 1232 c 1,38,39
 827 1325 827 1325 712 1325 c 2,40,-1
 710 1325 l 1,41,42
 579 1322 579 1322 480 1226 c 0,43,44
 402 1151 402 1151 402 1010 c 2,45,-1
 402 621 l 1,46,-1
 923 621 l 1,47,-1
 837 441 l 1,48,-1
 402 440 l 1,49,-1
 402 92 l 1,50,-1
 201 0 l 1,51,-1
 202 439 l 1,52,-1
 55 439 l 1,53,-1
 149 621 l 1,54,-1
 203 621 l 1,55,-1
 204 1080 l 1,56,-1
 698 1510 l 1,57,-1
 705 1510 l 2,58,59
 902 1510 902 1510 1047 1365 c 128,-1,60
 1192 1220 1192 1220 1192 1016 c 2,61,-1
 1192 91 l 1,62,-1
 990 0 l 1,35,-1
EndSplineSet
Validated: 1
EndChar

StartChar: AE
Encoding: 198 198 136
Width: 1931
GlyphClass: 2
Flags: W
HStem: 0 21G<201.046 244.696> 20 182<941 988 1192 1789> 439 182<149 202 402 988 1192 1684> 1321 170<1191 1689> 1325 185<698 856.891>
VStem: 203 199<92 439 621 1080> 988 204<202 439 621 1193.01>
LayerCount: 2
Fore
SplineSet
201 0 m 1,0,-1
 202 439 l 1,1,-1
 55 439 l 1,2,-1
 149 621 l 1,3,-1
 203 621 l 1,4,-1
 204 1080 l 1,5,-1
 698 1510 l 1,6,-1
 705 1510 l 2,7,8
 872 1510 872 1510 1002 1406 c 1,9,-1
 1191 1491 l 1,10,-1
 1775 1490 l 1,11,-1
 1689 1323 l 1,12,-1
 1189 1321 l 1,13,-1
 1192 621 l 1,14,-1
 1770 621 l 1,15,-1
 1684 441 l 1,16,-1
 1192 440 l 1,17,-1
 1192 202 l 1,18,-1
 1881 202 l 1,19,-1
 1789 20 l 1,20,-1
 847 20 l 1,21,-1
 941 202 l 1,22,-1
 988 202 l 1,23,-1
 988 439 l 1,24,-1
 402 440 l 1,25,-1
 402 92 l 1,26,-1
 201 0 l 1,0,-1
989 621 m 1,27,-1
 990 1010 l 2,28,29
 990 1149 990 1149 914 1232 c 1,30,31
 827 1325 827 1325 712 1325 c 2,32,-1
 710 1325 l 1,33,34
 579 1322 579 1322 480 1226 c 0,35,36
 402 1151 402 1151 402 1010 c 2,37,-1
 402 621 l 1,38,-1
 989 621 l 1,27,-1
EndSplineSet
Validated: 1
EndChar

StartChar: Ccedilla
Encoding: 199 199 137
Width: 1388
GlyphClass: 2
Flags: W
HStem: -393 21G<657.615 695.367> 1325 185<694 852.208>
VStem: 200 198<333.684 1080> 986 202<432 510 1011 1188.31>
LayerCount: 2
Fore
SplineSet
986 510 m 1,0,-1
 1188 602 l 1,1,-1
 1188 432 l 1,2,-1
 726 28 l 1,3,-1
 902 -148 l 1,4,-1
 677 -393 l 1,5,-1
 551 -263 l 1,6,-1
 719 -91 l 1,7,-1
 609 5 l 1,8,9
 452 28 452 28 345 145 c 0,10,11
 200 304 200 304 200 494 c 2,12,-1
 200 1080 l 1,13,-1
 694 1510 l 1,14,-1
 701 1510 l 2,15,16
 909 1510 909 1510 1043 1365 c 0,17,18
 1188 1208 1188 1208 1188 1016 c 2,19,-1
 1188 1011 l 1,20,-1
 986 920 l 1,21,-1
 986 1010 l 2,22,23
 986 1151 986 1151 910 1232 c 0,24,25
 822 1325 822 1325 708 1325 c 2,26,-1
 706 1325 l 1,27,28
 561 1322 561 1322 476 1226 c 0,29,30
 398 1138 398 1138 398 1010 c 2,31,-1
 398 500 l 2,32,33
 398 372 398 372 480 282 c 0,34,35
 566 188 566 188 692 188 c 128,-1,36
 818 188 818 188 908 284 c 0,37,38
 983 364 983 364 986 500 c 1,39,-1
 986 510 l 1,0,-1
EndSplineSet
Validated: 1
EndChar

StartChar: Egrave
Encoding: 200 200 138
Width: 1139
GlyphClass: 2
Flags: W
HStem: 20 182<149 201 397 997> 439 182<149 201 397 892> 1321 170<399 897>
VStem: 201 196<202 439 621 1321>
DStem2: 520 1983 390 1857 0.770645 -0.637264<0 384.967>
LayerCount: 2
Fore
SplineSet
520 1983 m 1,0,-1
 832 1725 l 1,1,-1
 702 1599 l 1,2,-1
 390 1857 l 1,3,-1
 520 1983 l 1,0,-1
201 439 m 1,4,-1
 55 439 l 1,5,-1
 149 621 l 1,6,-1
 201 621 l 1,7,-1
 201 1402 l 1,8,-1
 399 1491 l 1,9,-1
 983 1490 l 1,10,-1
 897 1323 l 1,11,-1
 397 1321 l 1,12,-1
 397 621 l 1,13,-1
 978 621 l 1,14,-1
 892 441 l 1,15,-1
 397 440 l 1,16,-1
 397 202 l 1,17,-1
 1089 202 l 1,18,-1
 997 20 l 1,19,-1
 55 20 l 1,20,-1
 149 202 l 1,21,-1
 201 202 l 1,22,-1
 201 439 l 1,4,-1
EndSplineSet
Validated: 1
EndChar

StartChar: Eacute
Encoding: 201 201 139
Width: 1139
GlyphClass: 2
Flags: W
HStem: 20 182<149 201 397 997> 439 182<149 201 397 892> 1321 170<399 897>
VStem: 201 196<202 439 621 1321>
DStem2: 572 1725 702 1599 0.770645 0.637264<19.8886 404.856>
LayerCount: 2
Fore
SplineSet
884 1983 m 1,0,-1
 1014 1857 l 1,1,-1
 702 1599 l 1,2,-1
 572 1725 l 1,3,-1
 884 1983 l 1,0,-1
201 439 m 1,4,-1
 55 439 l 1,5,-1
 149 621 l 1,6,-1
 201 621 l 1,7,-1
 201 1402 l 1,8,-1
 399 1491 l 1,9,-1
 983 1490 l 1,10,-1
 897 1323 l 1,11,-1
 397 1321 l 1,12,-1
 397 621 l 1,13,-1
 978 621 l 1,14,-1
 892 441 l 1,15,-1
 397 440 l 1,16,-1
 397 202 l 1,17,-1
 1089 202 l 1,18,-1
 997 20 l 1,19,-1
 55 20 l 1,20,-1
 149 202 l 1,21,-1
 201 202 l 1,22,-1
 201 439 l 1,4,-1
EndSplineSet
Validated: 1
EndChar

StartChar: Ecircumflex
Encoding: 202 202 140
Width: 1139
GlyphClass: 2
Flags: W
HStem: 20 182<149 201 397 997> 439 182<149 201 397 892> 1321 170<399 897>
VStem: 201 196<202 439 621 1321>
DStem2: 378 1728 451 1653 0.770645 0.637264<8.46228 244.309> 690 1986 633 1803 0.770645 -0.637264<72.6926 384.967>
LayerCount: 2
Fore
SplineSet
633 1803 m 1,0,-1
 451 1653 l 1,1,-1
 378 1728 l 1,2,-1
 690 1986 l 1,3,-1
 1002 1728 l 1,4,-1
 872 1602 l 1,5,-1
 633 1803 l 1,0,-1
201 439 m 1,6,-1
 55 439 l 1,7,-1
 149 621 l 1,8,-1
 201 621 l 1,9,-1
 201 1402 l 1,10,-1
 399 1491 l 1,11,-1
 983 1490 l 1,12,-1
 897 1323 l 1,13,-1
 397 1321 l 1,14,-1
 397 621 l 1,15,-1
 978 621 l 1,16,-1
 892 441 l 1,17,-1
 397 440 l 1,18,-1
 397 202 l 1,19,-1
 1089 202 l 1,20,-1
 997 20 l 1,21,-1
 55 20 l 1,22,-1
 149 202 l 1,23,-1
 201 202 l 1,24,-1
 201 439 l 1,6,-1
EndSplineSet
Validated: 1
EndChar

StartChar: Edieresis
Encoding: 203 203 141
Width: 1139
GlyphClass: 2
Flags: W
HStem: 20 182<149 201 397 997> 439 182<149 201 397 892> 1321 170<399 897>
VStem: 201 196<202 439 621 1321> 414 224<1732 1869> 740 224<1732 1869>
LayerCount: 2
Fore
SplineSet
964 1732 m 1,0,-1
 740 1614 l 1,1,-1
 741 1869 l 1,2,-1
 965 1989 l 1,3,-1
 964 1732 l 1,0,-1
638 1732 m 1,4,-1
 414 1614 l 1,5,-1
 415 1869 l 1,6,-1
 639 1989 l 1,7,-1
 638 1732 l 1,4,-1
201 439 m 1,8,-1
 55 439 l 1,9,-1
 149 621 l 1,10,-1
 201 621 l 1,11,-1
 201 1402 l 1,12,-1
 399 1491 l 1,13,-1
 983 1490 l 1,14,-1
 897 1323 l 1,15,-1
 397 1321 l 1,16,-1
 397 621 l 1,17,-1
 978 621 l 1,18,-1
 892 441 l 1,19,-1
 397 440 l 1,20,-1
 397 202 l 1,21,-1
 1089 202 l 1,22,-1
 997 20 l 1,23,-1
 55 20 l 1,24,-1
 149 202 l 1,25,-1
 201 202 l 1,26,-1
 201 439 l 1,8,-1
EndSplineSet
Validated: 1
EndChar

StartChar: Igrave
Encoding: 204 204 142
Width: 647
GlyphClass: 2
Flags: W
HStem: 0 21G<221 264.043> 1491 20G<374.506 419>
VStem: 221 198<92 1422>
DStem2: 135 1986 5 1860 0.770645 -0.637264<0 384.967>
LayerCount: 2
Fore
SplineSet
135 1986 m 1,0,-1
 447 1728 l 1,1,-1
 317 1602 l 1,2,-1
 5 1860 l 1,3,-1
 135 1986 l 1,0,-1
419 92 m 1,4,-1
 221 0 l 1,5,-1
 221 1422 l 1,6,-1
 419 1511 l 1,7,-1
 419 92 l 1,4,-1
EndSplineSet
Validated: 1
EndChar

StartChar: Iacute
Encoding: 205 205 143
Width: 647
GlyphClass: 2
Flags: W
HStem: 0 21G<225 268.043> 1491 20G<378.506 423>
VStem: 225 198<92 1422>
DStem2: 200 1731 330 1605 0.770645 0.637264<19.8886 404.856>
LayerCount: 2
Fore
SplineSet
512 1989 m 1,0,-1
 642 1863 l 1,1,-1
 330 1605 l 1,2,-1
 200 1731 l 1,3,-1
 512 1989 l 1,0,-1
423 92 m 1,4,-1
 225 0 l 1,5,-1
 225 1422 l 1,6,-1
 423 1511 l 1,7,-1
 423 92 l 1,4,-1
EndSplineSet
Validated: 1
EndChar

StartChar: Icircumflex
Encoding: 206 206 144
Width: 634
GlyphClass: 2
Flags: W
HStem: 0 21G<220 263.043> 1491 20G<373.506 418>
VStem: 220 198<92 1422>
DStem2: 5 1728 78 1653 0.770645 0.637264<8.46228 244.309> 317 1986 260 1803 0.770645 -0.637264<72.6926 384.967>
LayerCount: 2
Fore
SplineSet
260 1803 m 1,0,-1
 78 1653 l 1,1,-1
 5 1728 l 1,2,-1
 317 1986 l 1,3,-1
 629 1728 l 1,4,-1
 499 1602 l 1,5,-1
 260 1803 l 1,0,-1
418 92 m 1,6,-1
 220 0 l 1,7,-1
 220 1422 l 1,8,-1
 418 1511 l 1,9,-1
 418 92 l 1,6,-1
EndSplineSet
Validated: 1
EndChar

StartChar: Idieresis
Encoding: 207 207 145
Width: 611
GlyphClass: 2
Flags: W
HStem: 0 21G<207 250.043> 1491 20G<360.506 405>
VStem: 30 224<1735 1872> 207 198<92 1422> 356 224<1735 1872>
LayerCount: 2
Fore
SplineSet
580 1735 m 1,0,-1
 356 1617 l 1,1,-1
 357 1872 l 1,2,-1
 581 1992 l 1,3,-1
 580 1735 l 1,0,-1
254 1735 m 1,4,-1
 30 1617 l 1,5,-1
 31 1872 l 1,6,-1
 255 1992 l 1,7,-1
 254 1735 l 1,4,-1
405 92 m 1,8,-1
 207 0 l 1,9,-1
 207 1422 l 1,10,-1
 405 1511 l 1,11,-1
 405 92 l 1,8,-1
EndSplineSet
Validated: 1
EndChar

StartChar: Eth
Encoding: 208 208 146
Width: 1295
GlyphClass: 2
Flags: W
HStem: 0 21G<201 297.923> 439 181<149 201 397 696> 1494 17G<352.955 397 592.226 740>
VStem: 201 196<138 439 620 1422> 989 186<558.498 1014.92>
LayerCount: 2
Fore
SplineSet
397 439 m 1,0,-1
 397 138 l 1,1,2
 539 170 539 170 630 211 c 1,3,4
 806 304 806 304 907 466 c 0,5,6
 984 590 984 590 989 782 c 1,7,8
 989 834 989 834 987 852 c 0,9,10
 962 1073 962 1073 801 1202 c 0,11,12
 678 1301 678 1301 424 1385 c 1,13,-1
 401 1390 l 1,14,-1
 629 1514 l 1,15,16
 851 1429 851 1429 985 1298 c 0,17,18
 1155 1132 1155 1132 1175 850 c 1,19,-1
 1175 847 l 2,20,21
 1175 542 1175 542 1023 363 c 0,22,23
 895 212 895 212 659 122 c 0,24,25
 500 62 500 62 390 39 c 2,26,-1
 201 0 l 1,27,-1
 201 439 l 1,28,-1
 55 439 l 1,29,-1
 149 621 l 1,30,-1
 201 620 l 1,31,-1
 201 1422 l 1,32,-1
 397 1511 l 1,33,-1
 397 620 l 1,34,-1
 782 620 l 1,35,-1
 696 440 l 1,36,-1
 397 439 l 1,0,-1
EndSplineSet
Validated: 1
EndChar

StartChar: Ntilde
Encoding: 209 209 147
Width: 1391
GlyphClass: 2
Flags: W
HStem: 0 21G<200.056 243.696 989 1033.4> 1325 185<697 855.48>
VStem: 200 201<92 1080> 989 202<91 1188.76>
DStem2: 336 1761 466 1635 0.787228 0.616662<24.6402 260.415> 758 1799 830 1635 0.787228 0.616662<0 235.775>
LayerCount: 2
Fore
SplineSet
648 1785 m 1,0,-1
 466 1635 l 1,1,-1
 336 1761 l 1,2,-1
 576 1949 l 1,3,-1
 758 1799 l 1,4,-1
 940 1949 l 1,5,-1
 1070 1823 l 1,6,-1
 830 1635 l 1,7,-1
 648 1785 l 1,0,-1
989 0 m 1,8,-1
 989 1010 l 2,9,10
 989 1149 989 1149 913 1232 c 1,11,12
 826 1325 826 1325 711 1325 c 2,13,-1
 709 1325 l 1,14,15
 578 1322 578 1322 479 1226 c 0,16,17
 401 1151 401 1151 401 1010 c 2,18,-1
 401 92 l 1,19,-1
 200 0 l 1,20,-1
 203 1080 l 1,21,-1
 697 1510 l 1,22,23
 701 1510 701 1510 704 1510 c 0,24,25
 901 1510 901 1510 1046 1365 c 256,26,27
 1191 1220 1191 1220 1191 1016 c 2,28,-1
 1191 91 l 1,29,-1
 989 0 l 1,8,-1
EndSplineSet
Validated: 1
EndChar

StartChar: Ograve
Encoding: 210 210 148
Width: 1388
GlyphClass: 2
Flags: W
HStem: 0 188<540.938 694> 1325 185<694 852.48>
VStem: 200 198<333.191 1080> 986 202<432 1188.76>
DStem2: 519 1983 389 1857 0.770645 -0.637264<0 384.967>
LayerCount: 2
Fore
SplineSet
519 1983 m 1,0,-1
 831 1725 l 1,1,-1
 701 1599 l 1,2,-1
 389 1857 l 1,3,-1
 519 1983 l 1,0,-1
706 1325 m 1,4,5
 561 1322 561 1322 476 1226 c 0,6,7
 398 1138 398 1138 398 1010 c 2,8,-1
 398 500 l 2,9,10
 398 372 398 372 480 282 c 0,11,12
 566 188 566 188 692 188 c 128,-1,13
 818 188 818 188 908 284 c 0,14,15
 983 364 983 364 986 500 c 1,16,-1
 986 1010 l 2,17,18
 986 1151 986 1151 910 1232 c 0,19,20
 823 1325 823 1325 708 1325 c 2,21,-1
 706 1325 l 1,4,5
694 0 m 1,22,-1
 687 0 l 2,23,24
 478 0 478 0 345 145 c 0,25,26
 200 303 200 303 200 494 c 2,27,-1
 200 1080 l 1,28,-1
 694 1510 l 1,29,30
 698 1510 698 1510 701 1510 c 0,31,32
 898 1510 898 1510 1043 1365 c 256,33,34
 1188 1220 1188 1220 1188 1016 c 2,35,-1
 1188 432 l 1,36,-1
 694 0 l 1,22,-1
EndSplineSet
Validated: 1
EndChar

StartChar: Oacute
Encoding: 211 211 149
Width: 1388
GlyphClass: 2
Flags: W
HStem: 0 188<540.938 694> 1325 185<694 852.48>
VStem: 200 198<333.191 1080> 986 202<432 1188.76>
DStem2: 571 1725 701 1599 0.770645 0.637264<19.8886 404.856>
LayerCount: 2
Fore
SplineSet
706 1325 m 1,0,1
 561 1322 561 1322 476 1226 c 0,2,3
 398 1138 398 1138 398 1010 c 2,4,-1
 398 500 l 2,5,6
 398 372 398 372 480 282 c 0,7,8
 566 188 566 188 692 188 c 128,-1,9
 818 188 818 188 908 284 c 0,10,11
 983 364 983 364 986 500 c 1,12,-1
 986 1010 l 2,13,14
 986 1151 986 1151 910 1232 c 0,15,16
 823 1325 823 1325 708 1325 c 2,17,-1
 706 1325 l 1,0,1
694 0 m 1,18,-1
 687 0 l 2,19,20
 478 0 478 0 345 145 c 0,21,22
 200 303 200 303 200 494 c 2,23,-1
 200 1080 l 1,24,-1
 694 1510 l 1,25,26
 698 1510 698 1510 701 1510 c 0,27,28
 898 1510 898 1510 1043 1365 c 256,29,30
 1188 1220 1188 1220 1188 1016 c 2,31,-1
 1188 432 l 1,32,-1
 694 0 l 1,18,-1
883 1983 m 1,33,-1
 1013 1857 l 1,34,-1
 701 1599 l 1,35,-1
 571 1725 l 1,36,-1
 883 1983 l 1,33,-1
EndSplineSet
Validated: 1
EndChar

StartChar: Ocircumflex
Encoding: 212 212 150
Width: 1388
GlyphClass: 2
Flags: W
HStem: 0 188<540.938 694> 1325 185<694 852.48>
VStem: 200 198<333.191 1080> 986 202<432 1188.76>
DStem2: 377 1728 450 1653 0.770645 0.637264<8.46228 244.309> 689 1986 632 1803 0.770645 -0.637264<72.6926 384.967>
LayerCount: 2
Fore
SplineSet
632 1803 m 1,0,-1
 450 1653 l 1,1,-1
 377 1728 l 1,2,-1
 689 1986 l 1,3,-1
 1001 1728 l 1,4,-1
 871 1602 l 1,5,-1
 632 1803 l 1,0,-1
706 1325 m 1,6,7
 561 1322 561 1322 476 1226 c 0,8,9
 398 1138 398 1138 398 1010 c 2,10,-1
 398 500 l 2,11,12
 398 372 398 372 480 282 c 0,13,14
 566 188 566 188 692 188 c 128,-1,15
 818 188 818 188 908 284 c 0,16,17
 983 364 983 364 986 500 c 1,18,-1
 986 1010 l 2,19,20
 986 1151 986 1151 910 1232 c 0,21,22
 823 1325 823 1325 708 1325 c 2,23,-1
 706 1325 l 1,6,7
694 0 m 1,24,-1
 687 0 l 2,25,26
 478 0 478 0 345 145 c 0,27,28
 200 303 200 303 200 494 c 2,29,-1
 200 1080 l 1,30,-1
 694 1510 l 1,31,32
 698 1510 698 1510 701 1510 c 0,33,34
 898 1510 898 1510 1043 1365 c 256,35,36
 1188 1220 1188 1220 1188 1016 c 2,37,-1
 1188 432 l 1,38,-1
 694 0 l 1,24,-1
EndSplineSet
Validated: 1
EndChar

StartChar: Otilde
Encoding: 213 213 151
Width: 1388
GlyphClass: 2
Flags: W
HStem: 0 188<540.938 694> 1325 185<694 852.48>
VStem: 200 198<333.191 1080> 986 202<432 1188.76>
DStem2: 336 1761 466 1635 0.787228 0.616662<24.6402 260.415> 758 1799 830 1635 0.787228 0.616662<0 235.775>
LayerCount: 2
Fore
SplineSet
648 1785 m 1,0,-1
 466 1635 l 1,1,-1
 336 1761 l 1,2,-1
 576 1949 l 1,3,-1
 758 1799 l 1,4,-1
 940 1949 l 1,5,-1
 1070 1823 l 1,6,-1
 830 1635 l 1,7,-1
 648 1785 l 1,0,-1
706 1325 m 1,8,9
 561 1322 561 1322 476 1226 c 0,10,11
 398 1138 398 1138 398 1010 c 2,12,-1
 398 500 l 2,13,14
 398 372 398 372 480 282 c 0,15,16
 566 188 566 188 692 188 c 128,-1,17
 818 188 818 188 908 284 c 0,18,19
 983 364 983 364 986 500 c 1,20,-1
 986 1010 l 2,21,22
 986 1151 986 1151 910 1232 c 0,23,24
 823 1325 823 1325 708 1325 c 2,25,-1
 706 1325 l 1,8,9
694 0 m 1,26,-1
 687 0 l 2,27,28
 478 0 478 0 345 145 c 0,29,30
 200 303 200 303 200 494 c 2,31,-1
 200 1080 l 1,32,-1
 694 1510 l 1,33,34
 698 1510 698 1510 701 1510 c 0,35,36
 898 1510 898 1510 1043 1365 c 256,37,38
 1188 1220 1188 1220 1188 1016 c 2,39,-1
 1188 432 l 1,40,-1
 694 0 l 1,26,-1
EndSplineSet
Validated: 1
EndChar

StartChar: Odieresis
Encoding: 214 214 152
Width: 1388
GlyphClass: 2
Flags: W
HStem: 0 188<540.938 694> 1325 185<694 852.48>
VStem: 200 198<333.191 1080> 413 224<1732 1869> 739 224<1732 1869> 986 202<432 1188.76>
LayerCount: 2
Fore
SplineSet
963 1732 m 1,0,-1
 739 1614 l 1,1,-1
 740 1869 l 1,2,-1
 964 1989 l 1,3,-1
 963 1732 l 1,0,-1
637 1732 m 1,4,-1
 413 1614 l 1,5,-1
 414 1869 l 1,6,-1
 638 1989 l 1,7,-1
 637 1732 l 1,4,-1
706 1325 m 1,8,9
 561 1322 561 1322 476 1226 c 0,10,11
 398 1138 398 1138 398 1010 c 2,12,-1
 398 500 l 2,13,14
 398 372 398 372 480 282 c 0,15,16
 566 188 566 188 692 188 c 128,-1,17
 818 188 818 188 908 284 c 0,18,19
 983 364 983 364 986 500 c 1,20,-1
 986 1010 l 2,21,22
 986 1151 986 1151 910 1232 c 0,23,24
 823 1325 823 1325 708 1325 c 2,25,-1
 706 1325 l 1,8,9
694 0 m 1,26,-1
 687 0 l 2,27,28
 478 0 478 0 345 145 c 0,29,30
 200 303 200 303 200 494 c 2,31,-1
 200 1080 l 1,32,-1
 694 1510 l 1,33,34
 698 1510 698 1510 701 1510 c 0,35,36
 898 1510 898 1510 1043 1365 c 256,37,38
 1188 1220 1188 1220 1188 1016 c 2,39,-1
 1188 432 l 1,40,-1
 694 0 l 1,26,-1
EndSplineSet
Validated: 1
EndChar

StartChar: multiply
Encoding: 215 215 153
Width: 1067
GlyphClass: 2
Flags: W
HStem: 385 654
VStem: 412 244<590 834>
DStem2: 329 1039 150 974 0.707107 -0.707107<0 289.914 462.448 750.24> 150 450 329 385 0.707107 0.707107<80.6102 370.524 543.058 830.85>
LayerCount: 2
Fore
SplineSet
329 385 m 1,0,-1
 150 450 l 1,1,-1
 412 712 l 1,2,-1
 150 974 l 1,3,-1
 329 1039 l 1,4,-1
 534 834 l 1,5,-1
 738 1037 l 1,6,-1
 918 974 l 1,7,-1
 656 712 l 1,8,-1
 918 450 l 1,9,-1
 738 387 l 1,10,-1
 534 590 l 1,11,-1
 329 385 l 1,0,-1
EndSplineSet
Validated: 16385
EndChar

StartChar: Oslash
Encoding: 216 216 154
Width: 1388
GlyphClass: 2
Flags: W
HStem: 0 188<538.641 694> 1325 185<694 846.393>
VStem: 200 198<397.502 1080> 986 202<432 1139.21>
DStem2: 203 -34 356 -102 0.440235 0.897883<6.29987 194.582 478.979 1390.47 1653.85 1835.42>
LayerCount: 2
Fore
SplineSet
694 0 m 1,0,-1
 687 0 l 2,1,2
 545 0 545 0 439 67 c 1,3,-1
 356 -102 l 1,4,-1
 203 -34 l 1,5,-1
 311 186 l 1,6,7
 200 327 200 327 200 494 c 2,8,-1
 200 1080 l 1,9,-1
 694 1510 l 1,10,-1
 701 1510 l 2,11,12
 827 1510 827 1510 931 1451 c 1,13,-1
 1011 1614 l 1,14,-1
 1165 1548 l 1,15,-1
 1064 1343 l 1,16,17
 1188 1204 1188 1204 1188 1016 c 2,18,-1
 1188 432 l 1,19,-1
 694 0 l 1,0,-1
706 1325 m 1,20,21
 561 1322 561 1322 476 1226 c 0,22,23
 398 1138 398 1138 398 1010 c 2,24,-1
 398 500 l 2,25,26
 398 444 398 444 414 396 c 1,27,-1
 849 1284 l 1,28,29
 785 1325 785 1325 708 1325 c 2,30,-1
 706 1325 l 1,20,21
965 1141 m 1,31,-1
 524 242 l 1,32,33
 597 188 597 188 692 188 c 0,34,35
 818 188 818 188 908 284 c 0,36,37
 983 364 983 364 986 500 c 1,38,-1
 986 1010 l 2,39,40
 986 1084 986 1084 965 1141 c 1,31,-1
EndSplineSet
Validated: 1
EndChar

StartChar: Ugrave
Encoding: 217 217 155
Width: 1391
GlyphClass: 2
Flags: W
HStem: 0 185<535.52 694> 1490 20G<357.604 402 1147.3 1190.94>
VStem: 200 202<321.239 1419> 990 198<430 1418>
DStem2: 519 1983 389 1857 0.770645 -0.637264<0 384.967>
LayerCount: 2
Fore
SplineSet
519 1983 m 1,0,-1
 831 1725 l 1,1,-1
 701 1599 l 1,2,-1
 389 1857 l 1,3,-1
 519 1983 l 1,0,-1
402 1510 m 1,4,-1
 402 500 l 2,5,6
 402 361 402 361 478 278 c 1,7,8
 565 185 565 185 680 185 c 2,9,-1
 682 185 l 1,10,11
 813 188 813 188 912 284 c 0,12,13
 990 359 990 359 990 500 c 2,14,-1
 990 1418 l 1,15,-1
 1191 1510 l 1,16,-1
 1188 430 l 1,17,-1
 694 0 l 1,18,19
 690 0 690 0 687 0 c 0,20,21
 490 0 490 0 345 145 c 256,22,23
 200 290 200 290 200 494 c 2,24,-1
 200 1419 l 1,25,-1
 402 1510 l 1,4,-1
EndSplineSet
Validated: 1
EndChar

StartChar: Uacute
Encoding: 218 218 156
Width: 1391
GlyphClass: 2
Flags: W
HStem: 0 185<535.52 694> 1490 20G<357.604 402 1147.3 1190.94>
VStem: 200 202<321.239 1419> 990 198<430 1418>
DStem2: 571 1725 701 1599 0.770645 0.637264<19.8886 404.856>
LayerCount: 2
Fore
SplineSet
883 1983 m 1,0,-1
 1013 1857 l 1,1,-1
 701 1599 l 1,2,-1
 571 1725 l 1,3,-1
 883 1983 l 1,0,-1
402 1510 m 1,4,-1
 402 500 l 2,5,6
 402 361 402 361 478 278 c 1,7,8
 565 185 565 185 680 185 c 2,9,-1
 682 185 l 1,10,11
 813 188 813 188 912 284 c 0,12,13
 990 359 990 359 990 500 c 2,14,-1
 990 1418 l 1,15,-1
 1191 1510 l 1,16,-1
 1188 430 l 1,17,-1
 694 0 l 1,18,19
 690 0 690 0 687 0 c 0,20,21
 490 0 490 0 345 145 c 256,22,23
 200 290 200 290 200 494 c 2,24,-1
 200 1419 l 1,25,-1
 402 1510 l 1,4,-1
EndSplineSet
Validated: 1
EndChar

StartChar: Ucircumflex
Encoding: 219 219 157
Width: 1391
GlyphClass: 2
Flags: W
HStem: 0 185<535.52 694> 1490 20G<357.604 402 1147.3 1190.94>
VStem: 200 202<321.239 1419> 990 198<430 1418>
DStem2: 377 1728 450 1653 0.770645 0.637264<8.46228 244.309> 689 1986 632 1803 0.770645 -0.637264<72.6926 384.967>
LayerCount: 2
Fore
SplineSet
632 1803 m 1,0,-1
 450 1653 l 1,1,-1
 377 1728 l 1,2,-1
 689 1986 l 1,3,-1
 1001 1728 l 1,4,-1
 871 1602 l 1,5,-1
 632 1803 l 1,0,-1
402 1510 m 1,6,-1
 402 500 l 2,7,8
 402 361 402 361 478 278 c 1,9,10
 565 185 565 185 680 185 c 2,11,-1
 682 185 l 1,12,13
 813 188 813 188 912 284 c 0,14,15
 990 359 990 359 990 500 c 2,16,-1
 990 1418 l 1,17,-1
 1191 1510 l 1,18,-1
 1188 430 l 1,19,-1
 694 0 l 1,20,21
 690 0 690 0 687 0 c 0,22,23
 490 0 490 0 345 145 c 256,24,25
 200 290 200 290 200 494 c 2,26,-1
 200 1419 l 1,27,-1
 402 1510 l 1,6,-1
EndSplineSet
Validated: 1
EndChar

StartChar: Udieresis
Encoding: 220 220 158
Width: 1391
GlyphClass: 2
Flags: W
HStem: 0 185<535.52 694> 1490 20G<357.604 402 1147.3 1190.94>
VStem: 200 202<321.239 1419> 413 224<1732 1869> 739 224<1732 1869> 990 198<430 1418>
LayerCount: 2
Fore
SplineSet
963 1732 m 1,0,-1
 739 1614 l 1,1,-1
 740 1869 l 1,2,-1
 964 1989 l 1,3,-1
 963 1732 l 1,0,-1
637 1732 m 1,4,-1
 413 1614 l 1,5,-1
 414 1869 l 1,6,-1
 638 1989 l 1,7,-1
 637 1732 l 1,4,-1
402 1510 m 1,8,-1
 402 500 l 2,9,10
 402 361 402 361 478 278 c 1,11,12
 565 185 565 185 680 185 c 2,13,-1
 682 185 l 1,14,15
 813 188 813 188 912 284 c 0,16,17
 990 359 990 359 990 500 c 2,18,-1
 990 1418 l 1,19,-1
 1191 1510 l 1,20,-1
 1188 430 l 1,21,-1
 694 0 l 1,22,23
 690 0 690 0 687 0 c 0,24,25
 490 0 490 0 345 145 c 256,26,27
 200 290 200 290 200 494 c 2,28,-1
 200 1419 l 1,29,-1
 402 1510 l 1,8,-1
EndSplineSet
Validated: 1
EndChar

StartChar: Yacute
Encoding: 221 221 159
Width: 1214
GlyphClass: 2
Flags: W
HStem: 0 21G<500 541.25> 439 181<227 434 729 970> 1492 20G<246.818 298.467 1008.75 1058>
VStem: 500 198<96 439>
DStem2: 290 1512 100 1424 0.389859 -0.920874<6.96369 877.56> 571 1725 701 1599 0.770645 0.637264<19.8886 404.856> 638 690 729 620 0.415021 0.909812<0 901.744>
LayerCount: 2
Fore
SplineSet
883 1983 m 1,0,-1
 1013 1857 l 1,1,-1
 701 1599 l 1,2,-1
 571 1725 l 1,3,-1
 883 1983 l 1,0,-1
698 96 m 1,4,-1
 500 0 l 1,5,-1
 500 439 l 1,6,-1
 133 438 l 1,7,-1
 227 620 l 1,8,-1
 434 620 l 1,9,-1
 100 1424 l 1,10,-1
 290 1512 l 1,11,-1
 638 690 l 1,12,-1
 1018 1512 l 1,13,-1
 1114 1464 l 1,14,-1
 729 620 l 1,15,-1
 1056 620 l 1,16,-1
 970 440 l 1,17,-1
 697 439 l 1,18,-1
 698 96 l 1,4,-1
EndSplineSet
Validated: 1
EndChar

StartChar: Thorn
Encoding: 222 222 160
Width: 1269
GlyphClass: 2
Flags: W
HStem: 0 21G<200.014 241.25> 270 198<398 689> 1056 202<399 797.761> 1491 20G<355 399>
VStem: 201 198<96 270 468 1056 1258 1421> 934 185<764 922.48>
LayerCount: 2
Fore
SplineSet
398 96 m 1,0,-1
 200 0 l 1,1,-1
 201 1421 l 1,2,-1
 399 1511 l 1,3,-1
 399 1258 l 1,4,-1
 625 1258 l 2,5,6
 829 1258 829 1258 974 1113 c 128,-1,7
 1119 968 1119 968 1119 771 c 2,8,-1
 1119 764 l 1,9,-1
 689 270 l 1,10,-1
 398 270 l 1,11,-1
 398 96 l 1,0,-1
399 1056 m 1,12,-1
 398 468 l 1,13,-1
 619 468 l 2,14,15
 747 468 747 468 835 546 c 0,16,17
 931 631 931 631 934 776 c 1,18,-1
 934 778 l 2,19,20
 934 893 934 893 841 980 c 0,21,22
 760 1056 760 1056 619 1056 c 2,23,-1
 399 1056 l 1,12,-1
EndSplineSet
Validated: 1
EndChar

StartChar: germandbls
Encoding: 223 223 161
Width: 1258
GlyphClass: 2
Flags: W
HStem: -1 21G<200.018 241.25 650.879 711.85> 777 82<647.813 738.897> 1331 179<617 754.287>
VStem: 201 198<96 1148> 833 191<1136 1248.27> 940 198<392 645.68>
LayerCount: 2
Fore
SplineSet
533 231 m 1,0,1
 598 184 598 184 675 184 c 2,2,-1
 677 184 l 1,3,4
 806 187 806 187 862 246 c 0,5,6
 940 328 940 328 940 462 c 2,7,-1
 940 490 l 2,8,9
 940 596 940 596 872 680 c 1,10,11
 774 777 774 777 706 777 c 2,12,-1
 700 777 l 2,13,14
 673 777 673 777 647 773 c 1,15,-1
 572 864 l 1,16,17
 595 859 595 859 619 859 c 2,18,-1
 621 859 l 2,19,20
 712 859 712 859 778 936 c 1,21,22
 904 919 904 919 1030 792 c 0,23,24
 1136 685 1136 685 1138 496 c 1,25,-1
 1138 392 l 1,26,-1
 689 -1 l 1,27,-1
 682 -1 l 2,28,29
 672 -1 672 -1 662 -1 c 1,30,-1
 533 231 l 1,0,1
398 96 m 1,31,-1
 200 0 l 1,32,-1
 201 1125 l 1,33,-1
 201 1148 l 1,34,-1
 617 1510 l 1,35,36
 793 1506 793 1506 906 1394 c 0,37,38
 1000 1301 1000 1301 1023 1162 c 0,39,40
 1024 1156 1024 1156 1024 1147 c 2,41,-1
 1024 1136 l 1,42,-1
 779 940 l 1,43,44
 833 1002 833 1002 833 1097 c 0,45,46
 833 1114 833 1114 831 1131 c 0,47,48
 821 1218 821 1218 772 1271 c 0,49,50
 718 1331 718 1331 616 1331 c 0,51,52
 528 1331 528 1331 468 1275 c 0,53,54
 403 1214 403 1214 400 1126 c 1,55,-1
 399 1126 l 1,56,-1
 398 96 l 1,31,-1
EndSplineSet
Validated: 1
EndChar

StartChar: agrave
Encoding: 224 224 162
Width: 1080
GlyphClass: 2
Flags: W
HStem: -5 183<411.207 545> 938 179<541 673.12>
VStem: 130 192<266.784 756> 756 194<88 855.949>
DStem2: 358 1576 228 1450 0.770645 -0.637264<0 384.967>
LayerCount: 2
Fore
SplineSet
358 1576 m 1,0,-1
 670 1318 l 1,1,-1
 540 1192 l 1,2,-1
 228 1450 l 1,3,-1
 358 1576 l 1,0,-1
950 724 m 1,4,-1
 950 88 l 1,5,-1
 754 0 l 1,6,-1
 756 650 l 1,7,-1
 756 719 l 2,8,9
 756 812 756 812 696 874 c 1,10,11
 638 938 638 938 540 938 c 0,12,13
 453 938 453 938 392 882 c 0,14,15
 322 818 322 818 322 724 c 2,16,-1
 322 721 l 1,17,-1
 324 395 l 2,18,19
 325 298 325 298 394 234 c 0,20,21
 455 178 455 178 542 178 c 0,22,23
 640 178 640 178 698 242 c 1,24,-1
 545 -5 l 1,25,26
 384 0 384 0 260 118 c 0,27,28
 130 242 130 242 130 410 c 2,29,-1
 130 756 l 1,30,-1
 541 1117 l 1,31,32
 716 1113 716 1113 830 1001 c 0,33,34
 948 885 948 885 950 724 c 1,4,-1
EndSplineSet
Validated: 16385
EndChar

StartChar: aacute
Encoding: 225 225 163
Width: 1080
GlyphClass: 2
Flags: W
HStem: -5 183<411.207 545> 938 179<541 673.12>
VStem: 130 192<266.784 756> 756 194<88 855.949>
DStem2: 410 1318 540 1192 0.770645 0.637264<19.8886 404.856>
LayerCount: 2
Fore
SplineSet
722 1576 m 1,0,-1
 852 1450 l 1,1,-1
 540 1192 l 1,2,-1
 410 1318 l 1,3,-1
 722 1576 l 1,0,-1
950 724 m 1,4,-1
 950 88 l 1,5,-1
 754 0 l 1,6,-1
 756 650 l 1,7,-1
 756 719 l 2,8,9
 756 812 756 812 696 874 c 1,10,11
 638 938 638 938 540 938 c 0,12,13
 453 938 453 938 392 882 c 0,14,15
 322 818 322 818 322 724 c 2,16,-1
 322 721 l 1,17,-1
 324 395 l 2,18,19
 325 298 325 298 394 234 c 0,20,21
 455 178 455 178 542 178 c 0,22,23
 640 178 640 178 698 242 c 1,24,-1
 545 -5 l 1,25,26
 384 0 384 0 260 118 c 0,27,28
 130 242 130 242 130 410 c 2,29,-1
 130 756 l 1,30,-1
 541 1117 l 1,31,32
 716 1113 716 1113 830 1001 c 0,33,34
 948 885 948 885 950 724 c 1,4,-1
EndSplineSet
Validated: 16385
EndChar

StartChar: acircumflex
Encoding: 226 226 164
Width: 1080
GlyphClass: 2
Flags: W
HStem: -5 183<411.207 545> 938 179<541 673.12>
VStem: 130 192<266.784 756> 756 194<88 855.949>
DStem2: 130 756 392 882 0.725787 0.68792<156.098 387.842> 228 1318 301 1243 0.770645 0.637264<8.46228 244.309> 540 1576 483 1393 0.770645 -0.637264<72.6926 384.967>
LayerCount: 2
Fore
SplineSet
483 1393 m 1,0,-1
 301 1243 l 1,1,-1
 228 1318 l 1,2,-1
 540 1576 l 1,3,-1
 852 1318 l 1,4,-1
 722 1192 l 1,5,-1
 483 1393 l 1,0,-1
950 724 m 1,6,-1
 950 88 l 1,7,-1
 754 0 l 1,8,-1
 756 650 l 1,9,-1
 756 719 l 2,10,11
 756 812 756 812 696 874 c 1,12,13
 638 938 638 938 540 938 c 0,14,15
 453 938 453 938 392 882 c 0,16,17
 322 818 322 818 322 724 c 2,18,-1
 322 721 l 1,19,-1
 324 395 l 2,20,21
 325 298 325 298 394 234 c 0,22,23
 455 178 455 178 542 178 c 0,24,25
 640 178 640 178 698 242 c 1,26,-1
 545 -5 l 1,27,28
 384 0 384 0 260 118 c 0,29,30
 130 242 130 242 130 410 c 2,31,-1
 130 756 l 1,32,-1
 541 1117 l 1,33,34
 716 1113 716 1113 830 1001 c 0,35,36
 948 885 948 885 950 724 c 1,6,-1
EndSplineSet
Validated: 16385
EndChar

StartChar: atilde
Encoding: 227 227 165
Width: 1080
GlyphClass: 2
Flags: W
HStem: -5 183<411.207 545> 938 179<541 673.12>
VStem: 130 192<266.784 756> 756 194<88 855.949>
DStem2: 172 1344 302 1218 0.787228 0.616662<24.6402 260.415> 594 1382 666 1218 0.787228 0.616662<0 235.775>
LayerCount: 2
Fore
SplineSet
484 1368 m 1,0,-1
 302 1218 l 1,1,-1
 172 1344 l 1,2,-1
 412 1532 l 1,3,-1
 594 1382 l 1,4,-1
 776 1532 l 1,5,-1
 906 1406 l 1,6,-1
 666 1218 l 1,7,-1
 484 1368 l 1,0,-1
950 724 m 1,8,-1
 950 88 l 1,9,-1
 754 0 l 1,10,-1
 756 650 l 1,11,-1
 756 719 l 2,12,13
 756 812 756 812 696 874 c 1,14,15
 638 938 638 938 540 938 c 0,16,17
 453 938 453 938 392 882 c 0,18,19
 322 818 322 818 322 724 c 2,20,-1
 322 721 l 1,21,-1
 324 395 l 2,22,23
 325 298 325 298 394 234 c 0,24,25
 455 178 455 178 542 178 c 0,26,27
 640 178 640 178 698 242 c 1,28,-1
 545 -5 l 1,29,30
 384 0 384 0 260 118 c 0,31,32
 130 242 130 242 130 410 c 2,33,-1
 130 756 l 1,34,-1
 541 1117 l 1,35,36
 716 1113 716 1113 830 1001 c 0,37,38
 948 885 948 885 950 724 c 1,8,-1
EndSplineSet
Validated: 16385
EndChar

StartChar: adieresis
Encoding: 228 228 166
Width: 1080
GlyphClass: 2
Flags: W
HStem: -5 183<411.207 545> 938 179<541 673.12>
VStem: 130 192<266.784 756> 260 224<1308 1445> 586 224<1308 1445> 756 194<88 855.949>
LayerCount: 2
Fore
SplineSet
810 1308 m 1,0,-1
 586 1190 l 1,1,-1
 587 1445 l 1,2,-1
 811 1565 l 1,3,-1
 810 1308 l 1,0,-1
484 1308 m 1,4,-1
 260 1190 l 1,5,-1
 261 1445 l 1,6,-1
 485 1565 l 1,7,-1
 484 1308 l 1,4,-1
950 724 m 1,8,-1
 950 88 l 1,9,-1
 754 0 l 1,10,-1
 756 650 l 1,11,-1
 756 719 l 2,12,13
 756 812 756 812 696 874 c 1,14,15
 638 938 638 938 540 938 c 0,16,17
 453 938 453 938 392 882 c 0,18,19
 322 818 322 818 322 724 c 2,20,-1
 322 721 l 1,21,-1
 324 395 l 2,22,23
 325 298 325 298 394 234 c 0,24,25
 455 178 455 178 542 178 c 0,26,27
 640 178 640 178 698 242 c 1,28,-1
 545 -5 l 1,29,30
 384 0 384 0 260 118 c 0,31,32
 130 242 130 242 130 410 c 2,33,-1
 130 756 l 1,34,-1
 541 1117 l 1,35,36
 716 1113 716 1113 830 1001 c 0,37,38
 948 885 948 885 950 724 c 1,8,-1
EndSplineSet
Validated: 16385
EndChar

StartChar: aring
Encoding: 229 229 167
Width: 1080
GlyphClass: 2
Flags: W
HStem: -5 183<411.207 545> 938 179<541 673.12> 1218 131<446.789 543> 1575 129<540 617.995>
VStem: 130 192<266.784 756> 277 146<1375.59 1487> 647 156<1433 1540.21> 756 194<88 855.949>
LayerCount: 2
Fore
SplineSet
423 1455 m 0,0,1
 423 1411 423 1411 457 1382 c 0,2,3
 496 1349 496 1349 540 1349 c 2,4,5
 540 1349 540 1349 541 1349 c 0,6,7
 581 1349 581 1349 617 1384 c 0,8,9
 647 1413 647 1413 647 1462 c 2,10,11
 647 1462 647 1462 647 1464 c 0,12,13
 643 1516 643 1516 619 1541 c 0,14,15
 587 1575 587 1575 534 1575 c 2,16,17
 534 1575 534 1575 531 1575 c 2,18,19
 531 1575 531 1575 527 1575 c 0,20,21
 491 1574 491 1574 457 1541 c 128,-1,22
 423 1508 423 1508 423 1455 c 0,0,1
725 1634 m 0,23,24
 801 1565 801 1565 802 1468 c 1,25,-1
 803 1433 l 1,26,-1
 543 1218 l 1,27,28
 431 1221 431 1221 359 1289 c 0,29,30
 282 1362 282 1362 277 1467 c 1,31,-1
 277 1487 l 1,32,-1
 540 1704 l 1,33,34
 650 1702 650 1702 725 1634 c 0,23,24
950 724 m 1,35,-1
 950 88 l 1,36,-1
 754 0 l 1,37,-1
 756 650 l 1,38,-1
 756 719 l 2,39,40
 756 812 756 812 696 874 c 1,41,42
 638 938 638 938 540 938 c 0,43,44
 453 938 453 938 392 882 c 0,45,46
 322 818 322 818 322 724 c 2,47,-1
 322 721 l 1,48,-1
 324 395 l 2,49,50
 325 298 325 298 394 234 c 0,51,52
 455 178 455 178 542 178 c 0,53,54
 640 178 640 178 698 242 c 1,55,-1
 545 -5 l 1,56,57
 384 0 384 0 260 118 c 0,58,59
 130 242 130 242 130 410 c 2,60,-1
 130 756 l 1,61,-1
 541 1117 l 1,62,63
 716 1113 716 1113 830 1001 c 0,64,65
 948 885 948 885 950 724 c 1,35,-1
EndSplineSet
Validated: 16385
EndChar

StartChar: ae
Encoding: 230 230 168
Width: 1710
GlyphClass: 2
Flags: W
HStem: -11 183<415.741 545 1036.12 1173> 0 21G<754.062 798.615> 938 179<541 673.12 1169 1294.62>
VStem: 130 192<266.784 756> 756 194<257.921 406 521 847.533>
DStem2: 950 521 952 406 0.897843 0.440316<0 495.925>
LayerCount: 2
Fore
SplineSet
952 406 m 1,0,-1
 952 389 l 2,1,2
 952 293 952 293 1022 228 c 0,3,4
 1083 172 1083 172 1170 172 c 0,5,6
 1268 172 1268 172 1326 236 c 1,7,8
 1386 300 1386 300 1386 388 c 2,9,-1
 1386 391 l 1,10,-1
 1386 398 l 1,11,-1
 1580 481 l 1,12,-1
 1580 348 l 1,13,-1
 1173 -11 l 1,14,15
 1037 -7 1037 -7 928 78 c 1,16,-1
 754 0 l 1,17,-1
 756 650 l 1,18,-1
 756 719 l 2,19,20
 756 812 756 812 696 874 c 1,21,22
 638 938 638 938 540 938 c 0,23,24
 453 938 453 938 392 882 c 0,25,26
 322 818 322 818 322 724 c 2,27,-1
 322 721 l 1,28,-1
 324 395 l 2,29,30
 325 298 325 298 394 234 c 0,31,32
 455 178 455 178 542 178 c 0,33,34
 640 178 640 178 698 242 c 1,35,-1
 545 -5 l 1,36,37
 384 0 384 0 260 118 c 0,38,39
 130 242 130 242 130 410 c 2,40,-1
 130 756 l 1,41,-1
 541 1117 l 1,42,43
 716 1113 716 1113 830 1001 c 0,44,45
 884 948 884 948 913 886 c 1,46,-1
 1169 1111 l 1,47,48
 1344 1107 1344 1107 1458 995 c 0,49,50
 1576 879 1576 879 1578 718 c 1,51,-1
 1578 713 l 1,52,-1
 952 406 l 1,0,-1
950 715 m 1,53,-1
 950 521 l 1,54,-1
 1383 741 l 1,55,56
 1375 816 1375 816 1324 868 c 1,57,58
 1266 932 1266 932 1168 932 c 0,59,60
 1081 932 1081 932 1020 876 c 0,61,62
 952 814 952 814 950 724 c 0,63,64
 950 720 950 720 950 718 c 2,65,-1
 950 715 l 1,53,-1
EndSplineSet
Validated: 16385
EndChar

StartChar: ccedilla
Encoding: 231 231 169
Width: 1082
GlyphClass: 2
Flags: W
HStem: -392 21G<527.615 565.367> 938 179<541 673.12>
VStem: 130 192<267.28 756> 758 194<354 404 719 851.835>
LayerCount: 2
Fore
SplineSet
952 487 m 1,0,-1
 952 354 l 1,1,-1
 591 35 l 1,2,-1
 772 -147 l 1,3,-1
 547 -392 l 1,4,-1
 421 -262 l 1,5,-1
 589 -90 l 1,6,-1
 485 1 l 1,7,8
 360 22 360 22 260 118 c 0,9,10
 130 243 130 243 130 410 c 2,11,-1
 130 756 l 1,12,-1
 541 1117 l 1,13,14
 716 1113 716 1113 830 1001 c 0,15,16
 948 885 948 885 950 724 c 1,17,-1
 950 719 l 1,18,-1
 756 639 l 1,19,-1
 756 719 l 2,20,21
 756 812 756 812 696 874 c 1,22,23
 638 938 638 938 540 938 c 0,24,25
 453 938 453 938 392 882 c 0,26,27
 322 818 322 818 322 724 c 2,28,-1
 322 721 l 1,29,-1
 324 395 l 2,30,31
 325 298 325 298 394 234 c 0,32,33
 455 178 455 178 542 178 c 0,34,35
 640 178 640 178 698 242 c 1,36,37
 758 306 758 306 758 394 c 2,38,-1
 758 397 l 1,39,-1
 758 404 l 1,40,-1
 952 487 l 1,0,-1
EndSplineSet
Validated: 16385
EndChar

StartChar: egrave
Encoding: 232 232 170
Width: 1082
GlyphClass: 2
Flags: W
HStem: -5 183<411.207 545> 938 179<541 673.12>
VStem: 130 192<266.784 412 527 756>
DStem2: 358 1576 228 1450 0.770645 -0.637264<0 384.967> 322 527 324 412 0.897843 0.440316<0 495.925>
LayerCount: 2
Fore
SplineSet
358 1576 m 1,0,-1
 670 1318 l 1,1,-1
 540 1192 l 1,2,-1
 228 1450 l 1,3,-1
 358 1576 l 1,0,-1
324 412 m 1,4,-1
 324 395 l 2,5,6
 324 299 324 299 394 234 c 0,7,8
 455 178 455 178 542 178 c 0,9,10
 640 178 640 178 698 242 c 1,11,12
 758 306 758 306 758 394 c 2,13,-1
 758 397 l 1,14,-1
 758 404 l 1,15,-1
 952 487 l 1,16,-1
 952 354 l 1,17,-1
 545 -5 l 1,18,19
 384 0 384 0 260 118 c 0,20,21
 130 242 130 242 130 410 c 2,22,-1
 130 756 l 1,23,-1
 541 1117 l 1,24,25
 716 1113 716 1113 830 1001 c 0,26,27
 948 885 948 885 950 724 c 1,28,-1
 950 719 l 1,29,-1
 324 412 l 1,4,-1
322 527 m 1,30,-1
 755 747 l 1,31,32
 747 822 747 822 696 874 c 1,33,34
 638 938 638 938 540 938 c 0,35,36
 453 938 453 938 392 882 c 0,37,38
 322 818 322 818 322 724 c 2,39,-1
 322 721 l 1,40,-1
 322 527 l 1,30,-1
EndSplineSet
Validated: 16385
EndChar

StartChar: eacute
Encoding: 233 233 171
Width: 1082
GlyphClass: 2
Flags: W
HStem: -5 183<411.207 545> 938 179<541 673.12>
VStem: 130 192<266.784 412 527 756>
DStem2: 322 527 324 412 0.897843 0.440316<0 495.925> 410 1318 540 1192 0.770645 0.637264<19.8886 404.856>
LayerCount: 2
Fore
SplineSet
722 1576 m 1,0,-1
 852 1450 l 1,1,-1
 540 1192 l 1,2,-1
 410 1318 l 1,3,-1
 722 1576 l 1,0,-1
324 412 m 1,4,-1
 324 395 l 2,5,6
 324 299 324 299 394 234 c 0,7,8
 455 178 455 178 542 178 c 0,9,10
 640 178 640 178 698 242 c 1,11,12
 758 306 758 306 758 394 c 2,13,-1
 758 397 l 1,14,-1
 758 404 l 1,15,-1
 952 487 l 1,16,-1
 952 354 l 1,17,-1
 545 -5 l 1,18,19
 384 0 384 0 260 118 c 0,20,21
 130 242 130 242 130 410 c 2,22,-1
 130 756 l 1,23,-1
 541 1117 l 1,24,25
 716 1113 716 1113 830 1001 c 0,26,27
 948 885 948 885 950 724 c 1,28,-1
 950 719 l 1,29,-1
 324 412 l 1,4,-1
322 527 m 1,30,-1
 755 747 l 1,31,32
 747 822 747 822 696 874 c 1,33,34
 638 938 638 938 540 938 c 0,35,36
 453 938 453 938 392 882 c 0,37,38
 322 818 322 818 322 724 c 2,39,-1
 322 721 l 1,40,-1
 322 527 l 1,30,-1
EndSplineSet
Validated: 16385
EndChar

StartChar: ecircumflex
Encoding: 234 234 172
Width: 1082
GlyphClass: 2
Flags: W
HStem: -5 183<411.207 545> 938 179<541 673.12>
VStem: 130 192<266.784 412 527 756>
DStem2: 130 756 392 882 0.725787 0.68792<142.647 402.562> 228 1318 301 1243 0.770645 0.637264<8.46228 244.309> 322 527 324 412 0.897843 0.440316<0 495.925> 540 1576 483 1393 0.770645 -0.637264<72.6926 384.967>
LayerCount: 2
Fore
SplineSet
483 1393 m 1,0,-1
 301 1243 l 1,1,-1
 228 1318 l 1,2,-1
 540 1576 l 1,3,-1
 852 1318 l 1,4,-1
 722 1192 l 1,5,-1
 483 1393 l 1,0,-1
324 412 m 1,6,-1
 324 395 l 2,7,8
 324 299 324 299 394 234 c 0,9,10
 455 178 455 178 542 178 c 0,11,12
 640 178 640 178 698 242 c 1,13,14
 758 306 758 306 758 394 c 2,15,-1
 758 397 l 1,16,-1
 758 404 l 1,17,-1
 952 487 l 1,18,-1
 952 354 l 1,19,-1
 545 -5 l 1,20,21
 384 0 384 0 260 118 c 0,22,23
 130 242 130 242 130 410 c 2,24,-1
 130 756 l 1,25,-1
 541 1117 l 1,26,27
 716 1113 716 1113 830 1001 c 0,28,29
 948 885 948 885 950 724 c 1,30,-1
 950 719 l 1,31,-1
 324 412 l 1,6,-1
322 527 m 1,32,-1
 755 747 l 1,33,34
 747 822 747 822 696 874 c 1,35,36
 638 938 638 938 540 938 c 0,37,38
 453 938 453 938 392 882 c 0,39,40
 322 818 322 818 322 724 c 2,41,-1
 322 721 l 1,42,-1
 322 527 l 1,32,-1
EndSplineSet
Validated: 16385
EndChar

StartChar: edieresis
Encoding: 235 235 173
Width: 1082
GlyphClass: 2
Flags: W
HStem: -5 183<411.207 545> 938 179<541 673.12>
VStem: 130 192<266.784 412 527 756> 260 224<1308 1445> 586 224<1308 1445>
DStem2: 322 527 324 412 0.897843 0.440316<0 495.925>
LayerCount: 2
Fore
SplineSet
810 1308 m 1,0,-1
 586 1190 l 1,1,-1
 587 1445 l 1,2,-1
 811 1565 l 1,3,-1
 810 1308 l 1,0,-1
484 1308 m 1,4,-1
 260 1190 l 1,5,-1
 261 1445 l 1,6,-1
 485 1565 l 1,7,-1
 484 1308 l 1,4,-1
324 412 m 1,8,-1
 324 395 l 2,9,10
 324 299 324 299 394 234 c 0,11,12
 455 178 455 178 542 178 c 0,13,14
 640 178 640 178 698 242 c 1,15,16
 758 306 758 306 758 394 c 2,17,-1
 758 397 l 1,18,-1
 758 404 l 1,19,-1
 952 487 l 1,20,-1
 952 354 l 1,21,-1
 545 -5 l 1,22,23
 384 0 384 0 260 118 c 0,24,25
 130 242 130 242 130 410 c 2,26,-1
 130 756 l 1,27,-1
 541 1117 l 1,28,29
 716 1113 716 1113 830 1001 c 0,30,31
 948 885 948 885 950 724 c 1,32,-1
 950 719 l 1,33,-1
 324 412 l 1,8,-1
322 527 m 1,34,-1
 755 747 l 1,35,36
 747 822 747 822 696 874 c 1,37,38
 638 938 638 938 540 938 c 0,39,40
 453 938 453 938 392 882 c 0,41,42
 322 818 322 818 322 724 c 2,43,-1
 322 721 l 1,44,-1
 322 527 l 1,34,-1
EndSplineSet
Validated: 16385
EndChar

StartChar: igrave
Encoding: 236 236 174
Width: 496
GlyphClass: 2
Flags: W
HStem: 0 21G<150 194.545> 1100 20G<299.333 346>
VStem: 150 196<88 1036>
DStem2: 136 1581 6 1455 0.770645 -0.637264<0 384.967>
LayerCount: 2
Fore
SplineSet
136 1581 m 1,0,-1
 448 1323 l 1,1,-1
 318 1197 l 1,2,-1
 6 1455 l 1,3,-1
 136 1581 l 1,0,-1
346 88 m 1,4,-1
 150 0 l 1,5,-1
 150 1036 l 1,6,-1
 346 1120 l 1,7,-1
 346 88 l 1,4,-1
EndSplineSet
Validated: 1
EndChar

StartChar: iacute
Encoding: 237 237 175
Width: 496
GlyphClass: 2
Flags: W
HStem: 0 21G<150 194.545> 1100 20G<299.333 346>
VStem: 150 196<88 1036>
DStem2: 49 1326 179 1200 0.770645 0.637264<19.8886 404.856>
LayerCount: 2
Fore
SplineSet
361 1584 m 1,0,-1
 491 1458 l 1,1,-1
 179 1200 l 1,2,-1
 49 1326 l 1,3,-1
 361 1584 l 1,0,-1
346 88 m 1,4,-1
 150 0 l 1,5,-1
 150 1036 l 1,6,-1
 346 1120 l 1,7,-1
 346 88 l 1,4,-1
EndSplineSet
Validated: 1
EndChar

StartChar: icircumflex
Encoding: 238 238 176
Width: 634
GlyphClass: 2
Flags: W
HStem: 0 21G<217 261.545> 1100 20G<366.333 413>
VStem: 217 196<88 1036>
DStem2: 5 1320 78 1245 0.770645 0.637264<8.46228 244.309> 317 1578 260 1395 0.770645 -0.637264<72.6926 384.967>
LayerCount: 2
Fore
SplineSet
260 1395 m 1,0,-1
 78 1245 l 1,1,-1
 5 1320 l 1,2,-1
 317 1578 l 1,3,-1
 629 1320 l 1,4,-1
 499 1194 l 1,5,-1
 260 1395 l 1,0,-1
413 88 m 1,6,-1
 217 0 l 1,7,-1
 217 1036 l 1,8,-1
 413 1120 l 1,9,-1
 413 88 l 1,6,-1
EndSplineSet
Validated: 1
EndChar

StartChar: idieresis
Encoding: 239 239 177
Width: 591
GlyphClass: 2
Flags: W
HStem: 0 21G<197 241.545> 1100 20G<346.333 393>
VStem: 20 224<1303 1440> 197 196<88 1036> 346 224<1303 1440>
LayerCount: 2
Fore
SplineSet
570 1303 m 1,0,-1
 346 1185 l 1,1,-1
 347 1440 l 1,2,-1
 571 1560 l 1,3,-1
 570 1303 l 1,0,-1
244 1303 m 1,4,-1
 20 1185 l 1,5,-1
 21 1440 l 1,6,-1
 245 1560 l 1,7,-1
 244 1303 l 1,4,-1
393 88 m 1,8,-1
 197 0 l 1,9,-1
 197 1036 l 1,10,-1
 393 1120 l 1,11,-1
 393 88 l 1,8,-1
EndSplineSet
Validated: 1
EndChar

StartChar: eth
Encoding: 240 240 178
Width: 1082
GlyphClass: 2
Flags: W
HStem: -5 183<411.207 545> 938 179<541 674.881> 1333 179<403.236 536>
VStem: 130 192<266.784 756> 755 192<354 855.708 1059 1151>
DStem2: 130 756 392 882 0.75133 0.659927<160.625 407.3> 546 1272 676 1146 0.770645 0.637264<19.8886 85.9121 210.92 404.856>
LayerCount: 2
Fore
SplineSet
324 395 m 2,0,1
 325 298 325 298 394 234 c 0,2,3
 455 178 455 178 542 178 c 0,4,5
 640 178 640 178 698 242 c 1,6,7
 755 303 755 303 758 385 c 1,8,-1
 757 486 l 1,9,-1
 756 719 l 2,10,11
 755 811 755 811 696 874 c 1,12,13
 638 938 638 938 540 938 c 0,14,15
 453 938 453 938 392 882 c 0,16,17
 322 818 322 818 322 724 c 2,18,-1
 322 721 l 1,19,-1
 324 395 l 2,0,1
536 1512 m 1,20,-1
 687 1388 l 1,21,-1
 858 1530 l 1,22,-1
 988 1404 l 1,23,-1
 823 1268 l 1,24,-1
 947 1151 l 1,25,-1
 952 354 l 1,26,-1
 545 -5 l 1,27,28
 384 0 384 0 260 118 c 0,29,30
 130 242 130 242 130 410 c 2,31,-1
 130 756 l 1,32,-1
 541 1117 l 1,33,34
 663 1114 663 1114 755 1059 c 1,35,-1
 755 1116 l 1,36,-1
 755 1119 l 2,37,38
 755 1121 755 1121 731 1192 c 1,39,-1
 676 1146 l 1,40,-1
 546 1272 l 1,41,-1
 612 1327 l 1,42,43
 586 1333 586 1333 537 1333 c 0,44,45
 439 1333 439 1333 381 1269 c 1,46,47
 240 1392 240 1392 240 1393 c 0,48,49
 352 1510 352 1510 536 1512 c 1,20,-1
EndSplineSet
Validated: 16385
EndChar

StartChar: ntilde
Encoding: 241 241 179
Width: 1080
GlyphClass: 2
Flags: W
HStem: 0 21G<130 171.978 756 799.111> 938 179<541 673.12>
VStem: 130 192<91 756> 756 194<90 855.466>
DStem2: 172 1344 302 1218 0.787228 0.616662<24.6402 260.415> 594 1382 666 1218 0.787228 0.616662<0 235.775>
LayerCount: 2
Fore
SplineSet
484 1368 m 1,0,-1
 302 1218 l 1,1,-1
 172 1344 l 1,2,-1
 412 1532 l 1,3,-1
 594 1382 l 1,4,-1
 776 1532 l 1,5,-1
 906 1406 l 1,6,-1
 666 1218 l 1,7,-1
 484 1368 l 1,0,-1
756 0 m 1,8,-1
 756 719 l 2,9,10
 756 810 756 810 696 874 c 1,11,12
 638 938 638 938 540 938 c 0,13,14
 453 938 453 938 392 882 c 0,15,16
 322 818 322 818 322 724 c 0,17,18
 322 722 322 722 322 721 c 2,19,-1
 321 91 l 1,20,-1
 130 0 l 1,21,-1
 130 756 l 1,22,-1
 541 1117 l 1,23,24
 716 1113 716 1113 830 1001 c 0,25,26
 948 885 948 885 950 724 c 1,27,-1
 950 90 l 1,28,-1
 756 0 l 1,8,-1
EndSplineSet
Validated: 16385
EndChar

StartChar: ograve
Encoding: 242 242 180
Width: 1082
GlyphClass: 2
Flags: W
HStem: -5 183<411.207 545> 938 179<541 673.12>
VStem: 130 192<266.784 756> 758 194<354 851.835>
DStem2: 358 1576 228 1450 0.770645 -0.637264<0 384.967>
LayerCount: 2
Fore
SplineSet
358 1576 m 1,0,-1
 670 1318 l 1,1,-1
 540 1192 l 1,2,-1
 228 1450 l 1,3,-1
 358 1576 l 1,0,-1
324 395 m 2,4,5
 325 298 325 298 394 234 c 0,6,7
 455 178 455 178 542 178 c 0,8,9
 640 178 640 178 698 242 c 1,10,11
 758 306 758 306 758 394 c 0,12,13
 758 396 758 396 758 397 c 2,14,-1
 756 719 l 2,15,16
 755 811 755 811 696 874 c 1,17,18
 638 938 638 938 540 938 c 0,19,20
 453 938 453 938 392 882 c 0,21,22
 322 818 322 818 322 724 c 0,23,24
 322 722 322 722 322 721 c 2,25,-1
 324 395 l 2,4,5
830 1001 m 0,26,27
 948 885 948 885 950 724 c 1,28,-1
 952 354 l 1,29,-1
 545 -5 l 1,30,31
 384 0 384 0 260 118 c 0,32,33
 130 242 130 242 130 410 c 2,34,-1
 130 756 l 1,35,-1
 541 1117 l 1,36,37
 716 1113 716 1113 830 1001 c 0,26,27
EndSplineSet
Validated: 16385
EndChar

StartChar: oacute
Encoding: 243 243 181
Width: 1082
GlyphClass: 2
Flags: W
HStem: -5 183<411.207 545> 938 179<541 673.12>
VStem: 130 192<266.784 756> 758 194<354 851.835>
DStem2: 410 1318 540 1192 0.770645 0.637264<19.8886 404.856>
LayerCount: 2
Fore
SplineSet
324 395 m 2,0,1
 325 298 325 298 394 234 c 0,2,3
 455 178 455 178 542 178 c 0,4,5
 640 178 640 178 698 242 c 1,6,7
 758 306 758 306 758 394 c 0,8,9
 758 396 758 396 758 397 c 2,10,-1
 756 719 l 2,11,12
 755 811 755 811 696 874 c 1,13,14
 638 938 638 938 540 938 c 0,15,16
 453 938 453 938 392 882 c 0,17,18
 322 818 322 818 322 724 c 0,19,20
 322 722 322 722 322 721 c 2,21,-1
 324 395 l 2,0,1
830 1001 m 0,22,23
 948 885 948 885 950 724 c 1,24,-1
 952 354 l 1,25,-1
 545 -5 l 1,26,27
 384 0 384 0 260 118 c 0,28,29
 130 242 130 242 130 410 c 2,30,-1
 130 756 l 1,31,-1
 541 1117 l 1,32,33
 716 1113 716 1113 830 1001 c 0,22,23
722 1576 m 1,34,-1
 852 1450 l 1,35,-1
 540 1192 l 1,36,-1
 410 1318 l 1,37,-1
 722 1576 l 1,34,-1
EndSplineSet
Validated: 16385
EndChar

StartChar: ocircumflex
Encoding: 244 244 182
Width: 1082
GlyphClass: 2
Flags: W
HStem: -5 183<411.207 545> 938 179<541 673.12>
VStem: 130 192<266.784 756> 758 194<354 851.835>
DStem2: 130 756 392 882 0.725787 0.68792<156.098 387.842> 228 1318 301 1243 0.770645 0.637264<8.46228 244.309> 540 1576 483 1393 0.770645 -0.637264<72.6926 384.967>
LayerCount: 2
Fore
SplineSet
483 1393 m 1,0,-1
 301 1243 l 1,1,-1
 228 1318 l 1,2,-1
 540 1576 l 1,3,-1
 852 1318 l 1,4,-1
 722 1192 l 1,5,-1
 483 1393 l 1,0,-1
324 395 m 2,6,7
 325 298 325 298 394 234 c 0,8,9
 455 178 455 178 542 178 c 0,10,11
 640 178 640 178 698 242 c 1,12,13
 758 306 758 306 758 394 c 0,14,15
 758 396 758 396 758 397 c 2,16,-1
 756 719 l 2,17,18
 755 811 755 811 696 874 c 1,19,20
 638 938 638 938 540 938 c 0,21,22
 453 938 453 938 392 882 c 0,23,24
 322 818 322 818 322 724 c 0,25,26
 322 722 322 722 322 721 c 2,27,-1
 324 395 l 2,6,7
830 1001 m 0,28,29
 948 885 948 885 950 724 c 1,30,-1
 952 354 l 1,31,-1
 545 -5 l 1,32,33
 384 0 384 0 260 118 c 0,34,35
 130 242 130 242 130 410 c 2,36,-1
 130 756 l 1,37,-1
 541 1117 l 1,38,39
 716 1113 716 1113 830 1001 c 0,28,29
EndSplineSet
Validated: 16385
EndChar

StartChar: otilde
Encoding: 245 245 183
Width: 1082
GlyphClass: 2
Flags: W
HStem: -5 183<411.207 545> 938 179<541 673.12>
VStem: 130 192<266.784 756> 758 194<354 851.835>
DStem2: 172 1344 302 1218 0.787228 0.616662<24.6402 260.415> 594 1382 666 1218 0.787228 0.616662<0 235.775>
LayerCount: 2
Fore
SplineSet
484 1368 m 1,0,-1
 302 1218 l 1,1,-1
 172 1344 l 1,2,-1
 412 1532 l 1,3,-1
 594 1382 l 1,4,-1
 776 1532 l 1,5,-1
 906 1406 l 1,6,-1
 666 1218 l 1,7,-1
 484 1368 l 1,0,-1
324 395 m 2,8,9
 325 298 325 298 394 234 c 0,10,11
 455 178 455 178 542 178 c 0,12,13
 640 178 640 178 698 242 c 1,14,15
 758 306 758 306 758 394 c 0,16,17
 758 396 758 396 758 397 c 2,18,-1
 756 719 l 2,19,20
 755 811 755 811 696 874 c 1,21,22
 638 938 638 938 540 938 c 0,23,24
 453 938 453 938 392 882 c 0,25,26
 322 818 322 818 322 724 c 0,27,28
 322 722 322 722 322 721 c 2,29,-1
 324 395 l 2,8,9
830 1001 m 0,30,31
 948 885 948 885 950 724 c 1,32,-1
 952 354 l 1,33,-1
 545 -5 l 1,34,35
 384 0 384 0 260 118 c 0,36,37
 130 242 130 242 130 410 c 2,38,-1
 130 756 l 1,39,-1
 541 1117 l 1,40,41
 716 1113 716 1113 830 1001 c 0,30,31
EndSplineSet
Validated: 16385
EndChar

StartChar: odieresis
Encoding: 246 246 184
Width: 1082
GlyphClass: 2
Flags: W
HStem: -5 183<411.207 545> 938 179<541 673.12>
VStem: 130 192<266.784 756> 260 224<1308 1445> 586 224<1308 1445> 758 194<354 851.835>
LayerCount: 2
Fore
SplineSet
810 1308 m 1,0,-1
 586 1190 l 1,1,-1
 587 1445 l 1,2,-1
 811 1565 l 1,3,-1
 810 1308 l 1,0,-1
484 1308 m 1,4,-1
 260 1190 l 1,5,-1
 261 1445 l 1,6,-1
 485 1565 l 1,7,-1
 484 1308 l 1,4,-1
324 395 m 2,8,9
 325 298 325 298 394 234 c 0,10,11
 455 178 455 178 542 178 c 0,12,13
 640 178 640 178 698 242 c 1,14,15
 758 306 758 306 758 394 c 0,16,17
 758 396 758 396 758 397 c 2,18,-1
 756 719 l 2,19,20
 755 811 755 811 696 874 c 1,21,22
 638 938 638 938 540 938 c 0,23,24
 453 938 453 938 392 882 c 0,25,26
 322 818 322 818 322 724 c 0,27,28
 322 722 322 722 322 721 c 2,29,-1
 324 395 l 2,8,9
830 1001 m 0,30,31
 948 885 948 885 950 724 c 1,32,-1
 952 354 l 1,33,-1
 545 -5 l 1,34,35
 384 0 384 0 260 118 c 0,36,37
 130 242 130 242 130 410 c 2,38,-1
 130 756 l 1,39,-1
 541 1117 l 1,40,41
 716 1113 716 1113 830 1001 c 0,30,31
EndSplineSet
Validated: 16385
EndChar

StartChar: divide
Encoding: 247 247 185
Width: 1074
GlyphClass: 2
Flags: W
HStem: 626 172<161 911>
VStem: 397 266<181 343 1047 1209>
LayerCount: 2
Fore
SplineSet
161 798 m 1,0,-1
 994 798 l 1,1,-1
 911 626 l 1,2,-1
 80 626 l 1,3,-1
 161 798 l 1,0,-1
675 1047 m 1,4,-1
 409 907 l 1,5,-1
 410 1209 l 1,6,-1
 676 1352 l 1,7,-1
 675 1047 l 1,4,-1
663 181 m 1,8,-1
 397 41 l 1,9,-1
 398 343 l 1,10,-1
 664 486 l 1,11,-1
 663 181 l 1,8,-1
EndSplineSet
Validated: 1
EndChar

StartChar: oslash
Encoding: 248 248 186
Width: 1082
GlyphClass: 2
Flags: W
HStem: -5 183<457 545> 36 159<455 540.502> 938 179<541 629.747>
VStem: 130 192<330.798 756> 758 194<354 778.164>
DStem2: 153 -34 306 -102 0.44778 0.894144<7.70862 164.988 404.728 995.156 1242.56 1409.17>
LayerCount: 2
Fore
SplineSet
375 36 m 1,0,-1
 306 -102 l 1,1,-1
 153 -34 l 1,2,-1
 239 139 l 1,3,4
 130 256 130 256 130 410 c 2,5,-1
 130 756 l 1,6,-1
 541 1117 l 1,7,8
 635 1115 635 1115 712 1081 c 1,9,-1
 784 1226 l 1,10,-1
 938 1160 l 1,11,-1
 849 982 l 1,12,13
 948 872 948 872 950 724 c 1,14,-1
 952 354 l 1,15,-1
 545 -5 l 1,16,17
 454 -2 454 -2 375 36 c 1,0,-1
748 781 m 1,18,-1
 455 195 l 1,19,20
 494 178 494 178 542 178 c 0,21,22
 640 178 640 178 698 242 c 1,23,24
 758 306 758 306 758 394 c 2,25,-1
 758 397 l 1,26,-1
 756 719 l 2,27,28
 756 752 756 752 748 781 c 1,18,-1
631 921 m 1,29,30
 591 938 591 938 540 938 c 0,31,32
 453 938 453 938 392 882 c 0,33,34
 322 818 322 818 322 724 c 2,35,-1
 322 721 l 1,36,-1
 324 395 l 2,37,38
 324 359 324 359 334 328 c 1,39,-1
 631 921 l 1,29,30
EndSplineSet
Validated: 16385
EndChar

StartChar: ugrave
Encoding: 249 249 187
Width: 1080
GlyphClass: 2
Flags: W
HStem: 0 179<406.88 539> 1097 20G<280.889 324 908.022 950>
VStem: 130 194<261.534 1027> 758 192<361 1026>
DStem2: 358 1576 228 1450 0.770645 -0.637264<0 384.967>
LayerCount: 2
Fore
SplineSet
358 1576 m 1,0,-1
 670 1318 l 1,1,-1
 540 1192 l 1,2,-1
 228 1450 l 1,3,-1
 358 1576 l 1,0,-1
324 1117 m 1,4,-1
 324 398 l 2,5,6
 324 307 324 307 384 243 c 1,7,8
 442 179 442 179 540 179 c 0,9,10
 627 179 627 179 688 235 c 0,11,12
 758 299 758 299 758 393 c 0,13,14
 758 395 758 395 758 396 c 2,15,-1
 759 1026 l 1,16,-1
 950 1117 l 1,17,-1
 950 361 l 1,18,-1
 539 0 l 1,19,20
 364 4 364 4 250 116 c 0,21,22
 132 232 132 232 130 393 c 1,23,-1
 130 1027 l 1,24,-1
 324 1117 l 1,4,-1
EndSplineSet
Validated: 16385
EndChar

StartChar: uacute
Encoding: 250 250 188
Width: 1080
GlyphClass: 2
Flags: W
HStem: 0 179<406.88 539> 1097 20G<280.889 324 908.022 950>
VStem: 130 194<261.534 1027> 758 192<361 1026>
DStem2: 410 1318 540 1192 0.770645 0.637264<19.8886 404.856>
LayerCount: 2
Fore
SplineSet
722 1576 m 1,0,-1
 852 1450 l 1,1,-1
 540 1192 l 1,2,-1
 410 1318 l 1,3,-1
 722 1576 l 1,0,-1
324 1117 m 1,4,-1
 324 398 l 2,5,6
 324 307 324 307 384 243 c 1,7,8
 442 179 442 179 540 179 c 0,9,10
 627 179 627 179 688 235 c 0,11,12
 758 299 758 299 758 393 c 0,13,14
 758 395 758 395 758 396 c 2,15,-1
 759 1026 l 1,16,-1
 950 1117 l 1,17,-1
 950 361 l 1,18,-1
 539 0 l 1,19,20
 364 4 364 4 250 116 c 0,21,22
 132 232 132 232 130 393 c 1,23,-1
 130 1027 l 1,24,-1
 324 1117 l 1,4,-1
EndSplineSet
Validated: 16385
EndChar

StartChar: ucircumflex
Encoding: 251 251 189
Width: 1080
GlyphClass: 2
Flags: W
HStem: 0 179<406.88 539> 1097 20G<280.889 324 908.022 950>
VStem: 130 194<261.534 1027> 758 192<361 1026>
DStem2: 228 1318 301 1243 0.770645 0.637264<8.46228 244.309> 540 1576 483 1393 0.770645 -0.637264<72.6926 384.967>
LayerCount: 2
Fore
SplineSet
483 1393 m 1,0,-1
 301 1243 l 1,1,-1
 228 1318 l 1,2,-1
 540 1576 l 1,3,-1
 852 1318 l 1,4,-1
 722 1192 l 1,5,-1
 483 1393 l 1,0,-1
324 1117 m 1,6,-1
 324 398 l 2,7,8
 324 307 324 307 384 243 c 1,9,10
 442 179 442 179 540 179 c 0,11,12
 627 179 627 179 688 235 c 0,13,14
 758 299 758 299 758 393 c 0,15,16
 758 395 758 395 758 396 c 2,17,-1
 759 1026 l 1,18,-1
 950 1117 l 1,19,-1
 950 361 l 1,20,-1
 539 0 l 1,21,22
 364 4 364 4 250 116 c 0,23,24
 132 232 132 232 130 393 c 1,25,-1
 130 1027 l 1,26,-1
 324 1117 l 1,6,-1
EndSplineSet
Validated: 16385
EndChar

StartChar: udieresis
Encoding: 252 252 190
Width: 1080
GlyphClass: 2
Flags: W
HStem: 0 179<406.88 539> 1097 20G<280.889 324 908.022 950>
VStem: 130 194<261.534 1027> 260 224<1308 1445> 586 224<1308 1445> 758 192<361 1026>
LayerCount: 2
Fore
SplineSet
810 1308 m 1,0,-1
 586 1190 l 1,1,-1
 587 1445 l 1,2,-1
 811 1565 l 1,3,-1
 810 1308 l 1,0,-1
484 1308 m 1,4,-1
 260 1190 l 1,5,-1
 261 1445 l 1,6,-1
 485 1565 l 1,7,-1
 484 1308 l 1,4,-1
324 1117 m 1,8,-1
 324 398 l 2,9,10
 324 307 324 307 384 243 c 1,11,12
 442 179 442 179 540 179 c 0,13,14
 627 179 627 179 688 235 c 0,15,16
 758 299 758 299 758 393 c 0,17,18
 758 395 758 395 758 396 c 2,19,-1
 759 1026 l 1,20,-1
 950 1117 l 1,21,-1
 950 361 l 1,22,-1
 539 0 l 1,23,24
 364 4 364 4 250 116 c 0,25,26
 132 232 132 232 130 393 c 1,27,-1
 130 1027 l 1,28,-1
 324 1117 l 1,8,-1
EndSplineSet
Validated: 16385
EndChar

StartChar: yacute
Encoding: 253 253 191
Width: 1101
GlyphClass: 2
Flags: W
HStem: -392 179<408.188 540> 0 179<406.88 539> 1097 20G<280.889 324 908.022 950.017>
VStem: 130 194<261.534 1027> 759 192<-31 193 264.608 1026>
DStem2: 410 1318 540 1192 0.770645 0.637264<19.8886 404.856>
LayerCount: 2
Fore
SplineSet
722 1576 m 1,0,-1
 852 1450 l 1,1,-1
 540 1192 l 1,2,-1
 410 1318 l 1,3,-1
 722 1576 l 1,0,-1
540 -392 m 17,4,5
 358 -392 358 -392 244 -273 c 1,6,7
 244 -272 244 -272 385 -149 c 1,8,9
 443 -213 443 -213 541 -213 c 0,10,11
 628 -213 628 -213 689 -157 c 0,12,13
 759 -93 759 -93 759 1 c 2,14,-1
 759 4 l 1,15,-1
 758 193 l 1,16,-1
 539 0 l 1,17,18
 364 4 364 4 250 116 c 0,19,20
 132 232 132 232 130 393 c 1,21,-1
 130 1027 l 1,22,-1
 324 1117 l 1,23,-1
 324 398 l 2,24,25
 324 307 324 307 384 243 c 1,26,27
 442 179 442 179 540 179 c 0,28,29
 626 179 626 179 688 235 c 0,30,31
 754 295 754 295 758 382 c 1,32,-1
 759 1026 l 1,33,-1
 950 1117 l 1,34,-1
 951 -31 l 1,35,-1
 540 -392 l 17,4,5
EndSplineSet
Validated: 1
EndChar

StartChar: thorn
Encoding: 254 254 192
Width: 1102
GlyphClass: 2
Flags: W
HStem: -395 21G<150 197.317> 0 179<427.986 561> 939 183<557 690.793> 1491 20G<304.778 349>
VStem: 150 199<-313 60 258.001 863.062 938 1421> 780 192<361 850.216>
LayerCount: 2
Fore
SplineSet
778 722 m 2,0,1
 777 819 777 819 708 883 c 0,2,3
 647 939 647 939 560 939 c 0,4,5
 462 939 462 939 404 875 c 1,6,7
 360 828 360 828 348 769 c 1,8,-1
 348 366 l 1,9,10
 357 295 357 295 406 243 c 1,11,12
 464 179 464 179 562 179 c 0,13,14
 649 179 649 179 710 235 c 0,15,16
 780 299 780 299 780 393 c 2,17,-1
 780 396 l 1,18,-1
 778 722 l 2,0,1
150 1421 m 1,19,-1
 349 1511 l 1,20,-1
 349 938 l 1,21,-1
 557 1122 l 1,22,23
 718 1117 718 1117 842 999 c 0,24,25
 972 875 972 875 972 707 c 2,26,-1
 972 361 l 1,27,-1
 561 0 l 1,28,29
 437 3 437 3 344 60 c 1,30,-1
 344 -313 l 1,31,-1
 150 -395 l 1,32,-1
 150 1421 l 1,19,-1
EndSplineSet
Validated: 16385
EndChar

StartChar: ydieresis
Encoding: 255 255 193
Width: 1101
GlyphClass: 2
Flags: W
HStem: -392 179<409.312 540> 0 179<406.88 539> 1097 20G<280.889 324 908.022 950.017>
VStem: 130 194<261.534 1027> 260 224<1308 1445> 586 224<1308 1445> 759 192<-31 193 264.608 1026>
LayerCount: 2
Fore
SplineSet
810 1308 m 1,0,-1
 586 1190 l 1,1,-1
 587 1445 l 1,2,-1
 811 1565 l 1,3,-1
 810 1308 l 1,0,-1
484 1308 m 1,4,-1
 260 1190 l 1,5,-1
 261 1445 l 1,6,-1
 485 1565 l 1,7,-1
 484 1308 l 1,4,-1
951 -31 m 1,8,-1
 540 -392 l 1,9,10
 350 -390 350 -390 244 -273 c 1,11,12
 244 -272 244 -272 385 -149 c 1,13,14
 443 -213 443 -213 541 -213 c 0,15,16
 628 -213 628 -213 689 -157 c 0,17,18
 759 -93 759 -93 759 1 c 2,19,-1
 759 4 l 1,20,-1
 758 193 l 1,21,-1
 539 0 l 1,22,23
 364 4 364 4 250 116 c 0,24,25
 132 232 132 232 130 393 c 1,26,-1
 130 1027 l 1,27,-1
 324 1117 l 1,28,-1
 324 398 l 2,29,30
 324 307 324 307 384 243 c 1,31,32
 442 179 442 179 540 179 c 0,33,34
 626 179 626 179 688 235 c 0,35,36
 754 295 754 295 758 382 c 1,37,-1
 759 1026 l 1,38,-1
 950 1117 l 1,39,-1
 951 -31 l 1,8,-1
EndSplineSet
Validated: 1
EndChar

StartChar: Amacron
Encoding: 256 256 194
Width: 1392
GlyphClass: 2
Flags: W
HStem: 0 21G<201.046 244.696 990 1034.4> 439 182<149 202 402 837> 1325 185<698 856.48> 1678 172<440 977>
VStem: 203 199<92 439 621 1080> 990 202<91 1188.76>
LayerCount: 2
Fore
SplineSet
440 1850 m 1,0,-1
 1060 1850 l 1,1,-1
 977 1678 l 1,2,-1
 359 1678 l 1,3,-1
 440 1850 l 1,0,-1
990 0 m 1,4,-1
 990 1010 l 2,5,6
 990 1149 990 1149 914 1232 c 1,7,8
 827 1325 827 1325 712 1325 c 2,9,-1
 710 1325 l 1,10,11
 579 1322 579 1322 480 1226 c 0,12,13
 402 1151 402 1151 402 1010 c 2,14,-1
 402 621 l 1,15,-1
 923 621 l 1,16,-1
 837 441 l 1,17,-1
 402 440 l 1,18,-1
 402 92 l 1,19,-1
 201 0 l 1,20,-1
 202 439 l 1,21,-1
 55 439 l 1,22,-1
 149 621 l 1,23,-1
 203 621 l 1,24,-1
 204 1080 l 1,25,-1
 698 1510 l 1,26,-1
 705 1510 l 2,27,28
 902 1510 902 1510 1047 1365 c 128,-1,29
 1192 1220 1192 1220 1192 1016 c 2,30,-1
 1192 91 l 1,31,-1
 990 0 l 1,4,-1
EndSplineSet
Validated: 1
EndChar

StartChar: amacron
Encoding: 257 257 195
Width: 1080
GlyphClass: 2
Flags: W
HStem: -5 183<411.207 545> 938 179<541 673.12> 1338 172<271 808>
VStem: 130 192<266.784 756> 756 194<88 855.949>
LayerCount: 2
Fore
SplineSet
271 1510 m 1,0,-1
 891 1510 l 1,1,-1
 808 1338 l 1,2,-1
 190 1338 l 1,3,-1
 271 1510 l 1,0,-1
950 724 m 1,4,-1
 950 88 l 1,5,-1
 754 0 l 1,6,-1
 756 650 l 1,7,-1
 756 719 l 2,8,9
 756 812 756 812 696 874 c 1,10,11
 638 938 638 938 540 938 c 0,12,13
 453 938 453 938 392 882 c 0,14,15
 322 818 322 818 322 724 c 2,16,-1
 322 721 l 1,17,-1
 324 395 l 2,18,19
 325 298 325 298 394 234 c 0,20,21
 455 178 455 178 542 178 c 0,22,23
 640 178 640 178 698 242 c 1,24,-1
 545 -5 l 1,25,26
 384 0 384 0 260 118 c 0,27,28
 130 242 130 242 130 410 c 2,29,-1
 130 756 l 1,30,-1
 541 1117 l 1,31,32
 716 1113 716 1113 830 1001 c 0,33,34
 948 885 948 885 950 724 c 1,4,-1
EndSplineSet
Validated: 16385
EndChar

StartChar: Abreve
Encoding: 258 258 196
Width: 1392
GlyphClass: 2
Flags: W
HStem: 0 21G<201.046 244.696 990 1034.4> 439 182<149 202 402 837> 1325 185<698 856.48> 1635 112<575.387 843.22>
VStem: 203 199<92 439 621 1080> 990 202<91 1188.76>
LayerCount: 2
Fore
SplineSet
718 1747 m 0,0,1
 848 1747 848 1747 921 1890 c 1,2,-1
 930 1915 l 1,3,-1
 1099 1797 l 1,4,5
 1032 1736 1032 1736 952 1695 c 0,6,7
 835 1635 835 1635 705 1635 c 0,8,9
 576 1635 576 1635 458 1695 c 0,10,11
 385 1732 385 1732 324 1785 c 1,12,-1
 483 1923 l 1,13,-1
 498 1890 l 2,14,15
 564 1747 564 1747 718 1747 c 0,0,1
990 0 m 1,16,-1
 990 1010 l 2,17,18
 990 1149 990 1149 914 1232 c 1,19,20
 827 1325 827 1325 712 1325 c 2,21,-1
 710 1325 l 1,22,23
 579 1322 579 1322 480 1226 c 0,24,25
 402 1151 402 1151 402 1010 c 2,26,-1
 402 621 l 1,27,-1
 923 621 l 1,28,-1
 837 441 l 1,29,-1
 402 440 l 1,30,-1
 402 92 l 1,31,-1
 201 0 l 1,32,-1
 202 439 l 1,33,-1
 55 439 l 1,34,-1
 149 621 l 1,35,-1
 203 621 l 1,36,-1
 204 1080 l 1,37,-1
 698 1510 l 1,38,-1
 705 1510 l 2,39,40
 902 1510 902 1510 1047 1365 c 128,-1,41
 1192 1220 1192 1220 1192 1016 c 2,42,-1
 1192 91 l 1,43,-1
 990 0 l 1,16,-1
EndSplineSet
Validated: 1
EndChar

StartChar: abreve
Encoding: 259 259 197
Width: 1080
GlyphClass: 2
Flags: W
HStem: -5 183<411.207 545> 938 179<541 673.12> 1236 112<404.387 672.22>
VStem: 130 192<266.784 756> 756 194<88 855.949>
LayerCount: 2
Fore
SplineSet
547 1348 m 0,0,1
 677 1348 677 1348 750 1491 c 1,2,-1
 759 1516 l 1,3,-1
 928 1398 l 1,4,5
 861 1337 861 1337 781 1296 c 0,6,7
 664 1236 664 1236 534 1236 c 0,8,9
 405 1236 405 1236 287 1296 c 0,10,11
 214 1333 214 1333 153 1386 c 1,12,-1
 312 1524 l 1,13,-1
 327 1491 l 2,14,15
 393 1348 393 1348 547 1348 c 0,0,1
950 724 m 1,16,-1
 950 88 l 1,17,-1
 754 0 l 1,18,-1
 756 650 l 1,19,-1
 756 719 l 2,20,21
 756 812 756 812 696 874 c 1,22,23
 638 938 638 938 540 938 c 0,24,25
 453 938 453 938 392 882 c 0,26,27
 322 818 322 818 322 724 c 2,28,-1
 322 721 l 1,29,-1
 324 395 l 2,30,31
 325 298 325 298 394 234 c 0,32,33
 455 178 455 178 542 178 c 0,34,35
 640 178 640 178 698 242 c 1,36,-1
 545 -5 l 1,37,38
 384 0 384 0 260 118 c 0,39,40
 130 242 130 242 130 410 c 2,41,-1
 130 756 l 1,42,-1
 541 1117 l 1,43,44
 716 1113 716 1113 830 1001 c 0,45,46
 948 885 948 885 950 724 c 1,16,-1
EndSplineSet
Validated: 16385
EndChar

StartChar: Aogonek
Encoding: 260 260 198
Width: 1391
GlyphClass: 2
Flags: W
HStem: 0 21G<201.046 244.696 990 1013> 439 182<149 202 402 837> 1325 185<698 856.48>
VStem: 203 199<92 439 621 1080> 990 202<91 1188.76>
DStem2: 1047 -82 864 -139 0.676405 -0.73653<0 240.319>
LayerCount: 2
Fore
SplineSet
990 0 m 1,0,-1
 990 1010 l 2,1,2
 990 1149 990 1149 914 1232 c 1,3,4
 827 1325 827 1325 712 1325 c 2,5,-1
 710 1325 l 1,6,7
 579 1322 579 1322 480 1226 c 0,8,9
 402 1151 402 1151 402 1010 c 2,10,-1
 402 621 l 1,11,-1
 923 621 l 1,12,-1
 837 441 l 1,13,-1
 402 440 l 1,14,-1
 402 92 l 1,15,-1
 201 0 l 1,16,-1
 202 439 l 1,17,-1
 55 439 l 1,18,-1
 149 621 l 1,19,-1
 203 621 l 1,20,-1
 204 1080 l 1,21,-1
 698 1510 l 1,22,-1
 705 1510 l 2,23,24
 902 1510 902 1510 1047 1365 c 128,-1,25
 1192 1220 1192 1220 1192 1016 c 2,26,-1
 1192 91 l 1,27,-1
 1189 90 l 1,28,-1
 1215 65 l 1,29,-1
 1047 -82 l 1,30,-1
 1215 -254 l 1,31,-1
 1089 -384 l 1,32,-1
 864 -139 l 1,33,-1
 1013 10 l 1,34,-1
 990 0 l 1,0,-1
EndSplineSet
Validated: 1
EndChar

StartChar: aogonek
Encoding: 261 261 199
Width: 1080
GlyphClass: 2
Flags: W
HStem: -5 183<411.207 545> 938 179<541 673.12>
VStem: 130 192<266.784 756> 756 194<88 855.949>
DStem2: 805 -82 622 -139 0.676405 -0.73653<0 240.319>
LayerCount: 2
Fore
SplineSet
950 724 m 1,0,-1
 950 88 l 1,1,-1
 973 65 l 1,2,-1
 805 -82 l 1,3,-1
 973 -254 l 1,4,-1
 847 -384 l 1,5,-1
 622 -139 l 1,6,-1
 766 5 l 1,7,-1
 754 0 l 1,8,-1
 756 650 l 1,9,-1
 756 719 l 2,10,11
 756 812 756 812 696 874 c 1,12,13
 638 938 638 938 540 938 c 0,14,15
 453 938 453 938 392 882 c 0,16,17
 322 818 322 818 322 724 c 2,18,-1
 322 721 l 1,19,-1
 324 395 l 2,20,21
 325 298 325 298 394 234 c 0,22,23
 455 178 455 178 542 178 c 0,24,25
 640 178 640 178 698 242 c 1,26,-1
 545 -5 l 1,27,28
 384 0 384 0 260 118 c 0,29,30
 130 242 130 242 130 410 c 2,31,-1
 130 756 l 1,32,-1
 541 1117 l 1,33,34
 716 1113 716 1113 830 1001 c 0,35,36
 948 885 948 885 950 724 c 1,0,-1
EndSplineSet
Validated: 16385
EndChar

StartChar: Cacute
Encoding: 262 262 200
Width: 1388
GlyphClass: 2
Flags: W
HStem: 0 188<540.938 694> 1325 185<694 852.208>
VStem: 200 198<333.191 1080> 986 202<432 510 1011 1188.31>
DStem2: 571 1725 701 1599 0.770645 0.637264<19.8886 404.856>
LayerCount: 2
Fore
SplineSet
883 1983 m 1,0,-1
 1013 1857 l 1,1,-1
 701 1599 l 1,2,-1
 571 1725 l 1,3,-1
 883 1983 l 1,0,-1
986 510 m 1,4,-1
 1188 602 l 1,5,-1
 1188 432 l 1,6,-1
 694 0 l 1,7,-1
 687 0 l 2,8,9
 478 0 478 0 345 145 c 0,10,11
 200 303 200 303 200 494 c 2,12,-1
 200 1080 l 1,13,-1
 694 1510 l 1,14,15
 698 1510 698 1510 701 1510 c 0,16,17
 909 1510 909 1510 1043 1365 c 0,18,19
 1188 1208 1188 1208 1188 1016 c 2,20,-1
 1188 1011 l 1,21,-1
 986 920 l 1,22,-1
 986 1010 l 2,23,24
 986 1152 986 1152 910 1232 c 0,25,26
 823 1325 823 1325 708 1325 c 2,27,-1
 706 1325 l 1,28,29
 561 1322 561 1322 476 1226 c 0,30,31
 398 1138 398 1138 398 1010 c 2,32,-1
 398 500 l 2,33,34
 398 372 398 372 480 282 c 0,35,36
 566 188 566 188 692 188 c 128,-1,37
 818 188 818 188 908 284 c 0,38,39
 983 364 983 364 986 500 c 1,40,-1
 986 510 l 1,4,-1
EndSplineSet
Validated: 1
EndChar

StartChar: cacute
Encoding: 263 263 201
Width: 1082
GlyphClass: 2
Flags: W
HStem: -5 183<411.207 545> 938 179<541 673.12>
VStem: 130 192<266.784 756> 758 194<354 404 719 851.835>
DStem2: 410 1318 540 1192 0.770645 0.637264<19.8886 404.856>
LayerCount: 2
Fore
SplineSet
722 1576 m 1,0,-1
 852 1450 l 1,1,-1
 540 1192 l 1,2,-1
 410 1318 l 1,3,-1
 722 1576 l 1,0,-1
952 487 m 1,4,-1
 952 354 l 1,5,-1
 545 -5 l 1,6,7
 384 0 384 0 260 118 c 0,8,9
 130 242 130 242 130 410 c 2,10,-1
 130 756 l 1,11,-1
 541 1117 l 1,12,13
 716 1113 716 1113 830 1001 c 0,14,15
 948 885 948 885 950 724 c 1,16,-1
 950 719 l 1,17,-1
 756 639 l 1,18,-1
 756 719 l 2,19,20
 756 812 756 812 696 874 c 1,21,22
 638 938 638 938 540 938 c 0,23,24
 453 938 453 938 392 882 c 0,25,26
 322 818 322 818 322 724 c 0,27,28
 322 722 322 722 322 721 c 2,29,-1
 324 395 l 2,30,31
 325 298 325 298 394 234 c 0,32,33
 455 178 455 178 542 178 c 0,34,35
 640 178 640 178 698 242 c 1,36,37
 758 306 758 306 758 394 c 0,38,39
 758 396 758 396 758 397 c 2,40,-1
 758 404 l 1,41,-1
 952 487 l 1,4,-1
EndSplineSet
Validated: 16385
EndChar

StartChar: Ccircumflex
Encoding: 264 264 202
Width: 1388
GlyphClass: 2
Flags: W
HStem: 0 188<540.938 694> 1325 185<694 852.208>
VStem: 200 198<333.191 1080> 986 202<432 510 1011 1188.31>
DStem2: 377 1728 450 1653 0.770645 0.637264<8.46228 244.309> 689 1986 632 1803 0.770645 -0.637264<72.6926 384.967>
LayerCount: 2
Fore
SplineSet
632 1803 m 1,0,-1
 450 1653 l 1,1,-1
 377 1728 l 1,2,-1
 689 1986 l 1,3,-1
 1001 1728 l 1,4,-1
 871 1602 l 1,5,-1
 632 1803 l 1,0,-1
986 510 m 1,6,-1
 1188 602 l 1,7,-1
 1188 432 l 1,8,-1
 694 0 l 1,9,-1
 687 0 l 2,10,11
 478 0 478 0 345 145 c 0,12,13
 200 303 200 303 200 494 c 2,14,-1
 200 1080 l 1,15,-1
 694 1510 l 1,16,17
 698 1510 698 1510 701 1510 c 0,18,19
 909 1510 909 1510 1043 1365 c 0,20,21
 1188 1208 1188 1208 1188 1016 c 2,22,-1
 1188 1011 l 1,23,-1
 986 920 l 1,24,-1
 986 1010 l 2,25,26
 986 1152 986 1152 910 1232 c 0,27,28
 823 1325 823 1325 708 1325 c 2,29,-1
 706 1325 l 1,30,31
 561 1322 561 1322 476 1226 c 0,32,33
 398 1138 398 1138 398 1010 c 2,34,-1
 398 500 l 2,35,36
 398 372 398 372 480 282 c 0,37,38
 566 188 566 188 692 188 c 128,-1,39
 818 188 818 188 908 284 c 0,40,41
 983 364 983 364 986 500 c 1,42,-1
 986 510 l 1,6,-1
EndSplineSet
Validated: 1
EndChar

StartChar: ccircumflex
Encoding: 265 265 203
Width: 1082
GlyphClass: 2
Flags: W
HStem: -5 183<411.207 545> 938 179<541 673.12>
VStem: 130 192<266.784 756> 758 194<354 404 719 851.835>
DStem2: 130 756 392 882 0.725787 0.68792<142.647 402.562> 228 1318 301 1243 0.770645 0.637264<8.46228 244.309> 540 1576 483 1393 0.770645 -0.637264<72.6926 384.967>
LayerCount: 2
Fore
SplineSet
483 1393 m 1,0,-1
 301 1243 l 1,1,-1
 228 1318 l 1,2,-1
 540 1576 l 1,3,-1
 852 1318 l 1,4,-1
 722 1192 l 1,5,-1
 483 1393 l 1,0,-1
952 487 m 1,6,-1
 952 354 l 1,7,-1
 545 -5 l 1,8,9
 384 0 384 0 260 118 c 0,10,11
 130 242 130 242 130 410 c 2,12,-1
 130 756 l 1,13,-1
 541 1117 l 1,14,15
 716 1113 716 1113 830 1001 c 0,16,17
 948 885 948 885 950 724 c 1,18,-1
 950 719 l 1,19,-1
 756 639 l 1,20,-1
 756 719 l 2,21,22
 756 812 756 812 696 874 c 1,23,24
 638 938 638 938 540 938 c 0,25,26
 453 938 453 938 392 882 c 0,27,28
 322 818 322 818 322 724 c 0,29,30
 322 722 322 722 322 721 c 2,31,-1
 324 395 l 2,32,33
 325 298 325 298 394 234 c 0,34,35
 455 178 455 178 542 178 c 0,36,37
 640 178 640 178 698 242 c 1,38,39
 758 306 758 306 758 394 c 0,40,41
 758 396 758 396 758 397 c 2,42,-1
 758 404 l 1,43,-1
 952 487 l 1,6,-1
EndSplineSet
Validated: 16385
EndChar

StartChar: Cdotaccent
Encoding: 266 266 204
Width: 1388
GlyphClass: 2
Flags: W
HStem: 0 188<540.938 694> 1325 185<694 852.208> 1602 208<593 801> 1694 218<573 791>
VStem: 200 198<333.191 1080> 593 198<1694 1810> 986 202<432 510 1011 1188.31>
LayerCount: 2
Fore
SplineSet
791 1694 m 1,0,-1
 593 1602 l 1,1,-1
 593 1810 l 1,2,-1
 791 1912 l 1,3,-1
 791 1694 l 1,0,-1
986 510 m 1,4,-1
 1188 602 l 1,5,-1
 1188 432 l 1,6,-1
 694 0 l 1,7,-1
 687 0 l 2,8,9
 478 0 478 0 345 145 c 0,10,11
 200 303 200 303 200 494 c 2,12,-1
 200 1080 l 1,13,-1
 694 1510 l 1,14,15
 698 1510 698 1510 701 1510 c 0,16,17
 909 1510 909 1510 1043 1365 c 0,18,19
 1188 1208 1188 1208 1188 1016 c 2,20,-1
 1188 1011 l 1,21,-1
 986 920 l 1,22,-1
 986 1010 l 2,23,24
 986 1152 986 1152 910 1232 c 0,25,26
 823 1325 823 1325 708 1325 c 2,27,-1
 706 1325 l 1,28,29
 561 1322 561 1322 476 1226 c 0,30,31
 398 1138 398 1138 398 1010 c 2,32,-1
 398 500 l 2,33,34
 398 372 398 372 480 282 c 0,35,36
 566 188 566 188 692 188 c 128,-1,37
 818 188 818 188 908 284 c 0,38,39
 983 364 983 364 986 500 c 1,40,-1
 986 510 l 1,4,-1
EndSplineSet
Validated: 1
EndChar

StartChar: cdotaccent
Encoding: 267 267 205
Width: 1082
GlyphClass: 2
Flags: W
HStem: -5 183<411.207 545> 938 179<541 673.12> 1209 208<413 621> 1495 20G<569 609>
VStem: 130 192<266.784 756> 413 196<1297 1417> 758 194<354 404 719 851.835>
LayerCount: 2
Fore
SplineSet
609 1297 m 1,0,-1
 413 1209 l 1,1,-1
 413 1417 l 1,2,-1
 609 1515 l 1,3,-1
 609 1297 l 1,0,-1
952 487 m 1,4,-1
 952 354 l 1,5,-1
 545 -5 l 1,6,7
 384 0 384 0 260 118 c 0,8,9
 130 242 130 242 130 410 c 2,10,-1
 130 756 l 1,11,-1
 541 1117 l 1,12,13
 716 1113 716 1113 830 1001 c 0,14,15
 948 885 948 885 950 724 c 1,16,-1
 950 719 l 1,17,-1
 756 639 l 1,18,-1
 756 719 l 2,19,20
 756 812 756 812 696 874 c 1,21,22
 638 938 638 938 540 938 c 0,23,24
 453 938 453 938 392 882 c 0,25,26
 322 818 322 818 322 724 c 0,27,28
 322 722 322 722 322 721 c 2,29,-1
 324 395 l 2,30,31
 325 298 325 298 394 234 c 0,32,33
 455 178 455 178 542 178 c 0,34,35
 640 178 640 178 698 242 c 1,36,37
 758 306 758 306 758 394 c 0,38,39
 758 396 758 396 758 397 c 2,40,-1
 758 404 l 1,41,-1
 952 487 l 1,4,-1
EndSplineSet
Validated: 16385
EndChar

StartChar: Ccaron
Encoding: 268 268 206
Width: 1388
GlyphClass: 2
Flags: W
HStem: 0 188<540.938 694> 1325 185<694 852.208>
VStem: 200 198<333.191 1080> 986 202<432 510 1011 1188.31>
DStem2: 522 1989 392 1863 0.770645 -0.637264<0 312.274> 761 1788 704 1605 0.770645 0.637264<0 235.847>
LayerCount: 2
Fore
SplineSet
761 1788 m 1,0,-1
 943 1938 l 1,1,-1
 1016 1863 l 1,2,-1
 704 1605 l 1,3,-1
 392 1863 l 1,4,-1
 522 1989 l 1,5,-1
 761 1788 l 1,0,-1
986 510 m 1,6,-1
 1188 602 l 1,7,-1
 1188 432 l 1,8,-1
 694 0 l 1,9,-1
 687 0 l 2,10,11
 478 0 478 0 345 145 c 0,12,13
 200 303 200 303 200 494 c 2,14,-1
 200 1080 l 1,15,-1
 694 1510 l 1,16,17
 698 1510 698 1510 701 1510 c 0,18,19
 909 1510 909 1510 1043 1365 c 0,20,21
 1188 1208 1188 1208 1188 1016 c 2,22,-1
 1188 1011 l 1,23,-1
 986 920 l 1,24,-1
 986 1010 l 2,25,26
 986 1152 986 1152 910 1232 c 0,27,28
 823 1325 823 1325 708 1325 c 2,29,-1
 706 1325 l 1,30,31
 561 1322 561 1322 476 1226 c 0,32,33
 398 1138 398 1138 398 1010 c 2,34,-1
 398 500 l 2,35,36
 398 372 398 372 480 282 c 0,37,38
 566 188 566 188 692 188 c 128,-1,39
 818 188 818 188 908 284 c 0,40,41
 983 364 983 364 986 500 c 1,42,-1
 986 510 l 1,6,-1
EndSplineSet
Validated: 1
EndChar

StartChar: ccaron
Encoding: 269 269 207
Width: 1082
GlyphClass: 2
Flags: W
HStem: -5 183<411.207 545> 938 179<541 673.12>
VStem: 130 192<266.784 756> 758 194<354 404 719 851.835>
DStem2: 358 1576 228 1450 0.770645 -0.637264<0 312.274> 597 1375 540 1192 0.770645 0.637264<0 235.847>
LayerCount: 2
Fore
SplineSet
597 1375 m 1,0,-1
 779 1525 l 1,1,-1
 852 1450 l 1,2,-1
 540 1192 l 1,3,-1
 228 1450 l 1,4,-1
 358 1576 l 1,5,-1
 597 1375 l 1,0,-1
952 487 m 1,6,-1
 952 354 l 1,7,-1
 545 -5 l 1,8,9
 384 0 384 0 260 118 c 0,10,11
 130 242 130 242 130 410 c 2,12,-1
 130 756 l 1,13,-1
 541 1117 l 1,14,15
 716 1113 716 1113 830 1001 c 0,16,17
 948 885 948 885 950 724 c 1,18,-1
 950 719 l 1,19,-1
 756 639 l 1,20,-1
 756 719 l 2,21,22
 756 812 756 812 696 874 c 1,23,24
 638 938 638 938 540 938 c 0,25,26
 453 938 453 938 392 882 c 0,27,28
 322 818 322 818 322 724 c 0,29,30
 322 722 322 722 322 721 c 2,31,-1
 324 395 l 2,32,33
 325 298 325 298 394 234 c 0,34,35
 455 178 455 178 542 178 c 0,36,37
 640 178 640 178 698 242 c 1,38,39
 758 306 758 306 758 394 c 0,40,41
 758 396 758 396 758 397 c 2,42,-1
 758 404 l 1,43,-1
 952 487 l 1,6,-1
EndSplineSet
Validated: 16385
EndChar

StartChar: Dcaron
Encoding: 270 270 208
Width: 1294
GlyphClass: 2
Flags: W
HStem: 0 21G<200 296.923> 1491 20G<351.955 396 591.226 739>
VStem: 200 196<138 1422> 988 186<558.498 1014.92>
DStem2: 522 1989 392 1863 0.770645 -0.637264<0 312.274> 761 1788 704 1605 0.770645 0.637264<0 235.847>
LayerCount: 2
Fore
SplineSet
761 1788 m 1,0,-1
 943 1938 l 1,1,-1
 1016 1863 l 1,2,-1
 704 1605 l 1,3,-1
 392 1863 l 1,4,-1
 522 1989 l 1,5,-1
 761 1788 l 1,0,-1
200 0 m 1,6,-1
 200 1422 l 1,7,-1
 396 1511 l 1,8,-1
 396 138 l 1,9,10
 538 170 538 170 629 211 c 1,11,12
 805 304 805 304 906 466 c 0,13,14
 983 590 983 590 988 782 c 1,15,16
 988 835 988 835 986 852 c 0,17,18
 962 1072 962 1072 800 1202 c 0,19,20
 677 1301 677 1301 423 1385 c 1,21,-1
 400 1390 l 1,22,-1
 628 1514 l 1,23,24
 850 1429 850 1429 984 1298 c 0,25,26
 1154 1132 1154 1132 1174 850 c 1,27,-1
 1174 847 l 2,28,29
 1174 542 1174 542 1022 363 c 0,30,31
 894 212 894 212 658 122 c 0,32,33
 499 62 499 62 389 39 c 2,34,-1
 200 0 l 1,6,-1
EndSplineSet
Validated: 1
EndChar

StartChar: dcaron
Encoding: 271 271 209
Width: 1349
GlyphClass: 2
Flags: W
HStem: -5 183<411.207 545> 938 179<541 674.014> 1494 18G<903.171 950.035 1163.49 1230.97>
VStem: 130 192<266.784 756> 758 192<354 853.604 1057 1430>
DStem2: 999 1148 1170 1089 0.429359 0.903134<20.1354 405.255>
LayerCount: 2
Fore
SplineSet
1173 1514 m 1,0,-1
 1344 1455 l 1,1,-1
 1170 1089 l 1,2,-1
 999 1148 l 1,3,-1
 1173 1514 l 1,0,-1
324 395 m 2,4,5
 325 298 325 298 394 234 c 0,6,7
 455 178 455 178 542 178 c 0,8,9
 640 178 640 178 698 242 c 1,10,11
 758 306 758 306 758 394 c 2,12,-1
 758 397 l 1,13,-1
 756 719 l 2,14,15
 755 811 755 811 696 874 c 1,16,17
 638 938 638 938 540 938 c 0,18,19
 453 938 453 938 392 882 c 0,20,21
 322 818 322 818 322 724 c 2,22,-1
 322 721 l 1,23,-1
 324 395 l 2,4,5
950 1512 m 1,24,-1
 952 354 l 1,25,-1
 545 -5 l 1,26,27
 384 0 384 0 260 118 c 0,28,29
 130 242 130 242 130 410 c 2,30,31
 130 410 130 410 130 756 c 1,32,-1
 541 1117 l 1,33,34
 665 1114 665 1114 758 1057 c 1,35,-1
 758 1430 l 1,36,-1
 950 1512 l 1,24,-1
EndSplineSet
Validated: 1
EndChar

StartChar: Dcroat
Encoding: 272 272 210
Width: 1295
GlyphClass: 2
Flags: W
HStem: 0 21G<201 297.923> 439 181<149 201 397 696> 1494 17G<352.955 397 592.226 740>
VStem: 201 196<138 439 620 1422> 989 186<558.498 1014.92>
LayerCount: 2
Fore
SplineSet
397 439 m 1,0,-1
 397 138 l 1,1,2
 539 170 539 170 630 211 c 1,3,4
 806 304 806 304 907 466 c 0,5,6
 984 590 984 590 989 782 c 1,7,8
 989 834 989 834 987 852 c 0,9,10
 962 1073 962 1073 801 1202 c 0,11,12
 678 1301 678 1301 424 1385 c 1,13,-1
 401 1390 l 1,14,-1
 629 1514 l 1,15,16
 851 1429 851 1429 985 1298 c 0,17,18
 1155 1132 1155 1132 1175 850 c 1,19,-1
 1175 847 l 2,20,21
 1175 542 1175 542 1023 363 c 0,22,23
 895 212 895 212 659 122 c 0,24,25
 500 62 500 62 390 39 c 2,26,-1
 201 0 l 1,27,-1
 201 439 l 1,28,-1
 55 439 l 1,29,-1
 149 621 l 1,30,-1
 201 620 l 1,31,-1
 201 1422 l 1,32,-1
 397 1511 l 1,33,-1
 397 620 l 1,34,-1
 782 620 l 1,35,-1
 696 440 l 1,36,-1
 397 439 l 1,0,-1
EndSplineSet
Validated: 1
EndChar

StartChar: dcroat
Encoding: 273 273 211
Width: 1104
GlyphClass: 2
Flags: W
HStem: -5 183<411.207 545> 938 179<541 674.014> 1210 174<503 758 951 1006> 1492 20G<903.171 950>
VStem: 130 192<266.784 756> 758 192<354 853.604 1057 1210 1384 1430>
LayerCount: 2
Fore
SplineSet
324 395 m 2,0,1
 325 298 325 298 394 234 c 0,2,3
 455 178 455 178 542 178 c 0,4,5
 640 178 640 178 698 242 c 1,6,7
 758 306 758 306 758 394 c 2,8,-1
 758 397 l 1,9,-1
 756 719 l 2,10,11
 755 811 755 811 696 874 c 1,12,13
 638 938 638 938 540 938 c 0,14,15
 453 938 453 938 392 882 c 0,16,17
 322 818 322 818 322 724 c 2,18,-1
 322 721 l 1,19,-1
 324 395 l 2,0,1
758 1384 m 1,20,-1
 758 1430 l 1,21,-1
 950 1512 l 1,22,-1
 950 1384 l 1,23,-1
 1099 1384 l 1,24,-1
 1006 1210 l 1,25,-1
 951 1210 l 1,26,-1
 952 354 l 1,27,-1
 545 -5 l 1,28,29
 384 0 384 0 260 118 c 0,30,31
 130 242 130 242 130 410 c 2,32,-1
 130 756 l 1,33,-1
 541 1117 l 1,34,35
 665 1114 665 1114 758 1057 c 1,36,-1
 758 1210 l 1,37,-1
 412 1210 l 1,38,-1
 503 1384 l 1,39,-1
 758 1384 l 1,20,-1
EndSplineSet
Validated: 1
EndChar

StartChar: Emacron
Encoding: 274 274 212
Width: 1139
GlyphClass: 2
Flags: W
HStem: 20 182<149 201 397 997> 439 182<149 201 397 892> 1321 170<399 897> 1678 172<440 977>
VStem: 201 196<202 439 621 1321>
LayerCount: 2
Fore
SplineSet
440 1850 m 1,0,-1
 1060 1850 l 1,1,-1
 977 1678 l 1,2,-1
 359 1678 l 1,3,-1
 440 1850 l 1,0,-1
201 439 m 1,4,-1
 55 439 l 1,5,-1
 149 621 l 1,6,-1
 201 621 l 1,7,-1
 201 1402 l 1,8,-1
 399 1491 l 1,9,-1
 983 1490 l 1,10,-1
 897 1323 l 1,11,-1
 397 1321 l 1,12,-1
 397 621 l 1,13,-1
 978 621 l 1,14,-1
 892 441 l 1,15,-1
 397 440 l 1,16,-1
 397 202 l 1,17,-1
 1089 202 l 1,18,-1
 997 20 l 1,19,-1
 55 20 l 1,20,-1
 149 202 l 1,21,-1
 201 202 l 1,22,-1
 201 439 l 1,4,-1
EndSplineSet
Validated: 1
EndChar

StartChar: emacron
Encoding: 275 275 213
Width: 1082
GlyphClass: 2
Flags: W
HStem: -5 183<411.207 545> 938 179<541 673.12> 1338 172<271 808>
VStem: 130 192<266.784 412 527 756>
DStem2: 322 527 324 412 0.897843 0.440316<0 495.925>
LayerCount: 2
Fore
SplineSet
271 1510 m 1,0,-1
 891 1510 l 1,1,-1
 808 1338 l 1,2,-1
 190 1338 l 1,3,-1
 271 1510 l 1,0,-1
324 412 m 1,4,-1
 324 395 l 2,5,6
 324 299 324 299 394 234 c 0,7,8
 455 178 455 178 542 178 c 0,9,10
 640 178 640 178 698 242 c 1,11,12
 758 306 758 306 758 394 c 2,13,-1
 758 397 l 1,14,-1
 758 404 l 1,15,-1
 952 487 l 1,16,-1
 952 354 l 1,17,-1
 545 -5 l 1,18,19
 384 0 384 0 260 118 c 0,20,21
 130 242 130 242 130 410 c 2,22,-1
 130 756 l 1,23,-1
 541 1117 l 1,24,25
 716 1113 716 1113 830 1001 c 0,26,27
 948 885 948 885 950 724 c 1,28,-1
 950 719 l 1,29,-1
 324 412 l 1,4,-1
322 527 m 1,30,-1
 755 747 l 1,31,32
 747 822 747 822 696 874 c 1,33,34
 638 938 638 938 540 938 c 0,35,36
 453 938 453 938 392 882 c 0,37,38
 322 818 322 818 322 724 c 2,39,-1
 322 721 l 1,40,-1
 322 527 l 1,30,-1
EndSplineSet
Validated: 16385
EndChar

StartChar: Ebreve
Encoding: 276 276 214
Width: 1129
GlyphClass: 2
Flags: W
HStem: 20 182<149 201 397 997> 439 182<149 201 397 892> 1321 170<399 897> 1635 112<575.387 843.22>
VStem: 201 196<202 439 621 1321>
LayerCount: 2
Fore
SplineSet
718 1747 m 0,0,1
 848 1747 848 1747 921 1890 c 1,2,-1
 930 1915 l 1,3,-1
 1099 1797 l 1,4,5
 1032 1736 1032 1736 952 1695 c 0,6,7
 835 1635 835 1635 705 1635 c 0,8,9
 576 1635 576 1635 458 1695 c 0,10,11
 385 1732 385 1732 324 1785 c 1,12,-1
 483 1923 l 1,13,-1
 498 1890 l 2,14,15
 564 1747 564 1747 718 1747 c 0,0,1
201 439 m 1,16,-1
 55 439 l 1,17,-1
 149 621 l 1,18,-1
 201 621 l 1,19,-1
 201 1402 l 1,20,-1
 399 1491 l 1,21,-1
 983 1490 l 1,22,-1
 897 1323 l 1,23,-1
 397 1321 l 1,24,-1
 397 621 l 1,25,-1
 978 621 l 1,26,-1
 892 441 l 1,27,-1
 397 440 l 1,28,-1
 397 202 l 1,29,-1
 1089 202 l 1,30,-1
 997 20 l 1,31,-1
 55 20 l 1,32,-1
 149 202 l 1,33,-1
 201 202 l 1,34,-1
 201 439 l 1,16,-1
EndSplineSet
Validated: 1
EndChar

StartChar: ebreve
Encoding: 277 277 215
Width: 1082
GlyphClass: 2
Flags: W
HStem: -5 183<411.207 545> 938 179<541 673.12> 1236 112<404.387 672.22>
VStem: 130 192<266.784 412 527 756>
DStem2: 322 527 324 412 0.897843 0.440316<0 495.925>
LayerCount: 2
Fore
SplineSet
547 1348 m 0,0,1
 677 1348 677 1348 750 1491 c 1,2,-1
 759 1516 l 1,3,-1
 928 1398 l 1,4,5
 861 1337 861 1337 781 1296 c 0,6,7
 664 1236 664 1236 534 1236 c 0,8,9
 405 1236 405 1236 287 1296 c 0,10,11
 214 1333 214 1333 153 1386 c 1,12,-1
 312 1524 l 1,13,-1
 327 1491 l 2,14,15
 393 1348 393 1348 547 1348 c 0,0,1
324 412 m 1,16,-1
 324 395 l 2,17,18
 324 299 324 299 394 234 c 0,19,20
 455 178 455 178 542 178 c 0,21,22
 640 178 640 178 698 242 c 1,23,24
 758 306 758 306 758 394 c 2,25,-1
 758 397 l 1,26,-1
 758 404 l 1,27,-1
 952 487 l 1,28,-1
 952 354 l 1,29,-1
 545 -5 l 1,30,31
 384 0 384 0 260 118 c 0,32,33
 130 242 130 242 130 410 c 2,34,-1
 130 756 l 1,35,-1
 541 1117 l 1,36,37
 716 1113 716 1113 830 1001 c 0,38,39
 948 885 948 885 950 724 c 1,40,-1
 950 719 l 1,41,-1
 324 412 l 1,16,-1
322 527 m 1,42,-1
 755 747 l 1,43,44
 747 822 747 822 696 874 c 1,45,46
 638 938 638 938 540 938 c 0,47,48
 453 938 453 938 392 882 c 0,49,50
 322 818 322 818 322 724 c 2,51,-1
 322 721 l 1,52,-1
 322 527 l 1,42,-1
EndSplineSet
Validated: 16385
EndChar

StartChar: Edotaccent
Encoding: 278 278 216
Width: 1139
GlyphClass: 2
Flags: W
HStem: 20 182<149 201 397 997> 439 182<149 201 397 892> 1321 170<399 897> 1602 208<594 802> 1694 218<574 792>
VStem: 201 196<202 439 621 1321> 594 198<1694 1810>
LayerCount: 2
Fore
SplineSet
792 1694 m 1,0,-1
 594 1602 l 1,1,-1
 594 1810 l 1,2,-1
 792 1912 l 1,3,-1
 792 1694 l 1,0,-1
201 439 m 1,4,-1
 55 439 l 1,5,-1
 149 621 l 1,6,-1
 201 621 l 1,7,-1
 201 1402 l 1,8,-1
 399 1491 l 1,9,-1
 983 1490 l 1,10,-1
 897 1323 l 1,11,-1
 397 1321 l 1,12,-1
 397 621 l 1,13,-1
 978 621 l 1,14,-1
 892 441 l 1,15,-1
 397 440 l 1,16,-1
 397 202 l 1,17,-1
 1089 202 l 1,18,-1
 997 20 l 1,19,-1
 55 20 l 1,20,-1
 149 202 l 1,21,-1
 201 202 l 1,22,-1
 201 439 l 1,4,-1
EndSplineSet
Validated: 1
EndChar

StartChar: edotaccent
Encoding: 279 279 217
Width: 1082
GlyphClass: 2
Flags: W
HStem: -5 183<411.207 545> 938 179<541 673.12> 1209 208<413 621> 1495 20G<569 609>
VStem: 130 192<266.784 412 527 756> 413 196<1297 1417>
DStem2: 322 527 324 412 0.897843 0.440316<0 495.925>
LayerCount: 2
Fore
SplineSet
609 1297 m 1,0,-1
 413 1209 l 1,1,-1
 413 1417 l 1,2,-1
 609 1515 l 1,3,-1
 609 1297 l 1,0,-1
324 412 m 1,4,-1
 324 395 l 2,5,6
 324 299 324 299 394 234 c 0,7,8
 455 178 455 178 542 178 c 0,9,10
 640 178 640 178 698 242 c 1,11,12
 758 306 758 306 758 394 c 2,13,-1
 758 397 l 1,14,-1
 758 404 l 1,15,-1
 952 487 l 1,16,-1
 952 354 l 1,17,-1
 545 -5 l 1,18,19
 384 0 384 0 260 118 c 0,20,21
 130 242 130 242 130 410 c 2,22,-1
 130 756 l 1,23,-1
 541 1117 l 1,24,25
 716 1113 716 1113 830 1001 c 0,26,27
 948 885 948 885 950 724 c 1,28,-1
 950 719 l 1,29,-1
 324 412 l 1,4,-1
322 527 m 1,30,-1
 755 747 l 1,31,32
 747 822 747 822 696 874 c 1,33,34
 638 938 638 938 540 938 c 0,35,36
 453 938 453 938 392 882 c 0,37,38
 322 818 322 818 322 724 c 2,39,-1
 322 721 l 1,40,-1
 322 527 l 1,30,-1
EndSplineSet
Validated: 16385
EndChar

StartChar: Eogonek
Encoding: 280 280 218
Width: 1139
GlyphClass: 2
Flags: W
HStem: 20 182<149 201 397 815 951 997> 439 182<149 201 397 892> 1321 170<399 897>
VStem: 201 196<202 439 621 1321>
DStem2: 840 -82 657 -139 0.676271 -0.736653<0 240.318>
LayerCount: 2
Fore
SplineSet
881 -383 m 1,0,-1
 657 -139 l 1,1,-1
 815 20 l 1,2,-1
 55 20 l 1,3,-1
 149 202 l 1,4,-1
 201 202 l 1,5,-1
 201 439 l 1,6,-1
 55 439 l 1,7,-1
 149 621 l 1,8,-1
 201 621 l 1,9,-1
 201 1402 l 1,10,-1
 399 1491 l 1,11,-1
 983 1490 l 1,12,-1
 897 1323 l 1,13,-1
 397 1321 l 1,14,-1
 397 621 l 1,15,-1
 978 621 l 1,16,-1
 892 441 l 1,17,-1
 397 440 l 1,18,-1
 397 202 l 1,19,-1
 1089 202 l 1,20,-1
 997 20 l 1,21,-1
 951 21 l 1,22,-1
 840 -82 l 1,23,-1
 1008 -254 l 1,24,-1
 881 -383 l 1,0,-1
EndSplineSet
Validated: 1
EndChar

StartChar: eogonek
Encoding: 281 281 219
Width: 1065
GlyphClass: 2
Flags: W
HStem: 938 179<541 673.12>
VStem: 130 192<266.289 412 527 756>
DStem2: 322 527 324 412 0.897843 0.440316<0 495.925> 573 -84 390 -141 0.676405 -0.73653<0 240.319>
LayerCount: 2
Fore
SplineSet
573 -84 m 1,0,-1
 741 -256 l 1,1,-1
 615 -386 l 1,2,-1
 390 -141 l 1,3,-1
 526 -4 l 1,4,5
 377 7 377 7 260 118 c 0,6,7
 130 241 130 241 130 410 c 2,8,-1
 130 756 l 1,9,-1
 541 1117 l 1,10,11
 716 1113 716 1113 830 1001 c 0,12,13
 948 885 948 885 950 724 c 1,14,-1
 950 719 l 1,15,-1
 324 412 l 1,16,-1
 324 395 l 2,17,18
 324 299 324 299 394 234 c 0,19,20
 455 178 455 178 542 178 c 0,21,22
 640 178 640 178 698 242 c 1,23,24
 758 306 758 306 758 394 c 2,25,-1
 758 397 l 1,26,-1
 758 404 l 1,27,-1
 952 487 l 1,28,-1
 952 354 l 1,29,-1
 684 118 l 1,30,-1
 741 63 l 1,31,-1
 573 -84 l 1,0,-1
322 527 m 1,32,-1
 755 747 l 1,33,34
 747 822 747 822 696 874 c 1,35,36
 638 938 638 938 540 938 c 0,37,38
 453 938 453 938 392 882 c 0,39,40
 322 818 322 818 322 724 c 2,41,-1
 322 721 l 1,42,-1
 322 527 l 1,32,-1
EndSplineSet
Validated: 16385
EndChar

StartChar: Ecaron
Encoding: 282 282 220
Width: 1139
GlyphClass: 2
Flags: W
HStem: 20 182<149 201 397 997> 439 182<149 201 397 892> 1321 170<399 897>
VStem: 201 196<202 439 621 1321>
DStem2: 523 1989 393 1863 0.770645 -0.637264<0 312.274> 762 1788 705 1605 0.770645 0.637264<0 235.847>
LayerCount: 2
Fore
SplineSet
762 1788 m 1,0,-1
 944 1938 l 1,1,-1
 1017 1863 l 1,2,-1
 705 1605 l 1,3,-1
 393 1863 l 1,4,-1
 523 1989 l 1,5,-1
 762 1788 l 1,0,-1
201 439 m 1,6,-1
 55 439 l 1,7,-1
 149 621 l 1,8,-1
 201 621 l 1,9,-1
 201 1402 l 1,10,-1
 399 1491 l 1,11,-1
 983 1490 l 1,12,-1
 897 1323 l 1,13,-1
 397 1321 l 1,14,-1
 397 621 l 1,15,-1
 978 621 l 1,16,-1
 892 441 l 1,17,-1
 397 440 l 1,18,-1
 397 202 l 1,19,-1
 1089 202 l 1,20,-1
 997 20 l 1,21,-1
 55 20 l 1,22,-1
 149 202 l 1,23,-1
 201 202 l 1,24,-1
 201 439 l 1,6,-1
EndSplineSet
Validated: 1
EndChar

StartChar: ecaron
Encoding: 283 283 221
Width: 1082
GlyphClass: 2
Flags: W
HStem: -5 183<411.207 545> 938 179<541 673.12>
VStem: 130 192<266.784 412 527 756>
DStem2: 358 1576 228 1450 0.770645 -0.637264<0 312.274> 322 527 324 412 0.897843 0.440316<0 495.925> 597 1375 540 1192 0.770645 0.637264<0 235.847>
LayerCount: 2
Fore
SplineSet
597 1375 m 1,0,-1
 779 1525 l 1,1,-1
 852 1450 l 1,2,-1
 540 1192 l 1,3,-1
 228 1450 l 1,4,-1
 358 1576 l 1,5,-1
 597 1375 l 1,0,-1
324 412 m 1,6,-1
 324 395 l 2,7,8
 324 299 324 299 394 234 c 0,9,10
 455 178 455 178 542 178 c 0,11,12
 640 178 640 178 698 242 c 1,13,14
 758 306 758 306 758 394 c 2,15,-1
 758 397 l 1,16,-1
 758 404 l 1,17,-1
 952 487 l 1,18,-1
 952 354 l 1,19,-1
 545 -5 l 1,20,21
 384 0 384 0 260 118 c 0,22,23
 130 242 130 242 130 410 c 2,24,-1
 130 756 l 1,25,-1
 541 1117 l 1,26,27
 716 1113 716 1113 830 1001 c 0,28,29
 948 885 948 885 950 724 c 1,30,-1
 950 719 l 1,31,-1
 324 412 l 1,6,-1
322 527 m 1,32,-1
 755 747 l 1,33,34
 747 822 747 822 696 874 c 1,35,36
 638 938 638 938 540 938 c 0,37,38
 453 938 453 938 392 882 c 0,39,40
 322 818 322 818 322 724 c 2,41,-1
 322 721 l 1,42,-1
 322 527 l 1,32,-1
EndSplineSet
Validated: 16385
EndChar

StartChar: Gcircumflex
Encoding: 284 284 222
Width: 1378
GlyphClass: 2
Flags: W
HStem: 0 188<540.938 694> 441 182<612 981> 1325 185<694 852.208>
VStem: 200 198<333.191 1080> 986 202<1011 1188.31>
DStem2: 377 1728 450 1653 0.770645 0.637264<8.46228 244.309> 689 1986 632 1803 0.770645 -0.637264<72.6926 384.967>
LayerCount: 2
Fore
SplineSet
632 1803 m 1,0,-1
 450 1653 l 1,1,-1
 377 1728 l 1,2,-1
 689 1986 l 1,3,-1
 1001 1728 l 1,4,-1
 871 1602 l 1,5,-1
 632 1803 l 1,0,-1
694 0 m 1,6,-1
 687 0 l 2,7,8
 478 0 478 0 345 145 c 0,9,10
 200 303 200 303 200 494 c 2,11,-1
 200 1080 l 1,12,-1
 694 1510 l 1,13,-1
 701 1510 l 2,14,15
 909 1510 909 1510 1043 1365 c 0,16,17
 1188 1208 1188 1208 1188 1016 c 2,18,-1
 1188 1011 l 1,19,-1
 986 920 l 1,20,-1
 986 1010 l 2,21,22
 986 1151 986 1151 910 1232 c 0,23,24
 822 1325 822 1325 708 1325 c 2,25,-1
 706 1325 l 1,26,27
 561 1322 561 1322 476 1226 c 0,28,29
 398 1138 398 1138 398 1010 c 2,30,-1
 398 500 l 2,31,32
 398 372 398 372 480 282 c 0,33,34
 566 188 566 188 692 188 c 128,-1,35
 818 188 818 188 908 284 c 0,36,37
 966 346 966 346 981 442 c 1,38,-1
 518 441 l 1,39,-1
 612 623 l 1,40,-1
 1273 623 l 1,41,-1
 1187 443 l 1,42,-1
 694 0 l 1,6,-1
EndSplineSet
Validated: 1
EndChar

StartChar: gcircumflex
Encoding: 285 285 223
Width: 1101
GlyphClass: 2
Flags: W
HStem: -392 179<407.236 540> -5 183<411.207 545> 938 179<541 673.12>
VStem: 130 192<266.784 756> 759 192<-31 183 261.263 851.487>
DStem2: 130 756 392 882 0.725787 0.68792<142.647 402.562> 228 1318 301 1243 0.770645 0.637264<8.46228 244.309> 540 1576 483 1393 0.770645 -0.637264<72.6926 384.967>
LayerCount: 2
Fore
SplineSet
483 1393 m 1,0,-1
 301 1243 l 1,1,-1
 228 1318 l 1,2,-1
 540 1576 l 1,3,-1
 852 1318 l 1,4,-1
 722 1192 l 1,5,-1
 483 1393 l 1,0,-1
540 -392 m 17,6,7
 356 -392 356 -392 244 -273 c 1,8,9
 244 -272 244 -272 385 -149 c 1,10,11
 443 -213 443 -213 541 -213 c 0,12,13
 628 -213 628 -213 689 -157 c 0,14,15
 759 -93 759 -93 759 1 c 2,16,-1
 759 4 l 1,17,-1
 758 183 l 1,18,-1
 545 -5 l 1,19,20
 384 0 384 0 260 118 c 0,21,22
 130 242 130 242 130 410 c 2,23,-1
 130 756 l 1,24,-1
 541 1117 l 1,25,26
 716 1113 716 1113 830 1001 c 0,27,28
 948 885 948 885 950 724 c 1,29,-1
 951 -31 l 1,30,-1
 540 -392 l 17,6,7
758 383 m 1,31,32
 758 383 758 383 756 719 c 0,33,34
 756 811 756 811 696 874 c 1,35,36
 638 938 638 938 540 938 c 0,37,38
 453 938 453 938 392 882 c 0,39,40
 322 818 322 818 322 724 c 2,41,42
 322 724 322 724 322 721 c 2,43,-1
 324 395 l 2,44,45
 325 298 325 298 394 234 c 0,46,47
 455 178 455 178 542 178 c 0,48,49
 640 178 640 178 698 242 c 1,50,51
 754 302 754 302 758 383 c 1,31,32
EndSplineSet
Validated: 1
EndChar

StartChar: Gbreve
Encoding: 286 286 224
Width: 1378
GlyphClass: 2
Flags: W
HStem: 0 188<540.938 694> 441 182<612 981> 1325 185<694 852.208> 1635 112<574.387 842.22>
VStem: 200 198<333.191 1080> 986 202<1011 1188.31>
LayerCount: 2
Fore
SplineSet
717 1747 m 0,0,1
 847 1747 847 1747 920 1890 c 1,2,-1
 929 1915 l 1,3,-1
 1098 1797 l 1,4,5
 1031 1736 1031 1736 951 1695 c 0,6,7
 834 1635 834 1635 704 1635 c 0,8,9
 575 1635 575 1635 457 1695 c 0,10,11
 384 1732 384 1732 323 1785 c 1,12,-1
 482 1923 l 1,13,-1
 497 1890 l 2,14,15
 563 1747 563 1747 717 1747 c 0,0,1
694 0 m 1,16,-1
 687 0 l 2,17,18
 478 0 478 0 345 145 c 0,19,20
 200 303 200 303 200 494 c 2,21,-1
 200 1080 l 1,22,-1
 694 1510 l 1,23,-1
 701 1510 l 2,24,25
 909 1510 909 1510 1043 1365 c 0,26,27
 1188 1208 1188 1208 1188 1016 c 2,28,-1
 1188 1011 l 1,29,-1
 986 920 l 1,30,-1
 986 1010 l 2,31,32
 986 1151 986 1151 910 1232 c 0,33,34
 822 1325 822 1325 708 1325 c 2,35,-1
 706 1325 l 1,36,37
 561 1322 561 1322 476 1226 c 0,38,39
 398 1138 398 1138 398 1010 c 2,40,-1
 398 500 l 2,41,42
 398 372 398 372 480 282 c 0,43,44
 566 188 566 188 692 188 c 128,-1,45
 818 188 818 188 908 284 c 0,46,47
 966 346 966 346 981 442 c 1,48,-1
 518 441 l 1,49,-1
 612 623 l 1,50,-1
 1273 623 l 1,51,-1
 1187 443 l 1,52,-1
 694 0 l 1,16,-1
EndSplineSet
Validated: 1
EndChar

StartChar: gbreve
Encoding: 287 287 225
Width: 1101
GlyphClass: 2
Flags: W
HStem: -392 179<407.236 540> -5 183<411.207 545> 938 179<541 673.12> 1236 112<404.387 672.22>
VStem: 130 192<266.784 756> 759 192<-31 183 261.263 851.487>
LayerCount: 2
Fore
SplineSet
547 1348 m 0,0,1
 677 1348 677 1348 750 1491 c 1,2,-1
 759 1516 l 1,3,-1
 928 1398 l 1,4,5
 861 1337 861 1337 781 1296 c 0,6,7
 664 1236 664 1236 534 1236 c 0,8,9
 405 1236 405 1236 287 1296 c 0,10,11
 214 1333 214 1333 153 1386 c 1,12,-1
 312 1524 l 1,13,-1
 327 1491 l 2,14,15
 393 1348 393 1348 547 1348 c 0,0,1
951 -31 m 1,16,-1
 540 -392 l 1,17,18
 356 -386 356 -386 244 -273 c 1,19,20
 244 -272 244 -272 385 -149 c 1,21,22
 443 -213 443 -213 541 -213 c 0,23,24
 628 -213 628 -213 689 -157 c 0,25,26
 759 -93 759 -93 759 1 c 2,27,-1
 759 4 l 1,28,-1
 758 183 l 1,29,-1
 545 -5 l 1,30,31
 384 0 384 0 260 118 c 0,32,33
 130 242 130 242 130 410 c 2,34,-1
 130 756 l 1,35,-1
 541 1117 l 1,36,37
 716 1113 716 1113 830 1001 c 0,38,39
 948 885 948 885 950 724 c 1,40,-1
 951 -31 l 1,16,-1
758 383 m 1,41,42
 758 383 758 383 756 719 c 0,43,44
 756 811 756 811 696 874 c 1,45,46
 638 938 638 938 540 938 c 0,47,48
 453 938 453 938 392 882 c 0,49,50
 322 818 322 818 322 724 c 2,51,52
 322 724 322 724 322 721 c 2,53,-1
 324 395 l 2,54,55
 325 298 325 298 394 234 c 0,56,57
 455 178 455 178 542 178 c 0,58,59
 640 178 640 178 698 242 c 1,60,61
 754 302 754 302 758 383 c 1,41,42
EndSplineSet
Validated: 1
EndChar

StartChar: Gdotaccent
Encoding: 288 288 226
Width: 1378
GlyphClass: 2
Flags: W
HStem: 0 188<540.938 694> 441 182<612 981> 1325 185<694 852.208> 1602 208<593 801> 1694 218<573 791>
VStem: 200 198<333.191 1080> 593 198<1694 1810> 986 202<1011 1188.31>
LayerCount: 2
Fore
SplineSet
791 1694 m 1,0,-1
 593 1602 l 1,1,-1
 593 1810 l 1,2,-1
 791 1912 l 1,3,-1
 791 1694 l 1,0,-1
694 0 m 1,4,-1
 687 0 l 2,5,6
 478 0 478 0 345 145 c 0,7,8
 200 303 200 303 200 494 c 2,9,-1
 200 1080 l 1,10,-1
 694 1510 l 1,11,-1
 701 1510 l 2,12,13
 909 1510 909 1510 1043 1365 c 0,14,15
 1188 1208 1188 1208 1188 1016 c 2,16,-1
 1188 1011 l 1,17,-1
 986 920 l 1,18,-1
 986 1010 l 2,19,20
 986 1151 986 1151 910 1232 c 0,21,22
 822 1325 822 1325 708 1325 c 2,23,-1
 706 1325 l 1,24,25
 561 1322 561 1322 476 1226 c 0,26,27
 398 1138 398 1138 398 1010 c 2,28,-1
 398 500 l 2,29,30
 398 372 398 372 480 282 c 0,31,32
 566 188 566 188 692 188 c 128,-1,33
 818 188 818 188 908 284 c 0,34,35
 966 346 966 346 981 442 c 1,36,-1
 518 441 l 1,37,-1
 612 623 l 1,38,-1
 1273 623 l 1,39,-1
 1187 443 l 1,40,-1
 694 0 l 1,4,-1
EndSplineSet
Validated: 1
EndChar

StartChar: gdotaccent
Encoding: 289 289 227
Width: 1101
GlyphClass: 2
Flags: W
HStem: -392 179<406.119 540> -5 183<411.207 545> 938 179<541 673.12> 1209 208<413 621> 1495 20G<569 609>
VStem: 130 192<266.784 756> 413 196<1297 1417> 759 192<-31 183 261.263 851.487>
LayerCount: 2
Fore
SplineSet
609 1297 m 1,0,-1
 413 1209 l 1,1,-1
 413 1417 l 1,2,-1
 609 1515 l 1,3,-1
 609 1297 l 1,0,-1
951 -31 m 1,4,-1
 540 -392 l 1,5,6
 362 -392 362 -392 244 -273 c 1,7,8
 244 -272 244 -272 385 -149 c 1,9,10
 443 -213 443 -213 541 -213 c 0,11,12
 628 -213 628 -213 689 -157 c 0,13,14
 759 -93 759 -93 759 1 c 2,15,-1
 759 4 l 1,16,-1
 758 183 l 1,17,-1
 545 -5 l 1,18,19
 384 0 384 0 260 118 c 0,20,21
 130 242 130 242 130 410 c 2,22,-1
 130 756 l 1,23,-1
 541 1117 l 1,24,25
 716 1113 716 1113 830 1001 c 0,26,27
 948 885 948 885 950 724 c 1,28,-1
 951 -31 l 1,4,-1
758 383 m 1,29,30
 758 383 758 383 756 719 c 0,31,32
 756 811 756 811 696 874 c 1,33,34
 638 938 638 938 540 938 c 0,35,36
 453 938 453 938 392 882 c 0,37,38
 322 818 322 818 322 724 c 2,39,40
 322 724 322 724 322 721 c 2,41,-1
 324 395 l 2,42,43
 325 298 325 298 394 234 c 0,44,45
 455 178 455 178 542 178 c 0,46,47
 640 178 640 178 698 242 c 1,48,49
 754 302 754 302 758 383 c 1,29,30
EndSplineSet
Validated: 1
EndChar

StartChar: Gcommaaccent
Encoding: 290 290 228
Width: 1378
GlyphClass: 2
Flags: W
HStem: 0 188<540.938 694> 441 182<612 981> 1325 185<694 852.208>
VStem: 200 198<333.191 1080> 986 202<1011 1188.31>
DStem2: 383 -297 513 -423 0.770645 0.637264<19.8886 404.856>
LayerCount: 2
Fore
SplineSet
695 -39 m 1,0,-1
 825 -165 l 1,1,-1
 513 -423 l 1,2,-1
 383 -297 l 1,3,-1
 695 -39 l 1,0,-1
694 0 m 1,4,-1
 687 0 l 2,5,6
 478 0 478 0 345 145 c 0,7,8
 200 303 200 303 200 494 c 2,9,-1
 200 1080 l 1,10,-1
 694 1510 l 1,11,-1
 701 1510 l 2,12,13
 909 1510 909 1510 1043 1365 c 0,14,15
 1188 1208 1188 1208 1188 1016 c 2,16,-1
 1188 1011 l 1,17,-1
 986 920 l 1,18,-1
 986 1010 l 2,19,20
 986 1151 986 1151 910 1232 c 0,21,22
 822 1325 822 1325 708 1325 c 2,23,-1
 706 1325 l 1,24,25
 561 1322 561 1322 476 1226 c 0,26,27
 398 1138 398 1138 398 1010 c 2,28,-1
 398 500 l 2,29,30
 398 372 398 372 480 282 c 0,31,32
 566 188 566 188 692 188 c 128,-1,33
 818 188 818 188 908 284 c 0,34,35
 966 346 966 346 981 442 c 1,36,-1
 518 441 l 1,37,-1
 612 623 l 1,38,-1
 1273 623 l 1,39,-1
 1187 443 l 1,40,-1
 694 0 l 1,4,-1
EndSplineSet
Validated: 1
EndChar

StartChar: gcommaaccent
Encoding: 291 291 229
Width: 1101
GlyphClass: 2
Flags: W
HStem: -392 179<407.438 540> -5 183<411.207 545> 938 179<541 673.12>
VStem: 130 192<266.784 756> 759 192<-31 183 261.263 851.487>
DStem2: 410 1318 540 1192 0.770645 0.637264<19.8886 404.856>
LayerCount: 2
Fore
SplineSet
722 1576 m 1,0,-1
 852 1450 l 1,1,-1
 540 1192 l 1,2,-1
 410 1318 l 1,3,-1
 722 1576 l 1,0,-1
951 -31 m 1,4,-1
 540 -392 l 1,5,6
 346 -392 346 -392 244 -273 c 1,7,8
 244 -272 244 -272 385 -149 c 1,9,10
 443 -213 443 -213 541 -213 c 0,11,12
 628 -213 628 -213 689 -157 c 0,13,14
 759 -93 759 -93 759 1 c 2,15,-1
 759 4 l 1,16,-1
 758 183 l 1,17,-1
 545 -5 l 1,18,19
 384 0 384 0 260 118 c 0,20,21
 130 242 130 242 130 410 c 2,22,-1
 130 756 l 1,23,-1
 541 1117 l 1,24,25
 716 1113 716 1113 830 1001 c 0,26,27
 948 885 948 885 950 724 c 1,28,-1
 951 -31 l 1,4,-1
758 383 m 1,29,30
 758 383 758 383 756 719 c 0,31,32
 756 811 756 811 696 874 c 1,33,34
 638 938 638 938 540 938 c 0,35,36
 453 938 453 938 392 882 c 0,37,38
 322 818 322 818 322 724 c 2,39,40
 322 724 322 724 322 721 c 2,41,-1
 324 395 l 2,42,43
 325 298 325 298 394 234 c 0,44,45
 455 178 455 178 542 178 c 0,46,47
 640 178 640 178 698 242 c 1,48,49
 754 302 754 302 758 383 c 1,29,30
EndSplineSet
Validated: 1
EndChar

StartChar: Hcircumflex
Encoding: 292 292 230
Width: 1403
GlyphClass: 2
Flags: W
HStem: 0 21G<201 244.043 1008.94 1051.17> 439 182<149 201 399 837> 1492 20G<355 399 1159 1203>
VStem: 201 198<92 439 621 1422> 1009 194<92 1422>
DStem2: 378 1728 451 1653 0.770645 0.637264<8.46228 244.309> 690 1986 633 1803 0.770645 -0.637264<72.6926 384.967>
LayerCount: 2
Fore
SplineSet
633 1803 m 1,0,-1
 451 1653 l 1,1,-1
 378 1728 l 1,2,-1
 690 1986 l 1,3,-1
 1002 1728 l 1,4,-1
 872 1602 l 1,5,-1
 633 1803 l 1,0,-1
1005 1422 m 1,6,-1
 1203 1512 l 1,7,-1
 1203 92 l 1,8,-1
 1009 0 l 1,9,-1
 1005 1422 l 1,6,-1
399 92 m 1,10,-1
 201 0 l 1,11,-1
 201 439 l 1,12,-1
 55 439 l 1,13,-1
 149 621 l 1,14,-1
 201 621 l 1,15,-1
 201 1422 l 1,16,-1
 399 1512 l 1,17,-1
 399 621 l 1,18,-1
 923 621 l 1,19,-1
 837 441 l 1,20,-1
 399 440 l 1,21,-1
 399 92 l 1,10,-1
EndSplineSet
Validated: 1
EndChar

